<?xml version="1.0" encoding="UTF-8"?>
<svg width="3300px" height="2200px" viewBox="0 0 3300 2200" version="1.1" xmlns="http://www.w3.org/2000/svg" xmlns:xlink="http://www.w3.org/1999/xlink">
    <title>youtube</title>
    <g id="Page-1" stroke="none" stroke-width="1" fill="none" fill-rule="evenodd">
        <g id="youtube">
            <g id="Notes">
                <rect id="artboard" fill="#FFFFFF" fill-rule="nonzero" x="0" y="0" width="3300" height="2200"></rect>
                <line x1="263" y1="292" x2="3036" y2="292" id="Path" stroke="#000000" stroke-width="0.5"></line>
                <text id="Weight/Scale-Variations" fill="#000000" fill-rule="nonzero" font-family="Helvetica-Bold, Helvetica" font-size="13" font-weight="bold">
                    <tspan x="263" y="322">Weight/Scale Variations</tspan>
                </text>
                <text id="Ultralight" fill="#000000" fill-rule="nonzero" font-family="Helvetica" font-size="13" font-weight="normal">
                    <tspan x="533.711" y="322">Ultralight</tspan>
                </text>
                <text id="Thin" fill="#000000" fill-rule="nonzero" font-family="Helvetica" font-size="13" font-weight="normal">
                    <tspan x="843.422" y="322">Thin</tspan>
                </text>
                <text id="Light" fill="#000000" fill-rule="nonzero" font-family="Helvetica" font-size="13" font-weight="normal">
                    <tspan x="1138.63" y="322">Light</tspan>
                </text>
                <text id="Regular" fill="#000000" fill-rule="nonzero" font-family="Helvetica" font-size="13" font-weight="normal">
                    <tspan x="1426.84" y="322">Regular</tspan>
                </text>
                <text id="Medium" fill="#000000" fill-rule="nonzero" font-family="Helvetica" font-size="13" font-weight="normal">
                    <tspan x="1723.06" y="322">Medium</tspan>
                </text>
                <text id="Semibold" fill="#000000" fill-rule="nonzero" font-family="Helvetica" font-size="13" font-weight="normal">
                    <tspan x="2015.77" y="322">Semibold</tspan>
                </text>
                <text id="Bold" fill="#000000" fill-rule="nonzero" font-family="Helvetica" font-size="13" font-weight="normal">
                    <tspan x="2326.48" y="322">Bold</tspan>
                </text>
                <text id="Heavy" fill="#000000" fill-rule="nonzero" font-family="Helvetica" font-size="13" font-weight="normal">
                    <tspan x="2618.19" y="322">Heavy</tspan>
                </text>
                <text id="Black" fill="#000000" fill-rule="nonzero" font-family="Helvetica" font-size="13" font-weight="normal">
                    <tspan x="2917.4" y="322">Black</tspan>
                </text>
                <line x1="263" y1="1903" x2="3036" y2="1903" id="Path" stroke="#000000" stroke-width="0.5"></line>
                <g id="Group" transform="translate(264.000000, 1918.000000)" fill="#000000" fill-rule="nonzero">
                    <path d="M8.24805,15.830078 C12.5547,15.830078 16.1387,12.25586 16.1387,7.94922 C16.1387,3.6426 12.5449,0.0684 8.23828,0.0684 C3.94141,0.0684 0.36719,3.6426 0.36719,7.94922 C0.36719,12.25586 3.95117,15.830078 8.24805,15.830078 Z M8.24805,14.345703 C4.70312,14.345703 1.87109,11.50391 1.87109,7.94922 C1.87109,4.3945 4.69336,1.5527 8.23828,1.5527 C11.793,1.5527 14.6348,4.3945 14.6445252,7.94922 C14.6543,11.50391 11.8027,14.345703 8.24805,14.345703 Z M8.22852,11.37695 C8.69727,11.37695 8.9707,11.06445 8.9707,10.54688 L8.9707,8.68164 L11.002,8.68164 C11.5,8.68164 11.832,8.42773 11.832,7.95898 C11.832,7.48047 11.5195,7.2168 11.002,7.2168 L8.9707,7.2168 L8.9707,5.18555 C8.9707,4.668 8.69727,4.3457 8.22852,4.3457 C7.75977,4.3457 7.50586,4.6875 7.50586,5.18555 L7.50586,7.2168 L5.49414,7.2168 C4.97656,7.2168 4.64453,7.48047 4.64453,7.95898 C4.64453,8.42773 4.99609,8.68164 5.49414,8.68164 L7.50586,8.68164 L7.50586,10.54688 C7.50586,11.04492 7.75977,11.37695 8.22852,11.37695 Z" id="Shape"></path>
                </g>
                <g id="Group" transform="translate(282.506000, 1915.000000)" fill="#000000" fill-rule="nonzero">
                    <path d="M10.709,20.91016 C16.1582,20.91016 20.6699,16.38867 20.6699,10.94922 C20.6699,5.5 16.1484,0.9883 10.6992,0.9883 C5.25977,0.9883 0.74805,5.5 0.74805,10.94922 C0.74805,16.38867 5.26953,20.91016 10.709,20.91016 Z M10.709,19.25 C6.09961,19.25 2.41797,15.55859 2.41797,10.94922 C2.41797,6.3398 6.08984,2.6484 10.6992,2.6484 C15.3086,2.6484 19,6.3398 19.009819,10.94922 C19.0195,15.55859 15.3184,19.25 10.709,19.25 Z M10.6797,15.33398 C11.207,15.33398 11.5098,14.98242 11.5098,14.40625 L11.5098,11.76953 L14.3223,11.76953 C14.8691,11.76953 15.25,11.48633 15.25,10.96875 C15.25,10.44141 14.8887,10.13867 14.3223,10.13867 L11.5098,10.13867 L11.5098,7.3164 C11.5098,6.75 11.207,6.3887 10.6797,6.3887 C10.1621,6.3887 9.8789,6.7695 9.8789,7.3164 L9.8789,10.13867 L7.07617,10.13867 C6.50977,10.13867 6.13867,10.44141 6.13867,10.96875 C6.13867,11.48633 6.5293,11.76953 7.07617,11.76953 L9.8789,11.76953 L9.8789,14.40625 C9.8789,14.96289 10.1621,15.33398 10.6797,15.33398 Z" id="Shape"></path>
                </g>
                <g id="Group" transform="translate(306.924000, 1913.000000)" fill="#000000" fill-rule="nonzero">
                    <path d="M12.9707,25.66406 C19.9336,25.66406 25.6953,19.9023438 25.6953,12.94922 C25.6953,5.9863 19.9238,0.2246 12.9609,0.2246 C6.00781,0.2246 0.25586,5.9863 0.25586,12.94922 C0.25586,19.9023438 6.01758,25.66406 12.9707,25.66406 Z M12.9707,23.84766 C6.93555,23.84766 2.08203,18.98438 2.08203,12.94922 C2.08203,6.9043 6.92578,2.0508 12.9609,2.0508 C19.0059,2.0508 23.8594,6.9043 23.8691148,12.94922 C23.8789,18.98438 19.0156,23.84766 12.9707,23.84766 Z M12.9414,18.61328 C13.5176,18.61328 13.8594,18.22266 13.8594,17.61719 L13.8594,13.86719 L17.7754,13.86719 C18.3711,13.86719 18.7812,13.53516 18.7812,12.97852 C18.7812,12.40234 18.3906,12.06055 17.7754,12.06055 L13.8594,12.06055 L13.8594,8.1348 C13.8594,7.5195 13.5176,7.1289 12.9414,7.1289 C12.375,7.1289 12.0527,7.5391 12.0527,8.1348 L12.0527,12.06055 L8.1465,12.06055 C7.53125,12.06055 7.13086,12.40234 7.13086,12.97852 C7.13086,13.53516 7.55078,13.86719 8.1465,13.86719 L12.0527,13.86719 L12.0527,17.61719 C12.0527,18.20312 12.375,18.61328 12.9414,18.61328 Z" id="Shape"></path>
                </g>
                <text id="Design-Variations" fill="#000000" fill-rule="nonzero" font-family="Helvetica-Bold, Helvetica" font-size="13" font-weight="bold">
                    <tspan x="263" y="1953">Design Variations</tspan>
                </text>
                <text id="Symbols-are-supported-in-up-to-nine-weights-and-three-scales." fill="#000000" fill-rule="nonzero" font-family="Helvetica" font-size="13" font-weight="normal">
                    <tspan x="263" y="1971">Symbols are supported in up to nine weights and three scales.</tspan>
                </text>
                <text id="For-optimal-layout-with-text-and-other-symbols,-vertically-align" fill="#000000" fill-rule="nonzero" font-family="Helvetica" font-size="13" font-weight="normal">
                    <tspan x="263" y="1989">For optimal layout with text and other symbols, vertically align</tspan>
                </text>
                <text id="symbols-with-the-adjacent-text." fill="#000000" fill-rule="nonzero" font-family="Helvetica" font-size="13" font-weight="normal">
                    <tspan x="263" y="2007">symbols with the adjacent text.</tspan>
                </text>
                <line x1="776" y1="1919" x2="776" y2="1933" id="Path" stroke="#00AEEF" stroke-width="0.5"></line>
                <g id="Group" transform="translate(778.000000, 1918.000000)" fill="#000000" fill-rule="nonzero">
                    <path d="M1.31055,15.126953 C1.82812,15.126953 2.08203,14.9316406 2.26758,14.394531 L3.52734,10.9375 L9.2891,10.9375 L10.5488,14.394531 C10.7344,14.9316406 10.9883,15.126953 11.4961,15.126953 C12.0137,15.126953 12.3457,14.814453 12.3457,14.326172 C12.3457,14.160156 12.3164,14.013672 12.2383,13.79883 L7.6582,1.6113 C7.43359,1.0059 7.0332,0.7129 6.4082,0.7129 C5.80273,0.7129 5.39258,1.0059 5.17773,1.6016 L0.59766,13.80859 C0.51953,14.023438 0.49023,14.169922 0.49023,14.335938 C0.49023,14.824219 0.80273,15.126953 1.31055,15.126953 Z M4.00586,9.46289 L6.37891,2.8906 L6.42773,2.8906 L8.8008,9.46289 L4.00586,9.46289 Z" id="Shape"></path>
                </g>
                <line x1="792.836" y1="1919" x2="792.836" y2="1933" id="Path" stroke="#00AEEF" stroke-width="0.5"></line>
                <text id="Margins" fill="#000000" fill-rule="nonzero" font-family="Helvetica-Bold, Helvetica" font-size="13" font-weight="bold">
                    <tspan x="776" y="1953">Margins</tspan>
                </text>
                <text id="Leading-and-trailing-margins-on-the-left-and-right-side-of-each-symbol" fill="#000000" fill-rule="nonzero" font-family="Helvetica" font-size="13" font-weight="normal">
                    <tspan x="776" y="1971">Leading and trailing margins on the left and right side of each symbol</tspan>
                </text>
                <text id="can-be-adjusted-by-modifying-the-x-location-of-the-margin-guidelines." fill="#000000" fill-rule="nonzero" font-family="Helvetica" font-size="13" font-weight="normal">
                    <tspan x="776" y="1989">can be adjusted by modifying the x-location of the margin guidelines.</tspan>
                </text>
                <text id="Modifications-are-automatically-applied-proportionally-to-all" fill="#000000" fill-rule="nonzero" font-family="Helvetica" font-size="13" font-weight="normal">
                    <tspan x="776" y="2007">Modifications are automatically applied proportionally to all</tspan>
                </text>
                <text id="scales-and-weights." fill="#000000" fill-rule="nonzero" font-family="Helvetica" font-size="13" font-weight="normal">
                    <tspan x="776" y="2025">scales and weights.</tspan>
                </text>
                <g id="Group" transform="translate(1291.000000, 1914.000000)" fill="#000000" fill-rule="nonzero">
                    <path d="M0.8418,20.86523 L2.54102,22.57422 C3.40039,23.44336 4.38672,23.38477 5.31445,22.35938 L15.4902,11.14844 C15.7539,11.23633 16.0273,11.2168 16.3398,11.1582 L17.4043,10.96289 L18.0684,11.63672 L18.0293,12.19336 C17.9902,12.69141 18.1172,13.07227 18.6055,13.55078 L19.3672,14.29297 C19.8457,14.77148 20.4609,14.80078 20.9297,14.33203 L23.8398,11.41211 C24.3086,10.94336 24.2891,10.34766 23.8105,9.86914 L23.0391,9.10742 C22.5605,8.6289 22.1895,8.4727 21.7109,8.5117 L21.1348,8.5605 L20.4902,7.9258 L20.7344,6.8027 C20.8613,6.2363 20.7051,5.7969 20.1191,5.2109 L17.9219,3.0234 C14.582,-0.2969 10.1484,-0.2188 7.25781,2.6719 C6.83789,3.082 6.80859,3.6582 7.04297,4.0488 C7.27734,4.4102 7.73633,4.6445 8.3809,4.4785 C9.8457,4.1367 11.3691,4.0781 12.7949,5.0156 L12.209,6.4707 C12.0137,6.9492 11.9844,7.3496 12.1113,7.7109 L1.04688,18.101562 C0.06055,19.0195312 -0.01758,19.996094 0.8418,20.86523 Z M8.752,3.043 C11.1836,1.2656 14.4746,1.5684 16.7012,3.7949 L19.1328,6.207 C19.3672,6.4414 19.4062,6.627 19.3379,6.9688 L19.0156,8.4531 L20.5195,9.9375 L21.5059,9.87891 C21.7598,9.86914 21.8379,9.88867 22.0332,10.08398 L22.6094,10.66016 L20.168,13.10156 L19.5918,12.52539 C19.3965,12.33008 19.3672,12.25195 19.377,11.98828 L19.4453,11.01172 L17.9512,9.52734 L16.4277,9.78125 C16.1055,9.84961 15.959,9.82031 15.7148,9.58594 L13.7129,7.584 C13.459,7.3496 13.4297,7.1836 13.5859,6.8125 L14.4648,4.7227 C12.9023,3.2676 10.8711,2.6426 8.8398,3.2383 C8.6836,3.2773 8.625,3.1504 8.752,3.043 Z M3.27344,21.3047 L2.10156,20.14258 C1.63281,19.683594 1.74023,19.341797 2.14062,18.9804688 L12.9512,8.8047 L14.416,10.28906 L4.42578,21.27539 C4.07422,21.67578 3.74219,21.77344 3.27344,21.3047 Z" id="Shape"></path>
                </g>
                <text id="Exporting" fill="#000000" fill-rule="nonzero" font-family="Helvetica-Bold, Helvetica" font-size="13" font-weight="bold">
                    <tspan x="1289" y="1953">Exporting</tspan>
                </text>
                <text id="Symbols-should-be-outlined-when-exporting-to-ensure-the" fill="#000000" fill-rule="nonzero" font-family="Helvetica" font-size="13" font-weight="normal">
                    <tspan x="1289" y="1971">Symbols should be outlined when exporting to ensure the</tspan>
                </text>
                <text id="design-is-preserved-when-submitting-to-Xcode." fill="#000000" fill-rule="nonzero" font-family="Helvetica" font-size="13" font-weight="normal">
                    <tspan x="1289" y="1989">design is preserved when submitting to Xcode.</tspan>
                </text>
                <text id="template-version" fill="#000000" fill-rule="nonzero" font-family="Helvetica" font-size="13" font-weight="normal">
                    <tspan x="2952" y="1933">Template v.2.0</tspan>
                </text>
                <text id="Requires-Xcode-12-or-greater" fill="#000000" fill-rule="nonzero" font-family="Helvetica" font-size="13" font-weight="normal">
                    <tspan x="2865" y="1951">Requires Xcode 12 or greater</tspan>
                </text>
                <text id="Generated-from-play.rectangle" fill="#000000" fill-rule="nonzero" font-family="Helvetica" font-size="13" font-weight="normal">
                    <tspan x="2861" y="1969">Generated from play.rectangle</tspan>
                </text>
                <text id="Typeset-at-100-points" fill="#000000" fill-rule="nonzero" font-family="Helvetica" font-size="13" font-weight="normal">
                    <tspan x="2912" y="1987">Typeset at 100 points</tspan>
                </text>
                <text id="Small" fill="#000000" fill-rule="nonzero" font-family="Helvetica" font-size="13" font-weight="normal">
                    <tspan x="263" y="726">Small</tspan>
                </text>
                <text id="Medium" fill="#000000" fill-rule="nonzero" font-family="Helvetica" font-size="13" font-weight="normal">
                    <tspan x="263" y="1156">Medium</tspan>
                </text>
                <text id="Large" fill="#000000" fill-rule="nonzero" font-family="Helvetica" font-size="13" font-weight="normal">
                    <tspan x="263" y="1586">Large</tspan>
                </text>
            </g>
            <g id="Guides" transform="translate(263.000000, 625.000000)">
                <g id="H-reference" transform="translate(76.000000, 0.000000)" fill="#27AAE1" fill-rule="nonzero">
                    <path d="M0.976562,71 L3.66211,71 L12.9883,46.5371 L45.7031,46.5371 L55.0781,71 L57.7148,71 L30.6152,0.541 L28.125,0.541 L0.976562,71 Z M29.2969,3.8613 L29.3945,3.8613 L44.873,44.291 L13.8672,44.291 L29.2969,3.8613 Z" id="Shape"></path>
                </g>
                <line x1="0" y1="71" x2="2773" y2="71" id="Baseline-S" stroke="#27AAE1" stroke-width="0.5"></line>
                <line x1="0" y1="0.541" x2="2773" y2="0.541" id="Capline-S" stroke="#27AAE1" stroke-width="0.5"></line>
                <g id="H-reference" transform="translate(76.000000, 430.000000)" fill="#27AAE1" fill-rule="nonzero">
                    <path d="M0.976562,71 L3.66211,71 L12.9883,46.5371 L45.7031,46.5371 L55.0781,71 L57.7148,71 L30.6152,0.541 L28.125,0.541 L0.976562,71 Z M29.2969,3.8613 L29.3945,3.8613 L44.873,44.291 L13.8672,44.291 L29.2969,3.8613 Z" id="Shape"></path>
                </g>
                <line x1="0" y1="501" x2="2773" y2="501" id="Baseline-M" stroke="#27AAE1" stroke-width="0.5"></line>
                <line x1="0" y1="430.54" x2="2773" y2="430.54" id="Capline-M" stroke="#27AAE1" stroke-width="0.5"></line>
                <g id="H-reference" transform="translate(76.000000, 860.000000)" fill="#27AAE1" fill-rule="nonzero">
                    <path d="M0.976562,71 L3.66211,71 L12.9883,46.5371 L45.7031,46.5371 L55.0781,71 L57.7148,71 L30.6152,0.541 L28.125,0.541 L0.976562,71 Z M29.2969,3.8613 L29.3945,3.8613 L44.873,44.291 L13.8672,44.291 L29.2969,3.8613 Z" id="Shape"></path>
                </g>
                <line x1="0" y1="931" x2="2773" y2="931" id="Baseline-L" stroke="#27AAE1" stroke-width="0.5"></line>
                <line x1="0" y1="860.54" x2="2773" y2="860.54" id="Capline-L" stroke="#27AAE1" stroke-width="0.5"></line>
                <line x1="1116.82" y1="405.79" x2="1116.82" y2="525.12" id="left-margin" stroke="#00AEEF" stroke-width="0.5"></line>
                <line x1="1256.86" y1="405.79" x2="1256.86" y2="525.12" id="right-margin" stroke="#00AEEF" stroke-width="0.5"></line>
            </g>
            <g id="Symbols" transform="translate(489.000000, 627.000000)" fill="#000000" fill-rule="nonzero">
                <g id="Black-L" transform="translate(2373.510000, 839.000000)">
                    <path d="M53.8825902,34.6302783 C53.8825902,31.7663377 57.2726339,30.6557153 59.7275427,32.1169535 L59.7275427,32.1169535 L93.0438199,51.81452 C95.4403127,53.2757582 95.4987287,56.6658019 93.0438199,58.068624 L93.0438199,58.068624 L59.7275427,77.7661906 C57.0388502,79.4027964 53.8825902,78.0583903 53.8825902,75.2528658 L53.8825902,75.2528658 L53.8825902,34.6302783 Z M65.1306643,50.1559897 L65.1306643,57.5784508 C65.1306643,58.1307355 65.5783795,58.5784508 66.1306643,58.5784508 C66.2963801,58.5784508 66.4594984,58.5372677 66.6053537,58.4586041 L73.4865937,54.7473736 C73.972689,54.4852099 74.1542213,53.8786261 73.8920576,53.3925308 C73.7993813,53.2206935 73.658431,53.0797432 73.4865937,52.9870669 L66.6053537,49.2758363 C66.1192585,49.0136726 65.5126747,49.195205 65.2505109,49.6813003 C65.1718474,49.8271556 65.1306643,49.9902739 65.1306643,50.1559897 Z M20.0402098,108.802951 C42.5962371,109.600984 59.5132576,110 70.7912712,110 C81.9839485,110 98.7729646,109.600984 121.158319,108.802951 C133.420209,108.365817 138.902388,102.714706 139.51148,90.683562 C140.309513,74.9203322 140.708529,63.0979097 140.708529,55.2162948 C140.708529,47.2385728 140.309513,35.2719898 139.51148,19.3165458 C138.909714,7.28516329 133.420209,1.63418296 121.158319,1.19704934 C98.7729646,0.399016442 81.9839485,0 70.7912712,0 C59.5132576,0 42.5962371,0.399016442 20.0402098,1.19704934 C7.83660609,1.62881319 2.29174053,7.22667258 1.68704934,19.3165458 C0.889016446,35.2719898 0.49,47.2385728 0.49,55.2162948 C0.49,63.0979097 0.889016446,74.9203322 1.68704934,90.683562 C2.29909765,102.773111 7.83660609,108.371187 20.0402098,108.802951 Z M28.9908209,88.8838052 C24.2564537,88.7234308 21.6444692,86.4842698 21.6444692,81.7757528 C20.9973617,69.7267812 20.673808,60.6900526 20.673808,54.6655667 C20.673808,48.5666317 20.9973617,39.4182292 21.6444692,27.2203592 C21.894078,22.5152731 24.2564537,20.2726997 28.9908209,20.1123252 C47.2388621,19.4941816 60.924893,19.1851098 70.0489136,19.1851098 C79.1036721,19.1851098 92.6858099,19.4941816 110.795327,20.1123252 C115.482202,20.2723053 117.892652,22.5152731 118.142261,27.2203592 C118.789369,39.4182292 119.112922,48.5666317 119.112922,54.6655667 C119.112922,60.6900526 118.789369,69.7267812 118.142261,81.7757528 C117.889571,86.4807783 115.482202,88.7238252 110.795327,88.8838052 C92.6858099,89.5019489 79.1036721,89.8110207 70.0489136,89.8110207 C60.924893,89.8110207 47.2388621,89.5019489 28.9908209,88.8838052 Z" id="Shape"></path>
                </g>
                <g id="Heavy-L" transform="translate(2077.230000, 839.000000)">
                    <path d="M54.1625902,34.6302783 C54.1625902,31.7663377 57.5526339,30.6557153 60.0075427,32.1169535 L60.0075427,32.1169535 L93.3238199,51.81452 C95.7203127,53.2757582 95.7787287,56.6658019 93.3238199,58.068624 L93.3238199,58.068624 L60.0075427,77.7661906 C57.3188502,79.4027964 54.1625902,78.0583903 54.1625902,75.2528658 L54.1625902,75.2528658 L54.1625902,34.6302783 Z M65.4106643,50.1559897 L65.4106643,58.7755001 C65.4106643,59.3277849 65.8583795,59.7755001 66.4106643,59.7755001 C66.5763801,59.7755001 66.7394984,59.734317 66.8853537,59.6556535 L74.8763582,55.3458983 C75.3624535,55.0837345 75.5439858,54.4771507 75.2818221,53.9910555 C75.1891458,53.8192181 75.0481955,53.6782679 74.8763582,53.5855916 L66.8853537,49.2758363 C66.3992585,49.0136726 65.7926747,49.195205 65.5305109,49.6813003 C65.4518474,49.8271556 65.4106643,49.9902739 65.4106643,50.1559897 Z M20.3202098,108.802951 C42.8762371,109.600984 59.7932576,110 71.0712712,110 C82.2639485,110 99.0529646,109.600984 121.438319,108.802951 C133.700209,108.365817 139.182388,102.714706 139.79148,90.683562 C140.589513,74.9203322 140.988529,63.0979097 140.988529,55.2162948 C140.988529,47.2385728 140.589513,35.2719898 139.79148,19.3165458 C139.189714,7.28516329 133.700209,1.63418296 121.438319,1.19704934 C99.0529646,0.399016442 82.2639485,0 71.0712712,0 C59.7932576,0 42.8762371,0.399016442 20.3202098,1.19704934 C8.11660609,1.62881319 2.57174053,7.22667258 1.96704934,19.3165458 C1.16901645,35.2719898 0.77,47.2385728 0.77,55.2162948 C0.77,63.0979097 1.16901645,74.9203322 1.96704934,90.683562 C2.57909765,102.773111 8.11660609,108.371187 20.3202098,108.802951 Z M28.3557042,90.0494236 C23.46085,89.8836127 20.7603236,87.568548 20.7603236,82.7004201 C20.0912803,70.2430089 19.7567587,60.8999504 19.7567587,54.6712447 C19.7567587,48.3655662 20.0912803,38.9070483 20.7603236,26.2956912 C21.0183937,21.4311106 23.46085,19.1125178 28.3557042,18.9467069 C47.2223231,18.3076092 61.3722872,17.9880604 70.8055967,17.9880604 C80.1672961,17.9880604 94.2098454,18.3076092 112.933244,18.9467069 C117.778996,19.1121101 120.271157,21.4311106 120.529227,26.2956912 C121.198271,38.9070483 121.532792,48.3655662 121.532792,54.6712447 C121.532792,60.8999504 121.198271,70.2430089 120.529227,82.7004201 C120.267971,87.5649381 117.778996,89.8840204 112.933244,90.0494236 C94.2098454,90.6885213 80.1672961,91.0080701 70.8055967,91.0080701 C61.3722872,91.0080701 47.2223231,90.6885213 28.3557042,90.0494236 Z" id="Shape"></path>
                </g>
                <g id="Bold-L" transform="translate(1780.010000, 839.000000)">
                    <path d="M54.3825902,34.6302783 C54.3825902,31.7663377 57.7726339,30.6557153 60.2275427,32.1169535 L60.2275427,32.1169535 L93.5438199,51.81452 C95.9403127,53.2757582 95.9987287,56.6658019 93.5438199,58.068624 L93.5438199,58.068624 L60.2275427,77.7661906 C57.5388502,79.4027964 54.3825902,78.0583903 54.3825902,75.2528658 L54.3825902,75.2528658 L54.3825902,34.6302783 Z M65.6306643,50.1559897 L65.6306643,59.9725495 C65.6306643,60.5248342 66.0783795,60.9725495 66.6306643,60.9725495 C66.7963801,60.9725495 66.9594984,60.9313664 67.1053537,60.8527028 L76.2061227,55.9444229 C76.692218,55.6822592 76.8737503,55.0756754 76.6115866,54.5895801 C76.5189103,54.4177428 76.37796,54.2767925 76.2061227,54.1841162 L67.1053537,49.2758363 C66.6192585,49.0136726 66.0126747,49.195205 65.7505109,49.6813003 C65.6718474,49.8271556 65.6306643,49.9902739 65.6306643,50.1559897 Z M20.5402098,108.802951 C43.0962371,109.600984 60.0132576,110 71.2912712,110 C82.4839485,110 99.2729646,109.600984 121.658319,108.802951 C133.920209,108.365817 139.402388,102.714706 140.01148,90.683562 C140.809513,74.9203322 141.208529,63.0979097 141.208529,55.2162948 C141.208529,47.2385728 140.809513,35.2719898 140.01148,19.3165458 C139.409714,7.28516329 133.920209,1.63418296 121.658319,1.19704934 C99.2729646,0.399016442 82.4839485,0 71.2912712,0 C60.0132576,0 43.0962371,0.399016442 20.5402098,1.19704934 C8.33660609,1.62881319 2.79174053,7.22667258 2.18704934,19.3165458 C1.38901645,35.2719898 0.99,47.2385728 0.99,55.2162948 C0.99,63.0979097 1.38901645,74.9203322 2.18704934,90.683562 C2.79909765,102.773111 8.33660609,108.371187 20.5402098,108.802951 Z M27.6605875,91.2150419 C22.6052462,91.0437946 19.816178,88.6528261 19.816178,83.6250875 C19.1251989,70.7592365 18.7797093,61.1098483 18.7797093,54.6769228 C18.7797093,48.1645006 19.1251989,38.3958674 19.816178,25.3710232 C20.0827095,20.3469482 22.6052462,17.9523359 27.6605875,17.7810886 C47.1457841,17.1210369 61.7596815,16.7910111 71.5022797,16.7910111 C81.1709201,16.7910111 95.6738809,17.1210369 115.011162,17.7810886 C120.015791,17.9519148 122.589662,20.3469482 122.856193,25.3710232 C123.547173,38.3958674 123.892662,48.1645006 123.892662,54.6769228 C123.892662,61.1098483 123.547173,70.7592365 122.856193,83.6250875 C122.586371,88.6490978 120.015791,91.0442157 115.011162,91.2150419 C95.6738809,91.8750936 81.1709201,92.2051194 71.5022797,92.2051194 C61.7596815,92.2051194 47.1457841,91.8750936 27.6605875,91.2150419 Z" id="Shape"></path>
                </g>
                <g id="Semibold-L" transform="translate(1483.640000, 839.000000)">
                    <path d="M53.7525902,34.6302783 C53.7525902,31.7663377 57.1426339,30.6557153 59.5975427,32.1169535 L59.5975427,32.1169535 L92.9138199,51.81452 C95.3103127,53.2757582 95.3687287,56.6658019 92.9138199,58.068624 L92.9138199,58.068624 L59.5975427,77.7661906 C56.9088502,79.4027964 53.7525902,78.0583903 53.7525902,75.2528658 L53.7525902,75.2528658 L53.7525902,34.6302783 Z M63.8036149,48.9589404 L63.8036149,59.9725495 C63.8036149,60.5248342 64.2513302,60.9725495 64.8036149,60.9725495 C64.9693308,60.9725495 65.132449,60.9313664 65.2783044,60.8527028 L75.4888378,55.3458983 C75.9749331,55.0837345 76.1564655,54.4771507 75.8943017,53.9910555 C75.8016254,53.8192181 75.6606752,53.6782679 75.4888378,53.5855916 L65.2783044,48.078787 C64.7922091,47.8166233 64.1856253,47.9981556 63.9234616,48.4842509 C63.844798,48.6301063 63.8036149,48.7932245 63.8036149,48.9589404 Z M19.9102098,108.802951 C42.4662371,109.600984 59.3832576,110 70.6612712,110 C81.8539485,110 98.6429646,109.600984 121.028319,108.802951 C133.290209,108.365817 138.772388,102.714706 139.38148,90.683562 C140.179513,74.9203322 140.578529,63.0979097 140.578529,55.2162948 C140.578529,47.2385728 140.179513,35.2719898 139.38148,19.3165458 C138.779714,7.28516329 133.290209,1.63418296 121.028319,1.19704934 C98.6429646,0.399016442 81.8539485,0 70.6612712,0 C59.3832576,0 42.4662371,0.399016442 19.9102098,1.19704934 C7.70660609,1.62881319 2.16174053,7.22667258 1.55704934,19.3165458 C0.759016446,35.2719898 0.36,47.2385728 0.36,55.2162948 C0.36,63.0979097 0.759016446,74.9203322 1.55704934,90.683562 C2.16909765,102.773111 7.70660609,108.371187 19.9102098,108.802951 Z M25.0582791,93.5593915 C19.7628384,93.3795395 16.8413056,90.8684305 16.8413056,85.58806 C16.117509,72.0757306 15.7556107,61.9414836 15.7556107,55.1853189 C15.7556107,48.3456631 16.117509,38.0861793 16.8413056,24.4068676 C17.1204958,19.1303449 19.7628384,16.615409 25.0582791,16.435557 C45.4689096,15.7423392 60.7768824,15.3957304 70.9821977,15.3957304 C81.1100425,15.3957304 96.3018098,15.7423392 116.5575,16.435557 C121.799819,16.6149667 124.495934,19.1303449 124.775124,24.4068676 C125.498921,38.0861793 125.860819,48.3456631 125.860819,55.1853189 C125.860819,61.9414836 125.498921,72.0757306 124.775124,85.58806 C124.492488,90.8645149 121.799819,93.3799817 116.5575,93.5593915 C96.3018098,94.2526093 81.1100425,94.5992181 70.9821977,94.5992181 C60.7768824,94.5992181 45.4689096,94.2526093 25.0582791,93.5593915 Z" id="Shape"></path>
                </g>
                <g id="Medium-L" transform="translate(1186.200000, 839.000000)">
                    <path d="M54.1925902,34.6302783 C54.1925902,31.7663377 57.5826339,30.6557153 60.0375427,32.1169535 L60.0375427,32.1169535 L93.3538199,51.81452 C95.7503127,53.2757582 95.8087287,56.6658019 93.3538199,58.068624 L93.3538199,58.068624 L60.0375427,77.7661906 C57.3488502,79.4027964 54.1925902,78.0583903 54.1925902,75.2528658 L54.1925902,75.2528658 L54.1925902,34.6302783 Z M64.2436149,47.8413888 L64.2436149,61.090101 C64.2436149,61.6423858 64.6913302,62.090101 65.2436149,62.090101 C65.4230041,62.090101 65.5990904,62.0418456 65.7534173,61.9503926 L76.9320183,55.3260364 C77.4071442,55.0444804 77.5640635,54.4310684 77.2825074,53.9559425 C77.1969421,53.811551 77.0764098,53.6910187 76.9320183,53.6054534 L65.7534173,46.9810973 C65.2782914,46.6995412 64.6648795,46.8564605 64.3833234,47.3315864 C64.2918704,47.4859134 64.2436149,47.6619996 64.2436149,47.8413888 Z M20.3502098,108.802951 C42.9062371,109.600984 59.8232576,110 71.1012712,110 C82.2939485,110 99.0829646,109.600984 121.468319,108.802951 C133.730209,108.365817 139.212388,102.714706 139.82148,90.683562 C140.619513,74.9203322 141.018529,63.0979097 141.018529,55.2162948 C141.018529,47.2385728 140.619513,35.2719898 139.82148,19.3165458 C139.219714,7.28516329 133.730209,1.63418296 121.468319,1.19704934 C99.0829646,0.399016442 82.2939485,0 71.1012712,0 C59.8232576,0 42.9062371,0.399016442 20.3502098,1.19704934 C8.14660609,1.62881319 2.60174053,7.22667258 1.99704934,19.3165458 C1.19901645,35.2719898 0.8,47.2385728 0.8,55.2162948 C0.8,63.0979097 1.19901645,74.9203322 1.99704934,90.683562 C2.60909765,102.773111 8.14660609,108.371187 20.3502098,108.802951 Z M23.4520643,95.8906281 C17.9585946,95.6999032 14.9278077,93.0369867 14.9278077,87.4373948 C14.1769439,73.108186 13.801512,62.3612794 13.801512,55.1966749 C13.801512,47.943532 14.1769439,37.0638176 14.9278077,22.5575316 C15.2174385,16.96202 17.9585946,14.2950452 23.4520643,14.1043203 C44.6259734,13.3691946 60.5064053,13.0016317 71.0933598,13.0016317 C81.5999469,13.0016317 97.3598276,13.3691946 118.373002,14.1043203 C123.811364,14.2945762 126.608303,16.96202 126.897934,22.5575316 C127.648798,37.0638176 128.02423,47.943532 128.02423,55.1966749 C128.02423,62.3612794 127.648798,73.108186 126.897934,87.4373948 C126.604728,93.0328344 123.811364,95.7003722 118.373002,95.8906281 C97.3598276,96.6257539 81.5999469,96.9933168 71.0933598,96.9933168 C60.5064053,96.9933168 44.6259734,96.6257539 23.4520643,95.8906281 Z" id="Shape"></path>
                </g>
                <g id="Regular-L" transform="translate(890.810000, 839.000000)">
                    <path d="M53.5825902,34.6302783 C53.5825902,31.7663377 56.9726339,30.6557153 59.4275427,32.1169535 L59.4275427,32.1169535 L92.7438199,51.81452 C95.1403127,53.2757582 95.1987287,56.6658019 92.7438199,58.068624 L92.7438199,58.068624 L59.4275427,77.7661906 C56.7388502,79.4027964 53.5825902,78.0583903 53.5825902,75.2528658 L53.5825902,75.2528658 L53.5825902,34.6302783 Z M63.6336149,46.6443394 L63.6336149,62.2871504 C63.6336149,62.8394351 64.0813302,63.2871504 64.6336149,63.2871504 C64.8130041,63.2871504 64.9890904,63.2388949 65.1434173,63.1474419 L78.3420391,55.3260364 C78.817165,55.0444804 78.9740843,54.4310684 78.6925282,53.9559425 C78.6069628,53.811551 78.4864306,53.6910187 78.3420391,53.6054534 L65.1434173,45.7840479 C64.6682914,45.5024918 64.0548795,45.6594112 63.7733234,46.1345371 C63.6818704,46.288864 63.6336149,46.4649503 63.6336149,46.6443394 Z M19.7402098,108.802951 C42.2962371,109.600984 59.2132576,110 70.4912712,110 C81.6839485,110 98.4729646,109.600984 120.858319,108.802951 C133.132863,108.802951 139.21148,102.72419 139.21148,90.683562 C140.009513,74.9203322 140.408529,63.0979097 140.408529,55.2162948 C140.408529,47.2385728 140.009513,35.2719898 139.21148,19.3165458 C139.21148,7.27590529 133.132863,1.19704934 120.858319,1.19704934 C98.4729646,0.399016442 81.6839485,0 70.4912712,0 C59.2132576,0 42.2962371,0.399016442 19.7402098,1.19704934 C7.52420159,1.19704934 1.38704934,7.21736958 1.38704934,19.3165458 C0.589016446,35.2719898 0.19,47.2385728 0.19,55.2162948 C0.19,63.0979097 0.589016446,74.9203322 1.38704934,90.683562 C1.38704934,102.782642 7.52420159,108.802951 19.7402098,108.802951 Z M19.8571615,99.3925628 C14.0120893,99.3925628 10.7974133,96.294726 10.7974133,90.2159586 C9.99938041,74.6605525 9.60036397,62.993998 9.60036397,55.2162948 C9.60036397,47.3424767 9.99938041,35.5317495 10.7974133,19.7841132 C10.7974133,13.705377 14.0120893,10.607533 19.8571615,10.607533 C42.3612103,9.80950011 59.2392468,9.41048367 70.4912712,9.41048367 C81.6578794,9.41048367 98.4077918,9.80950011 120.741008,10.607533 C126.527545,10.607533 129.801475,13.705377 129.801475,19.7841132 C130.599508,35.5317495 130.998524,47.3424767 130.998524,55.2162948 C130.998524,62.993998 130.599508,74.6605525 129.801475,90.2159586 C129.801475,96.294726 126.527545,99.3925628 120.741008,99.3925628 C98.4077918,100.190596 81.6578794,100.589612 70.4912712,100.589612 C59.2392468,100.589612 42.3612103,100.190596 19.8571615,99.3925628 Z" id="Shape"></path>
                </g>
                <g id="Light-L" transform="translate(593.560000, 839.000000)">
                    <path d="M53.8325902,34.6302783 C53.8325902,31.7663377 57.2226339,30.6557153 59.6775427,32.1169535 L59.6775427,32.1169535 L92.9938199,51.81452 C95.3903127,53.2757582 95.4487287,56.6658019 92.9938199,58.068624 L92.9938199,58.068624 L59.6775427,77.7661906 C56.9888502,79.4027964 53.8325902,78.0583903 53.8325902,75.2528658 L53.8325902,75.2528658 L53.8325902,34.6302783 Z M63.8836149,46.6443394 L63.8836149,62.2871504 C63.8836149,62.8394351 64.3313302,63.2871504 64.8836149,63.2871504 C65.0630041,63.2871504 65.2390904,63.2388949 65.3934173,63.1474419 L78.5920391,55.3260364 C79.067165,55.0444804 79.2240843,54.4310684 78.9425282,53.9559425 C78.8569628,53.811551 78.7364306,53.6910187 78.5920391,53.6054534 L65.3934173,45.7840479 C64.9182914,45.5024918 64.3048795,45.6594112 64.0233234,46.1345371 C63.9318704,46.288864 63.8836149,46.4649503 63.8836149,46.6443394 Z M19.9902098,108.802951 C42.5462371,109.600984 59.4632576,110 70.7412712,110 C81.9339485,110 98.7229646,109.600984 121.108319,108.802951 C133.382863,108.802951 139.46148,102.72419 139.46148,90.683562 C140.259513,74.9203322 140.658529,63.0979097 140.658529,55.2162948 C140.658529,47.2385728 140.259513,35.2719898 139.46148,19.3165458 C139.46148,7.27590529 133.382863,1.19704934 121.108319,1.19704934 C98.7229646,0.399016442 81.9339485,0 70.7412712,0 C59.4632576,0 42.5462371,0.399016442 19.9902098,1.19704934 C7.77420159,1.19704934 1.63704934,7.21736958 1.63704934,19.3165458 C0.839016446,35.2719898 0.44,47.2385728 0.44,55.2162948 C0.44,63.0979097 0.839016446,74.9203322 1.63704934,90.683562 C1.63704934,102.782642 7.77420159,108.802951 19.9902098,108.802951 Z M19.112387,99.9700541 C13.1520438,99.9700541 9.87397103,96.8111247 9.87397103,90.6124777 C9.06020009,74.7503027 8.65331463,62.8536716 8.65331463,54.922584 C8.65331463,46.8934859 9.06020009,34.8498389 9.87397103,18.7916427 C9.87397103,12.5930274 13.1520438,9.43409074 19.112387,9.43409074 C42.0602391,8.6203198 59.2711282,8.21343433 70.7450542,8.21343433 C82.1318796,8.21343433 99.2121178,8.6203198 121.985769,9.43409074 C127.886422,9.43409074 131.224917,12.5930274 131.224917,18.7916427 C132.038688,34.8498389 132.445573,46.8934859 132.445573,54.922584 C132.445573,62.8536716 132.038688,74.7503027 131.224917,90.6124777 C131.224917,96.8111247 127.886422,99.9700541 121.985769,99.9700541 C99.2121178,100.783825 82.1318796,101.190711 70.7450542,101.190711 C59.2711282,101.190711 42.0602391,100.783825 19.112387,99.9700541 Z" id="Shape"></path>
                </g>
                <g id="Thin-L" transform="translate(297.433000, 839.000000)">
                    <path d="M53.9595902,34.6302783 C53.9595902,31.7663377 57.3496339,30.6557153 59.8045427,32.1169535 L93.1208199,51.81452 C95.5173127,53.2757582 95.5757287,56.6658019 93.1208199,58.068624 L59.8045427,77.7661906 C57.1158502,79.4027964 53.9595902,78.0583903 53.9595902,75.2528658 L53.9595902,34.6302783 Z M58.0253683,37.6346598 L58.0253683,72.4938793 C58.0253683,73.0461641 58.4730835,73.4938793 59.0253683,73.4938793 C59.1993952,73.4938793 59.3704095,73.448464 59.5215072,73.3621225 L90.0233242,55.9325127 C90.5028417,55.6585028 90.6694384,55.0476481 90.3954284,54.5681306 C90.3068391,54.4130994 90.1783555,54.2846157 90.0233242,54.1960264 L59.5215072,36.7664167 C59.0419897,36.4924067 58.4311351,36.6590035 58.1571251,37.1385209 C58.0707836,37.2896186 58.0253683,37.4606329 58.0253683,37.6346598 Z M20.1172098,108.802951 C42.6732371,109.600984 59.5902576,110 70.8682712,110 C82.0609485,110 98.8499646,109.600984 121.235319,108.802951 C133.497209,108.365817 138.979388,102.714706 139.58848,90.683562 C140.386513,74.9203322 140.785529,63.0979097 140.785529,55.2162948 C140.785529,47.2385728 140.386513,35.2719898 139.58848,19.3165458 C138.986714,7.28516329 133.497209,1.63418296 121.235319,1.19704934 C98.8499646,0.399016442 82.0609485,0 70.8682712,0 C59.5902576,0 42.6732371,0.399016442 20.1172098,1.19704934 C7.91360609,1.62881319 2.36874053,7.22667258 1.76404934,19.3165458 C0.966016446,35.2719898 0.567,47.2385728 0.567,55.2162948 C0.567,63.0979097 0.966016446,74.9203322 1.76404934,90.683562 C2.37609765,102.773111 7.91360609,108.371187 20.1172098,108.802951 Z M16.2550633,104.065195 C9.95592449,103.836381 6.81685189,100.636667 6.48064421,93.9237515 C5.61965914,76.7328302 5.18916661,63.8396393 5.18916661,55.2441786 C5.18916661,46.5424973 5.61965914,33.4899752 6.48064421,16.0866125 C6.8127521,9.37361097 9.95592448,6.17400983 16.2550633,5.94519494 C40.5343255,5.06325585 58.7437722,4.62228632 70.8834033,4.62228632 C82.9308803,4.62228632 101.002096,5.06325585 125.09705,5.94519494 C131.340053,5.94519494 134.872244,9.36875018 134.872244,16.0866125 C135.733229,33.4899752 136.163721,46.5424973 136.163721,55.2441786 C136.163721,63.8396393 135.733229,76.7328302 134.872244,93.9237515 C134.536036,100.636667 131.332999,103.836943 125.09705,104.065195 C101.002096,104.947135 82.9308803,105.388104 70.8834033,105.388104 C58.7437722,105.388104 40.5343255,104.947135 16.2550633,104.065195 Z" id="Shape"></path>
                </g>
                <g id="Ultralight-L" transform="translate(0.015000, 839.000000)">
                    <path d="M54.3775902,34.6302783 C54.3775902,31.7663377 57.7676339,30.6557153 60.2225427,32.1169535 L93.5388199,51.81452 C95.9353127,53.2757582 95.9937287,56.6658019 93.5388199,58.068624 L60.2225427,77.7661906 C57.5338502,79.4027964 54.3775902,78.0583903 54.3775902,75.2528658 L54.3775902,34.6302783 Z M56.6477942,35.5186765 L56.6477942,74.0463864 C56.6477942,74.8748136 57.3193671,75.5463864 58.1477942,75.5463864 C58.4053995,75.5463864 58.6586636,75.4800436 58.8831861,75.3537498 L92.6609045,56.3537832 C93.3829413,55.9476375 93.6390216,55.0330648 93.2328759,54.311028 C93.1011362,54.0768241 92.9089014,53.8823094 92.676267,53.7478176 L58.8985487,34.2200742 C58.1813505,33.805444 57.2638222,34.0507238 56.849192,34.767922 C56.7172592,34.9961301 56.6477942,35.255076 56.6477942,35.5186765 Z M20.5352098,108.802951 C43.0912371,109.600984 60.0082576,110 71.2862712,110 C82.4789485,110 99.2679646,109.600984 121.653319,108.802951 C133.915209,108.365817 139.397388,102.714706 140.00648,90.683562 C140.804513,74.9203322 141.203529,63.0979097 141.203529,55.2162948 C141.203529,47.2385728 140.804513,35.2719898 140.00648,19.3165458 C139.404714,7.28516329 134.456001,1.79557401 121.653319,1.19704934 C106.276877,0.478201552 82.4789485,0 71.2862712,0 C60.0082576,0 29.1156595,0.598524669 20.5352098,1.19704934 C8.3672084,2.04582176 2.78674053,7.22667258 2.18204934,19.3165458 C1.38401645,35.2719898 0.985,47.2385728 0.985,55.2162948 C0.985,63.0979097 1.38401645,74.9203322 2.18204934,90.683562 C2.79409765,102.773111 8.33160609,108.371187 20.5352098,108.802951 Z M15.9481167,105.938866 C11.1599194,104.741817 5.77319735,99.3550951 5.17467269,94.5668978 C4.50199605,89.1854846 3.37909868,63.8168477 3.37909868,55.0642696 C3.37909868,46.2035292 3.97762335,23.9409868 5.17467269,14.9631167 C5.7337349,10.7701501 9.7041543,5.36041564 15.9481167,4.18967269 C25.5245114,2.39409868 58.6508535,2.39409868 71.0123863,2.39409868 C83.2800805,2.39409868 117.79342,3.38223992 126.675181,4.18967269 C133.258952,4.78819735 136.413848,10.1643429 136.8501,14.9631167 C138.047149,28.1306595 138.645674,37.7070542 138.645674,55.0642696 C138.645674,72.421485 138.047149,87.3846017 136.8501,94.5668978 C135.653051,101.749194 132.038414,104.625244 126.675181,105.340342 C117.697311,106.537391 102.734194,107.73444 71.0123863,107.73444 C39.2905788,107.73444 20.7363141,107.135916 15.9481167,105.938866 Z" id="Shape"></path>
                </g>
                <g id="Black-M" transform="translate(2385.840000, 418.000000)">
                    <path d="M44.7635,28.9297 C44.7635,26.5372 47.5955,25.6094 49.6463,26.8301 L49.6463,26.8301 L77.4783,43.2852 C79.4803,44.5059 79.5291,47.3379 77.4783,48.5098 L77.4783,48.5098 L49.6463,64.9649 C47.4002,66.3321 44.7635,65.209 44.7635,62.8653 L44.7635,62.8653 L44.7635,28.9297 Z M54.16,42.1754915 L54.16,47.8245085 C54.16,48.3767933 54.6077153,48.8245085 55.16,48.8245085 C55.3257158,48.8245085 55.4888341,48.7833254 55.6346894,48.7046619 L60.871799,45.8801534 C61.3578943,45.6179896 61.5394266,45.0114058 61.2772629,44.5253106 C61.1845866,44.3534732 61.0436363,44.212523 60.871799,44.1198466 L55.6346894,41.2953381 C55.1485942,41.0331744 54.5420104,41.2147068 54.2798466,41.700802 C54.2011831,41.8466574 54.16,42.0097756 54.16,42.1754915 Z M16.492,90.89262 C35.3350222,91.5592867 49.4672889,91.89262 58.8888,91.89262 C68.2390222,91.89262 82.2643556,91.5592867 100.9648,90.89262 C111.208229,90.527444 115.787972,85.8065764 116.2968,75.75591 C116.963467,62.5875056 117.2968,52.7112022 117.2968,46.127 C117.2968,39.4625111 116.963467,29.4657778 116.2968,16.1368 C115.794092,6.08593402 111.208229,1.36517595 100.9648,1 C82.2643556,0.33333333 68.2390222,0 58.8888,0 C49.4672889,0 35.3350222,0.33333333 16.492,1 C6.29726256,1.36069011 1.66515144,6.03707161 1.16,16.1368 C0.493333333,29.4657778 0.16,39.4625111 0.16,46.127 C0.16,52.7112022 0.493333333,62.5875056 1.16,75.75591 C1.67129748,85.855368 6.29726256,90.5319299 16.492,90.89262 Z M23.9692283,74.2524158 C20.0141973,74.118441 17.8321781,72.247874 17.8321781,68.314438 C17.2915927,58.2488783 17.0213,50.6997085 17.0213,45.6669286 C17.0213,40.5719548 17.2915927,32.9294942 17.8321781,22.7395466 C18.0406982,18.8089767 20.0141973,16.935559 23.9692283,16.8015842 C39.2134129,16.2851947 50.6465514,16.027 58.2686438,16.027 C65.8328754,16.027 77.179223,16.2851947 92.3076864,16.8015842 C96.2230427,16.9352295 98.2367028,18.8089767 98.445223,22.7395466 C98.9858087,32.9294942 99.2561011,40.5719548 99.2561011,45.6669286 C99.2561011,50.6997085 98.9858087,58.2488783 98.445223,68.314438 C98.2341287,72.2449573 96.2230427,74.1187705 92.3076864,74.2524158 C77.179223,74.7688053 65.8328754,75.027 58.2686438,75.027 C50.6465514,75.027 39.2134129,74.7688053 23.9692283,74.2524158 Z" id="Shape"></path>
                </g>
                <g id="Heavy-M" transform="translate(2088.500000, 418.000000)">
                    <path d="M45.1035,28.9297 C45.1035,26.5372 47.9355,25.6094 49.9863,26.8301 L49.9863,26.8301 L77.8183,43.2852 C79.8203,44.5059 79.8691,47.3379 77.8183,48.5098 L77.8183,48.5098 L49.9863,64.9649 C47.7402,66.3321 45.1035,65.209 45.1035,62.8653 L45.1035,62.8653 L45.1035,28.9297 Z M54.5,42.1754915 L54.5,48.8245085 C54.5,49.3767933 54.9477153,49.8245085 55.5,49.8245085 C55.6657158,49.8245085 55.8288341,49.7833254 55.9746894,49.7046619 L62.1388823,46.3801534 C62.6249776,46.1179896 62.80651,45.5114058 62.5443462,45.0253106 C62.4516699,44.8534732 62.3107196,44.712523 62.1388823,44.6198466 L55.9746894,41.2953381 C55.4885942,41.0331744 54.8820104,41.2147068 54.6198466,41.700802 C54.5411831,41.8466574 54.5,42.0097756 54.5,42.1754915 Z M16.832,90.89262 C35.6750222,91.5592867 49.8072889,91.89262 59.2288,91.89262 C68.5790222,91.89262 82.6043556,91.5592867 101.3048,90.89262 C111.548229,90.527444 116.127972,85.8065764 116.6368,75.75591 C117.303467,62.5875056 117.6368,52.7112022 117.6368,46.127 C117.6368,39.4625111 117.303467,29.4657778 116.6368,16.1368 C116.134092,6.08593402 111.548229,1.36517595 101.3048,1 C82.6043556,0.33333333 68.5790222,0 59.2288,0 C49.8072889,0 35.6750222,0.33333333 16.832,1 C6.63726256,1.36069011 2.00515144,6.03707161 1.5,16.1368 C0.833333333,29.4657778 0.5,39.4625111 0.5,46.127 C0.5,52.7112022 0.833333333,62.5875056 1.5,75.75591 C2.01129748,85.855368 6.63726256,90.5319299 16.832,90.89262 Z M23.5447512,75.2261587 C19.4556514,75.0876424 17.1996655,73.1536664 17.1996655,69.0868935 C16.6407552,58.6801284 16.3613,50.8750546 16.3613,45.671672 C16.3613,40.4039872 16.6407552,32.5024601 17.1996655,21.9670905 C17.4152541,17.903281 19.4556514,15.9663576 23.5447512,15.8278413 C39.305688,15.2939471 51.1263905,15.027 59.0068588,15.027 C66.8275051,15.027 78.5584746,15.2939471 94.1997672,15.8278413 C98.2478475,15.966017 100.329767,17.903281 100.545356,21.9670905 C101.104267,32.5024601 101.383722,40.4039872 101.383722,45.671672 C101.383722,50.8750546 101.104267,58.6801284 100.545356,69.0868935 C100.327106,73.1506507 98.2478475,75.087983 94.1997672,75.2261587 C78.5584746,75.7600529 66.8275051,76.027 59.0068588,76.027 C51.1263905,76.027 39.305688,75.7600529 23.5447512,75.2261587 Z" id="Shape"></path>
                </g>
                <g id="Bold-M" transform="translate(1791.180000, 418.000000)">
                    <path d="M45.4235,28.9297 C45.4235,26.5372 48.2555,25.6094 50.3063,26.8301 L50.3063,26.8301 L78.1383,43.2852 C80.1403,44.5059 80.1891,47.3379 78.1383,48.5098 L78.1383,48.5098 L50.3063,64.9649 C48.0602,66.3321 45.4235,65.209 45.4235,62.8653 L45.4235,62.8653 L45.4235,28.9297 Z M54.82,42.1754915 L54.82,49.8245085 C54.82,50.3767933 55.2677153,50.8245085 55.82,50.8245085 C55.9857158,50.8245085 56.1488341,50.7833254 56.2946894,50.7046619 L63.3859657,46.8801534 C63.8720609,46.6179896 64.0535933,46.0114058 63.7914296,45.5253106 C63.6987533,45.3534732 63.557803,45.212523 63.3859657,45.1198466 L56.2946894,41.2953381 C55.8085942,41.0331744 55.2020104,41.2147068 54.9398466,41.700802 C54.8611831,41.8466574 54.82,42.0097756 54.82,42.1754915 Z M17.152,90.89262 C35.9950222,91.5592867 50.1272889,91.89262 59.5488,91.89262 C68.8990222,91.89262 82.9243556,91.5592867 101.6248,90.89262 C111.868229,90.527444 116.447972,85.8065764 116.9568,75.75591 C117.623467,62.5875056 117.9568,52.7112022 117.9568,46.127 C117.9568,39.4625111 117.623467,29.4657778 116.9568,16.1368 C116.454092,6.08593402 111.868229,1.36517595 101.6248,1 C82.9243556,0.33333333 68.8990222,0 59.5488,0 C50.1272889,0 35.9950222,0.33333333 17.152,1 C6.95726256,1.36069011 2.32515144,6.03707161 1.82,16.1368 C1.15333333,29.4657778 0.82,39.4625111 0.82,46.127 C0.82,52.7112022 1.15333333,62.5875056 1.82,75.75591 C2.33129748,85.855368 6.95726256,90.5319299 17.152,90.89262 Z M23.1002742,76.1999016 C18.8771055,76.0568438 16.5471529,74.0594587 16.5471529,69.859349 C15.9699176,59.1113785 15.6813,51.0504006 15.6813,45.6764153 C15.6813,40.2360196 15.9699176,32.075426 16.5471529,21.1946345 C16.76981,16.9975853 18.8771055,14.9971562 23.1002742,14.8540984 C39.377963,14.3026995 51.5862295,14.027 59.7250739,14.027 C67.8021348,14.027 79.9177262,14.3026995 96.0718481,14.8540984 C100.252652,14.9968044 102.402832,16.9975853 102.625489,21.1946345 C103.202725,32.075426 103.491342,40.2360196 103.491342,45.6764153 C103.491342,51.0504006 103.202725,59.1113785 102.625489,69.859349 C102.400083,74.0563442 100.252652,76.0571956 96.0718481,76.1999016 C79.9177262,76.7513006 67.8021348,77.027 59.7250739,77.027 C51.5862295,77.027 39.377963,76.7513006 23.1002742,76.1999016 Z" id="Shape"></path>
                </g>
                <g id="Semibold-M" transform="translate(1495.760000, 418.000000)">
                    <path d="M44.8435,28.9297 C44.8435,26.5372 47.6755,25.6094 49.7263,26.8301 L49.7263,26.8301 L77.5583,43.2852 C79.5603,44.5059 79.6091,47.3379 77.5583,48.5098 L77.5583,48.5098 L49.7263,64.9649 C47.4802,66.3321 44.8435,65.209 44.8435,62.8653 L44.8435,62.8653 L44.8435,28.9297 Z M53.24,41.1754915 L53.24,49.8245085 C53.24,50.3767933 53.6877153,50.8245085 54.24,50.8245085 C54.4057158,50.8245085 54.5688341,50.7833254 54.7146894,50.7046619 L62.733049,46.3801534 C63.2191443,46.1179896 63.4006766,45.5114058 63.1385129,45.0253106 C63.0458366,44.8534732 62.9048863,44.712523 62.733049,44.6198466 L54.7146894,40.2953381 C54.2285942,40.0331744 53.6220104,40.2147068 53.3598466,40.700802 C53.2811831,40.8466574 53.24,41.0097756 53.24,41.1754915 Z M16.572,90.89262 C35.4150222,91.5592867 49.5472889,91.89262 58.9688,91.89262 C68.3190222,91.89262 82.3443556,91.5592867 101.0448,90.89262 C111.288229,90.527444 115.867972,85.8065764 116.3768,75.75591 C117.043467,62.5875056 117.3768,52.7112022 117.3768,46.127 C117.3768,39.4625111 117.043467,29.4657778 116.3768,16.1368 C115.874092,6.08593402 111.288229,1.36517595 101.0448,1 C82.3443556,0.33333333 68.3190222,0 58.9688,0 C49.5472889,0 35.4150222,0.33333333 16.572,1 C6.37726256,1.36069011 1.74515144,6.03707161 1.24,16.1368 C0.573333333,29.4657778 0.24,39.4625111 0.24,46.127 C0.24,52.7112022 0.573333333,62.5875056 1.24,75.75591 C1.75129748,85.855368 6.37726256,90.5319299 16.572,90.89262 Z M20.8726325,78.1583419 C16.4488878,78.0080958 14.0082759,75.9103468 14.0082759,71.4991916 C13.4036253,60.2111612 13.1013,51.7451383 13.1013,46.1011231 C13.1013,40.3873604 13.4036253,31.8167164 14.0082759,20.389191 C14.2415079,15.9812501 16.4488878,13.8803042 20.8726325,13.7300581 C37.9234172,13.1509527 50.7115056,12.8614 59.2368979,12.8614 C67.6975724,12.8614 80.3885843,13.1509527 97.3099334,13.7300581 C101.689302,13.8799348 103.941602,15.9812501 104.174834,20.389191 C104.779485,31.8167164 105.08181,40.3873604 105.08181,46.1011231 C105.08181,51.7451383 104.779485,60.2111612 104.174834,71.4991916 C103.938723,75.9070758 101.689302,78.0084652 97.3099334,78.1583419 C80.3885843,78.7374473 67.6975724,79.027 59.2368979,79.027 C50.7115056,79.027 37.9234172,78.7374473 20.8726325,78.1583419 Z" id="Shape"></path>
                </g>
                <g id="Medium-M" transform="translate(1198.240000, 418.000000)">
                    <path d="M45.3635,28.9297 C45.3635,26.5372 48.1955,25.6094 50.2463,26.8301 L50.2463,26.8301 L78.0783,43.2852 C80.0803,44.5059 80.1291,47.3379 78.0783,48.5098 L78.0783,48.5098 L50.2463,64.9649 C48.0002,66.3321 45.3635,65.209 45.3635,62.8653 L45.3635,62.8653 L45.3635,28.9297 Z M53.76,40.2549892 L53.76,50.7450108 C53.76,51.2972955 54.2077153,51.7450108 54.76,51.7450108 C54.9393892,51.7450108 55.1154754,51.6967553 55.2698024,51.6053023 L64.120758,46.3602915 C64.5958839,46.0787354 64.7528033,45.4653235 64.4712472,44.9901976 C64.3856818,44.8458061 64.2651496,44.7252738 64.120758,44.6397085 L55.2698024,39.3946977 C54.7946765,39.1131416 54.1812646,39.270061 53.8997085,39.7451869 C53.8082554,39.8995138 53.76,40.0756001 53.76,40.2549892 Z M17.092,90.89262 C35.9350222,91.5592867 50.0672889,91.89262 59.4888,91.89262 C68.8390222,91.89262 82.8643556,91.5592867 101.5648,90.89262 C111.808229,90.527444 116.387972,85.8065764 116.8968,75.75591 C117.563467,62.5875056 117.8968,52.7112022 117.8968,46.127 C117.8968,39.4625111 117.563467,29.4657778 116.8968,16.1368 C116.394092,6.08593402 111.808229,1.36517595 101.5648,1 C82.8643556,0.33333333 68.8390222,0 59.4888,0 C50.0672889,0 35.9350222,0.33333333 17.092,1 C6.89726256,1.36069011 2.26515144,6.03707161 1.76,16.1368 C1.09333333,29.4657778 0.76,39.4625111 0.76,46.127 C0.76,52.7112022 1.09333333,62.5875056 1.76,75.75591 C2.27129748,85.855368 6.89726256,90.5319299 17.092,90.89262 Z M19.6832503,80.1058277 C15.0940746,79.9464985 12.5621933,77.7219315 12.5621933,73.0441026 C11.9349311,61.0736614 11.6213,52.0958305 11.6213,46.1106098 C11.6213,40.0514251 11.9349311,30.9626482 12.5621933,18.8442789 C12.8041473,14.1698587 15.0940746,11.9419014 19.6832503,11.7825723 C37.3716684,11.1684574 50.6379819,10.8614 59.4821909,10.8614 C68.259262,10.8614 81.4248686,11.1684574 98.9790107,11.7825723 C103.52215,11.9415097 105.858678,14.1698587 106.100632,18.8442789 C106.727895,30.9626482 107.041526,40.0514251 107.041526,46.1106098 C107.041526,52.0958305 106.727895,61.0736614 106.100632,73.0441026 C105.855691,77.7184627 103.52215,79.9468903 98.9790107,80.1058277 C81.4248686,80.7199426 68.259262,81.027 59.4821909,81.027 C50.6379819,81.027 37.3716684,80.7199426 19.6832503,80.1058277 Z" id="Shape"></path>
                </g>
                <g id="Regular-M" transform="translate(901.820000, 418.000000)">
                    <path d="M44.7835,28.9297 C44.7835,26.5372 47.6155,25.6094 49.6663,26.8301 L49.6663,26.8301 L77.4983,43.2852 C79.5003,44.5059 79.5491,47.3379 77.4983,48.5098 L77.4983,48.5098 L49.6663,64.9649 C47.4202,66.3321 44.7835,65.209 44.7835,62.8653 L44.7835,62.8653 L44.7835,28.9297 Z M53.18,39.2549892 L53.18,51.7450108 C53.18,52.2972955 53.6277153,52.7450108 54.18,52.7450108 C54.3593892,52.7450108 54.5354754,52.6967553 54.6898024,52.6053023 L65.228258,46.3602915 C65.7033839,46.0787354 65.8603033,45.4653235 65.5787472,44.9901976 C65.4931818,44.8458061 65.3726496,44.7252738 65.228258,44.6397085 L54.6898024,38.3946977 C54.2146765,38.1131416 53.6012646,38.270061 53.3197085,38.7451869 C53.2282554,38.8995138 53.18,39.0756001 53.18,39.2549892 Z M16.512,90.89262 C35.3550222,91.5592867 49.4872889,91.89262 58.9088,91.89262 C68.2590222,91.89262 82.2843556,91.5592867 100.9848,90.89262 C111.2388,90.89262 116.3168,85.8145 116.3168,75.75591 C116.983467,62.5875056 117.3168,52.7112022 117.3168,46.127 C117.3168,39.4625111 116.983467,29.4657778 116.3168,16.1368 C116.3168,6.0782 111.2388,1 100.9848,1 C82.2843556,0.33333333 68.2590222,0 58.9088,0 C49.4872889,0 35.3550222,0.33333333 16.512,1 C6.3069,1 1.18,6.0293 1.18,16.1368 C0.513333333,29.4657778 0.18,39.4625111 0.18,46.127 C0.18,52.7112022 0.513333333,62.5875056 1.18,75.75591 C1.18,85.86333 6.3069,90.89262 16.512,90.89262 Z M16.6097,83.0313 C11.7268,83.0313 9.0413,80.443406 9.0413,75.36528 C8.37463333,62.3704889 8.0413,52.6243956 8.0413,46.127 C8.0413,39.5493111 8.37463333,29.6827778 9.0413,16.5274 C9.0413,11.4493 11.7268,8.8614 16.6097,8.8614 C35.4093,8.19473333 49.509,7.8614 58.9088,7.8614 C68.2372444,7.8614 82.2299111,8.19473333 100.8868,8.8614 C105.7208,8.8614 108.4558,11.4493 108.4558,16.5274 C109.122467,29.6827778 109.4558,39.5493111 109.4558,46.127 C109.4558,52.6243956 109.122467,62.3704889 108.4558,75.36528 C108.4558,80.443406 105.7208,83.0313 100.8868,83.0313 C82.2299111,83.6979667 68.2372444,84.0313 58.9088,84.0313 C49.509,84.0313 35.4093,83.6979667 16.6097,83.0313 Z" id="Shape"></path>
                </g>
                <g id="Light-M" transform="translate(605.500000, 418.000000)">
                    <path d="M45.1035,28.9297 C45.1035,26.5372 47.9355,25.6094 49.9863,26.8301 L49.9863,26.8301 L77.8183,43.2852 C79.8203,44.5059 79.8691,47.3379 77.8183,48.5098 L77.8183,48.5098 L49.9863,64.9649 C47.7402,66.3321 45.1035,65.209 45.1035,62.8653 L45.1035,62.8653 L45.1035,28.9297 Z M53.5,39.2549892 L53.5,51.7450108 C53.5,52.2972955 53.9477153,52.7450108 54.5,52.7450108 C54.6793892,52.7450108 54.8554754,52.6967553 55.0098024,52.6053023 L65.548258,46.3602915 C66.0233839,46.0787354 66.1803033,45.4653235 65.8987472,44.9901976 C65.8131818,44.8458061 65.6926496,44.7252738 65.548258,44.6397085 L55.0098024,38.3946977 C54.5346765,38.1131416 53.9212646,38.270061 53.6397085,38.7451869 C53.5482554,38.8995138 53.5,39.0756001 53.5,39.2549892 Z M16.832,90.89262 C35.6750222,91.5592867 49.8072889,91.89262 59.2288,91.89262 C68.5790222,91.89262 82.6043556,91.5592867 101.3048,90.89262 C111.5588,90.89262 116.6368,85.8145 116.6368,75.75591 C117.303467,62.5875056 117.6368,52.7112022 117.6368,46.127 C117.6368,39.4625111 117.303467,29.4657778 116.6368,16.1368 C116.6368,6.0782 111.5588,1 101.3048,1 C82.6043556,0.33333333 68.5790222,0 59.2288,0 C49.8072889,0 35.6750222,0.33333333 16.832,1 C6.6269,1 1.5,6.0293 1.5,16.1368 C0.833333333,29.4657778 0.5,39.4625111 0.5,46.127 C0.5,52.7112022 0.833333333,62.5875056 1.5,75.75591 C1.5,85.86333 6.6269,90.89262 16.832,90.89262 Z M16.0986778,83.513729 C11.1194819,83.513729 8.38102105,80.8747991 8.38102105,75.6965271 C7.70120701,62.4454651 7.3613,52.5071687 7.3613,45.8816377 C7.3613,39.1742298 7.70120701,29.1131182 8.38102105,15.6983026 C8.38102105,10.5200571 11.1194819,7.88112105 16.0986778,7.88112105 C35.2690256,7.20130701 49.6467864,6.8614 59.2319603,6.8614 C68.7443714,6.8614 83.0129881,7.20130701 102.03781,7.88112105 C106.967142,7.88112105 109.756079,10.5200571 109.756079,15.6983026 C110.435893,29.1131182 110.7758,39.1742298 110.7758,45.8816377 C110.7758,52.5071687 110.435893,62.4454651 109.756079,75.6965271 C109.756079,80.8747991 106.967142,83.513729 102.03781,83.513729 C83.0129881,84.1935431 68.7443714,84.5334501 59.2319603,84.5334501 C49.6467864,84.5334501 35.2690256,84.1935431 16.0986778,83.513729 Z" id="Shape"></path>
                </g>
                <g id="Thin-M" transform="translate(308.330000, 418.000000)">
                    <path d="M45.2735,28.9297 C45.2735,26.5372 48.1055,25.6094 50.1563,26.8301 L77.9883,43.2852 C79.9903,44.5059 80.0391,47.3379 77.9883,48.5098 L50.1563,64.9649 C47.9102,66.3321 45.2735,65.209 45.2735,62.8653 L45.2735,28.9297 Z M48.67,31.7231797 L48.67,60.2768203 C48.67,60.8291051 49.1177153,61.2768203 49.67,61.2768203 C49.8440269,61.2768203 50.0150412,61.231405 50.1661389,61.1450635 L75.1505745,46.8682431 C75.6300919,46.5942332 75.7966887,45.9833785 75.5226787,45.5038611 C75.4340894,45.3488298 75.3056058,45.2203462 75.1505745,45.1317569 L50.1661389,30.8549365 C49.6866215,30.5809266 49.0757668,30.7475233 48.8017569,31.2270407 C48.7154153,31.3781384 48.67,31.5491527 48.67,31.7231797 Z M17.002,90.89262 C35.8450222,91.5592867 49.9772889,91.89262 59.3988,91.89262 C68.7490222,91.89262 82.7743556,91.5592867 101.4748,90.89262 C111.718229,90.527444 116.297972,85.8065764 116.8068,75.75591 C117.473467,62.5875056 117.8068,52.7112022 117.8068,46.127 C117.8068,39.4625111 117.473467,29.4657778 116.8068,16.1368 C116.304092,6.08593402 111.718229,1.36517595 101.4748,1 C82.7743556,0.33333333 68.7490222,2.7000624e-13 59.3988,2.7000624e-13 C49.9772889,2.7000624e-13 35.8450222,0.33333333 17.002,1 C6.80726256,1.36069011 2.17515144,6.03707161 1.67,16.1368 C1.00333333,29.4657778 0.67,39.4625111 0.67,46.127 C0.67,52.7112022 1.00333333,62.5875056 1.67,75.75591 C2.18129748,85.855368 6.80726256,90.5319299 17.002,90.89262 Z M13.7756112,86.9347587 C8.51338973,86.7436096 5.89104786,84.0706087 5.61018418,78.4627237 C4.89092806,64.1016437 4.5313,53.3308338 4.5313,46.1502938 C4.5313,38.8810183 4.89092806,27.9771052 5.61018418,13.4385542 C5.88762295,7.83059701 8.51338973,5.15769036 13.7756112,4.96654127 C34.0582023,4.22978042 49.2701456,3.8614 59.4114412,3.8614 C69.4757523,3.8614 84.5722191,4.22978042 104.700841,4.96654127 C109.916168,4.96654127 112.866916,7.82653636 112.866916,13.4385542 C113.586172,27.9771052 113.9458,38.8810183 113.9458,46.1502938 C113.9458,53.3308338 113.586172,64.1016437 112.866916,78.4627237 C112.586052,84.0706087 109.910275,86.7440797 104.700841,86.9347587 C84.5722191,87.6715196 69.4757523,88.0399 59.4114412,88.0399 C49.2701456,88.0399 34.0582023,87.6715196 13.7756112,86.9347587 Z" id="Shape"></path>
                </g>
                <g id="Ultralight-M" transform="translate(11.888000, 419.000000)">
                    <path d="M44.7155,28.9297 C44.7155,26.5372 47.5475,25.6094 49.5983,26.8301 L77.4303,43.2852 C79.4323,44.5059 79.4811,47.3379 77.4303,48.5098 L49.5983,64.9649 C47.3522,66.3321 44.7155,65.209 44.7155,62.8653 L44.7155,28.9297 Z M46.612,30.0998196 L46.612,61.4352288 C46.612,62.2636559 47.2835729,62.9352288 48.112,62.9352288 C48.3696053,62.9352288 48.6228694,62.868886 48.8473919,62.7425921 L76.3195314,47.2895136 C77.0415682,46.8833679 77.2976485,45.9687953 76.8915028,45.2467584 C76.7597631,45.0125546 76.5675283,44.8180398 76.3348939,44.6835481 L48.8627544,28.8012174 C48.1455562,28.3865872 47.228028,28.631867 46.8133978,29.3490652 C46.6814649,29.5772733 46.612,29.8362192 46.612,30.0998196 Z M16.444,90.89262 C35.2870222,91.5592867 49.4192889,91.89262 58.8408,91.89262 C68.1910222,91.89262 82.2163556,91.5592867 100.9168,90.89262 C111.160229,90.527444 115.739972,85.8065764 116.2488,75.75591 C116.915467,62.5875056 117.2488,52.7112022 117.2488,46.127 C117.2488,39.4625111 116.915467,29.4657778 116.2488,16.1368 C115.746092,6.08593402 111.612,1.5 100.9168,1 C88.0715135,0.399483577 68.1910222,0 58.8408,0 C49.4192889,0 23.612,0.5 16.444,1 C6.27900429,1.70905383 1.61715144,6.03707161 1.112,16.1368 C0.445333333,29.4657778 0.112,39.4625111 0.112,46.127 C0.112,52.7112022 0.445333333,62.5875056 1.112,75.75591 C1.62329748,85.855368 6.24926256,90.5319299 16.444,90.89262 Z M12.612,88.5 C8.612,87.5 4.112,83 3.612,79 C3.05005437,74.504435 2.112,53.3117939 2.112,46 C2.112,38.5978486 2.612,20 3.612,12.5 C4.07903356,8.99724827 7.39587212,4.47802398 12.612,3.5 C20.612,2 48.2853306,2 58.612,2 C68.8602778,2 97.6922888,2.8254808 105.112,3.5 C110.612,4 113.24756,8.49116453 113.612,12.5 C114.612,23.5 115.112,31.5 115.112,46 C115.112,60.5 114.612,73 113.612,79 C112.612,85 109.592378,87.4026163 105.112,88 C97.612,89 85.112,90 58.612,90 C32.112,90 16.612,89.5 12.612,88.5 Z" id="Shape"></path>
                </g>
                <g id="Black-S" transform="translate(2400.350000, 0.000000)">
                    <path d="M33.6563285,21.4078084 C33.6563285,19.6373724 35.7519919,18.9508058 37.2695718,19.8541167 L37.2695718,19.8541167 L57.8650887,32.0307942 C59.3465569,32.934105 59.3826686,35.0297684 57.8650887,35.8969676 L57.8650887,35.8969676 L37.2695718,48.0736451 C35.607471,49.0853651 33.6563285,48.2542777 33.6563285,46.5199534 L33.6563285,46.5199534 L33.6563285,21.4078084 Z M40.6096834,31.645254 L40.6096834,34.9542183 C40.6096834,35.506503 41.0573986,35.9542183 41.6096834,35.9542183 C41.7753992,35.9542183 41.9385175,35.9130352 42.0843728,35.8343716 L45.1520584,34.1798895 C45.6381537,33.9177258 45.8196861,33.311142 45.5575223,32.8250467 C45.464846,32.6532094 45.3238958,32.5122591 45.1520584,32.4195828 L42.0843728,30.7651007 C41.5982776,30.5029369 40.9916938,30.6844693 40.72953,31.1705646 C40.6508665,31.3164199 40.6096834,31.4795382 40.6096834,31.645254 Z M12.7355842,67.2600059 C26.6793102,67.7533353 37.1371047,68 44.1089677,68 C51.0280773,68 61.4067417,67.7533353 75.2449609,67.2600059 C82.8250381,66.9897778 86.2140216,63.4963635 86.590551,56.0589292 C87.0838807,46.3143872 87.3305452,39.0059806 87.3305452,34.1337095 C87.3305452,29.2020268 87.0838807,21.8045028 86.590551,11.9411374 C86.2185502,4.50355549 82.8250381,1.0102222 75.2449609,0.739994137 C61.4067417,0.24666471 51.0280773,0 44.1089677,0 C37.1371047,0 26.6793102,0.24666471 12.7355842,0.739994137 C5.19153831,1.0069027 1.76380324,4.46739759 1.38999414,11.9411374 C0.896664712,21.8045028 0.65,29.2020268 0.65,34.1337095 C0.65,39.0059806 0.896664712,46.3143872 1.38999414,56.0589292 C1.76835127,63.5324689 5.19153831,66.9930973 12.7355842,67.2600059 Z M18.2686893,54.9463523 C15.3419896,54.8472118 13.7273082,53.4630032 13.7273082,50.5522835 C13.3272782,43.1038284 13.1272631,37.517487 13.1272631,33.7932594 C13.1272631,30.0230087 13.3272782,24.3676326 13.7273082,16.8271311 C13.8816119,13.9185325 15.3419896,12.5322143 18.2686893,12.4330738 C29.5492966,12.0509486 38.0097521,11.859886 43.6500557,11.859886 C49.2475428,11.859886 57.6437734,12.0509486 68.8387476,12.4330738 C71.7360883,12.5319706 73.226185,13.9185325 73.3804887,16.8271311 C73.780519,24.3676326 73.9805338,30.0230087 73.9805338,33.7932594 C73.9805338,37.517487 73.780519,43.1038284 73.3804887,50.5522835 C73.2242802,53.4608448 71.7360883,54.8474556 68.8387476,54.9463523 C57.6437734,55.3284775 49.2475428,55.5195401 43.6500557,55.5195401 C38.0097521,55.5195401 29.5492966,55.3284775 18.2686893,54.9463523 Z" id="Shape"></path>
                </g>
                <g id="Heavy-S" transform="translate(2103.880000, 0.000000)">
                    <path d="M33.1263285,21.4078084 C33.1263285,19.6373724 35.2219919,18.9508058 36.7395718,19.8541167 L36.7395718,19.8541167 L57.3350887,32.0307942 C58.8165569,32.934105 58.8526686,35.0297684 57.3350887,35.8969676 L57.3350887,35.8969676 L36.7395718,48.0736451 C35.077471,49.0853651 33.1263285,48.2542777 33.1263285,46.5199534 L33.1263285,46.5199534 L33.1263285,21.4078084 Z M40.0796834,31.645254 L40.0796834,35.6942124 C40.0796834,36.2464972 40.5273986,36.6942124 41.0796834,36.6942124 C41.2453992,36.6942124 41.4085175,36.6530293 41.5543728,36.5743658 L45.3080947,34.5498866 C45.79419,34.2877228 45.9757223,33.681139 45.7135586,33.1950438 C45.6208823,33.0232064 45.479932,32.8822562 45.3080947,32.7895799 L41.5543728,30.7651007 C41.0682776,30.5029369 40.4616938,30.6844693 40.19953,31.1705646 C40.1208665,31.3164199 40.0796834,31.4795382 40.0796834,31.645254 Z M12.2055842,67.2600059 C26.1493102,67.7533353 36.6071047,68 43.5789677,68 C50.4980773,68 60.8767417,67.7533353 74.7149609,67.2600059 C82.2950381,66.9897778 85.6840216,63.4963635 86.060551,56.0589292 C86.5538807,46.3143872 86.8005452,39.0059806 86.8005452,34.1337095 C86.8005452,29.2020268 86.5538807,21.8045028 86.060551,11.9411374 C85.6885502,4.50355549 82.2950381,1.0102222 74.7149609,0.739994137 C60.8767417,0.24666471 50.4980773,0 43.5789677,0 C36.6071047,0 26.1493102,0.24666471 12.2055842,0.739994137 C4.66153831,1.0069027 1.23380324,4.46739759 0.859994137,11.9411374 C0.366664712,21.8045028 0.12,29.2020268 0.12,34.1337095 C0.12,39.0059806 0.366664712,46.3143872 0.859994137,56.0589292 C1.23835127,63.5324689 4.66153831,66.9930973 12.2055842,67.2600059 Z M17.1729808,55.6669164 C14.1470709,55.5644151 12.4776546,54.1332842 12.4776546,51.1238961 C12.0640642,43.4229509 11.857269,37.6472421 11.857269,33.7967695 C11.857269,29.8987136 12.0640642,24.0516299 12.4776546,16.2555182 C12.6371889,13.2483229 14.1470709,11.815011 17.1729808,11.7125097 C28.8359816,11.3174312 37.5832321,11.1198919 43.4147325,11.1198919 C49.2019649,11.1198919 57.8828135,11.3174312 69.4572784,11.7125097 C72.452834,11.8147589 73.9934425,13.2483229 74.1529768,16.2555182 C74.5665674,24.0516299 74.7733624,29.8987136 74.7733624,33.7967695 C74.7733624,37.6472421 74.5665674,43.4229509 74.1529768,51.1238961 C73.9914731,54.1310526 72.452834,55.5646672 69.4572784,55.6669164 C57.8828135,56.061995 49.2019649,56.2595342 43.4147325,56.2595342 C37.5832321,56.2595342 28.8359816,56.061995 17.1729808,55.6669164 Z" id="Shape"></path>
                </g>
                <g id="Bold-S" transform="translate(1807.410000, 0.000000)">
                    <path d="M33.5963285,21.4078084 C33.5963285,19.6373724 35.6919919,18.9508058 37.2095718,19.8541167 L37.2095718,19.8541167 L57.8050887,32.0307942 C59.2865569,32.934105 59.3226686,35.0297684 57.8050887,35.8969676 L57.8050887,35.8969676 L37.2095718,48.0736451 C35.547471,49.0853651 33.5963285,48.2542777 33.5963285,46.5199534 L33.5963285,46.5199534 L33.5963285,21.4078084 Z M40.5496834,31.645254 L40.5496834,36.4342066 C40.5496834,36.9864913 40.9973986,37.4342066 41.5496834,37.4342066 C41.7153992,37.4342066 41.8785175,37.3930235 42.0243728,37.3143599 L46.4641309,34.9198836 C46.9502262,34.6577199 47.1317586,34.0511361 46.8695948,33.5650408 C46.7769185,33.3932035 46.6359682,33.2522532 46.4641309,33.1595769 L42.0243728,30.7651007 C41.5382776,30.5029369 40.9316938,30.6844693 40.66953,31.1705646 C40.5908665,31.3164199 40.5496834,31.4795382 40.5496834,31.645254 Z M12.6755842,67.2600059 C26.6193102,67.7533353 37.0771047,68 44.0489677,68 C50.9680773,68 61.3467417,67.7533353 75.1849609,67.2600059 C82.7650381,66.9897778 86.1540216,63.4963635 86.530551,56.0589292 C87.0238807,46.3143872 87.2705452,39.0059806 87.2705452,34.1337095 C87.2705452,29.2020268 87.0238807,21.8045028 86.530551,11.9411374 C86.1585502,4.50355549 82.7650381,1.0102222 75.1849609,0.739994137 C61.3467417,0.24666471 50.9680773,0 44.0489677,0 C37.0771047,0 26.6193102,0.24666471 12.6755842,0.739994137 C5.13153831,1.0069027 1.70380324,4.46739759 1.32999414,11.9411374 C0.836664712,21.8045028 0.59,29.2020268 0.59,34.1337095 C0.59,39.0059806 0.836664712,46.3143872 1.32999414,56.0589292 C1.70835127,63.5324689 5.13153831,66.9930973 12.6755842,67.2600059 Z M17.0772723,56.3874804 C13.9521522,56.2816185 12.228001,54.8035652 12.228001,51.6955086 C11.8008502,43.7420735 11.5872749,37.7769971 11.5872749,33.8002795 C11.5872749,29.7744186 11.8008502,23.7356271 12.228001,15.6839052 C12.3927659,12.5781134 13.9521522,11.0978076 17.0772723,10.9919457 C29.1226665,10.5839137 38.1567122,10.3798978 44.1794093,10.3798978 C50.156387,10.3798978 59.1218536,10.5839137 71.0758091,10.9919457 C74.1695797,11.0975473 75.7606999,12.5781134 75.9254649,15.6839052 C76.3526158,23.7356271 76.566191,29.7744186 76.566191,33.8002795 C76.566191,37.7769971 76.3526158,43.7420735 75.9254649,51.6955086 C75.7586659,54.8012605 74.1695797,56.2818788 71.0758091,56.3874804 C59.1218536,56.7955124 50.156387,56.9995284 44.1794093,56.9995284 C38.1567122,56.9995284 29.1226665,56.7955124 17.0772723,56.3874804 Z" id="Shape"></path>
                </g>
                <g id="Semibold-S" transform="translate(1510.900000, 0.000000)">
                    <path d="M33.1063285,21.4078084 C33.1063285,19.6373724 35.2019919,18.9508058 36.7195718,19.8541167 L36.7195718,19.8541167 L57.3150887,32.0307942 C58.7965569,32.934105 58.8326686,35.0297684 57.3150887,35.8969676 L57.3150887,35.8969676 L36.7195718,48.0736451 C35.057471,49.0853651 33.1063285,48.2542777 33.1063285,46.5199534 L33.1063285,46.5199534 L33.1063285,21.4078084 Z M39.3196892,30.9052599 L39.3196892,36.4342066 C39.3196892,36.9864913 39.7674045,37.4342066 40.3196892,37.4342066 C40.4854051,37.4342066 40.6485233,37.3930235 40.7943787,37.3143599 L45.920173,34.5498866 C46.4062683,34.2877228 46.5878006,33.681139 46.3256369,33.1950438 C46.2329606,33.0232064 46.0920103,32.8822562 45.920173,32.7895799 L40.7943787,30.0251065 C40.3082834,29.7629428 39.7016996,29.9444752 39.4395359,30.4305704 C39.3608723,30.5764258 39.3196892,30.739544 39.3196892,30.9052599 Z M12.1855842,67.2600059 C26.1293102,67.7533353 36.5871047,68 43.5589677,68 C50.4780773,68 60.8567417,67.7533353 74.6949609,67.2600059 C82.2750381,66.9897778 85.6640216,63.4963635 86.040551,56.0589292 C86.5338807,46.3143872 86.7805452,39.0059806 86.7805452,34.1337095 C86.7805452,29.2020268 86.5338807,21.8045028 86.040551,11.9411374 C85.6685502,4.50355549 82.2750381,1.0102222 74.6949609,0.739994137 C60.8567417,0.24666471 50.4780773,0 43.5589677,0 C36.5871047,0 26.1293102,0.24666471 12.1855842,0.739994137 C4.64153831,1.0069027 1.21380324,4.46739759 0.839994137,11.9411374 C0.346664712,21.8045028 0.1,29.2020268 0.1,34.1337095 C0.1,39.0059806 0.346664712,46.3143872 0.839994137,56.0589292 C1.21835127,63.5324689 4.64153831,66.9930973 12.1855842,67.2600059 Z M15.3680271,57.8367147 C12.0944819,57.7255335 10.2884435,56.1732116 10.2884435,52.9089826 C9.84100554,44.5559062 9.61728659,38.291099 9.61728659,34.1145608 C9.61728659,29.8864099 9.84100554,23.5441836 10.2884435,15.0878818 C10.4610337,11.8260314 12.0944819,10.2713437 15.3680271,10.1601625 C27.9855077,9.73162789 37.4486182,9.51736059 43.7573586,9.51736059 C50.0182081,9.51736059 59.4094824,9.73162789 71.9311815,10.1601625 C75.1718883,10.2710704 76.8385775,11.8260314 77.0111679,15.0878818 C77.458606,23.5441836 77.6823247,29.8864099 77.6823247,34.1145608 C77.6823247,38.291099 77.458606,44.5559062 77.0111679,52.9089826 C76.8364469,56.170791 75.1718883,57.7258069 71.9311815,57.8367147 C59.4094824,58.2652494 50.0182081,58.4795166 43.7573586,58.4795166 C37.4486182,58.4795166 27.9855077,58.2652494 15.3680271,57.8367147 Z" id="Shape"></path>
                </g>
                <g id="Medium-S" transform="translate(1213.310000, 0.000000)">
                    <path d="M33.6963285,21.4078084 C33.6963285,19.6373724 35.7919919,18.9508058 37.3095718,19.8541167 L37.3095718,19.8541167 L57.9050887,32.0307942 C59.3865569,32.934105 59.4226686,35.0297684 57.9050887,35.8969676 L57.9050887,35.8969676 L37.3095718,48.0736451 C35.647471,49.0853651 33.6963285,48.2542777 33.6963285,46.5199534 L33.6963285,46.5199534 L33.6963285,21.4078084 Z M39.9096892,30.2447635 L39.9096892,37.0947029 C39.9096892,37.6469877 40.3574045,38.0947029 40.9096892,38.0947029 C41.0890784,38.0947029 41.2651647,38.0464475 41.4194916,37.9549945 L47.199128,34.5300248 C47.6742539,34.2484687 47.8311732,33.6350567 47.5496172,33.1599308 C47.4640518,33.0155393 47.3435196,32.895007 47.199128,32.8094417 L41.4194916,29.384472 C40.9443657,29.1029159 40.3309538,29.2598352 40.0493977,29.7349611 C39.9579447,29.8892881 39.9096892,30.0653743 39.9096892,30.2447635 Z M12.7755842,67.2600059 C26.7193102,67.7533353 37.1771047,68 44.1489677,68 C51.0680773,68 61.4467417,67.7533353 75.2849609,67.2600059 C82.8650381,66.9897778 86.2540216,63.4963635 86.630551,56.0589292 C87.1238807,46.3143872 87.3705452,39.0059806 87.3705452,34.1337095 C87.3705452,29.2020268 87.1238807,21.8045028 86.630551,11.9411374 C86.2585502,4.50355549 82.8650381,1.0102222 75.2849609,0.739994137 C61.4467417,0.24666471 51.0680773,0 44.1489677,0 C37.1771047,0 26.7193102,0.24666471 12.7755842,0.739994137 C5.23153831,1.0069027 1.80380324,4.46739759 1.42999414,11.9411374 C0.936664712,21.8045028 0.69,29.2020268 0.69,34.1337095 C0.69,39.0059806 0.936664712,46.3143872 1.42999414,56.0589292 C1.80835127,63.5324689 5.23153831,66.9930973 12.7755842,67.2600059 Z M14.6930943,59.2778428 C11.2971312,59.1599402 9.42355386,57.5137736 9.42355386,54.0522077 C8.95938349,45.1941513 8.72729832,38.5506091 8.72729832,34.1215809 C8.72729832,29.6378198 8.95938349,22.9121781 9.42355386,13.9446559 C9.60259835,10.4856123 11.2971312,8.83693705 14.6930943,8.7190344 C27.7824199,8.26459301 37.5994142,8.03737232 44.144077,8.03737232 C50.6390581,8.03737232 60.3815298,8.26459301 73.371492,8.7190344 C76.7333887,8.83664713 78.4624056,10.4856123 78.6414502,13.9446559 C79.1056208,22.9121781 79.3377058,29.6378198 79.3377058,34.1215809 C79.3377058,38.5506091 79.1056208,45.1941513 78.6414502,54.0522077 C78.4601954,57.5112067 76.7333887,59.1602301 73.371492,59.2778428 C60.3815298,59.7322842 50.6390581,59.9595049 44.144077,59.9595049 C37.5994142,59.9595049 27.7824199,59.7322842 14.6930943,59.2778428 Z" id="Shape"></path>
                </g>
                <g id="Regular-S" transform="translate(917.790000, 0.000000)">
                    <path d="M33.2163285,21.4078084 C33.2163285,19.6373724 35.3119919,18.9508058 36.8295718,19.8541167 L36.8295718,19.8541167 L57.4250887,32.0307942 C58.9065569,32.934105 58.9426686,35.0297684 57.4250887,35.8969676 L57.4250887,35.8969676 L36.8295718,48.0736451 C35.167471,49.0853651 33.2163285,48.2542777 33.2163285,46.5199534 L33.2163285,46.5199534 L33.2163285,21.4078084 Z M39.4296892,29.5047694 L39.4296892,37.8346971 C39.4296892,38.3869818 39.8774045,38.8346971 40.4296892,38.8346971 C40.6090784,38.8346971 40.7851647,38.7864416 40.9394916,38.6949886 L47.9678681,34.5300248 C48.442994,34.2484687 48.5999134,33.6350567 48.3183573,33.1599308 C48.2327919,33.0155393 48.1122597,32.895007 47.9678681,32.8094417 L40.9394916,28.6444778 C40.4643657,28.3629218 39.8509538,28.5198411 39.5693977,28.994967 C39.4779447,29.149294 39.4296892,29.3253802 39.4296892,29.5047694 Z M12.2955842,67.2600059 C26.2393102,67.7533353 36.6971047,68 43.6689677,68 C50.5880773,68 60.9667417,67.7533353 74.8049609,67.2600059 C82.3928608,67.2600059 86.150551,63.5022268 86.150551,56.0589292 C86.6438807,46.3143872 86.8905452,39.0059806 86.8905452,34.1337095 C86.8905452,29.2020268 86.6438807,21.8045028 86.150551,11.9411374 C86.150551,4.49783236 82.3928608,0.739994137 74.8049609,0.739994137 C60.9667417,0.24666471 50.5880773,0 43.6689677,0 C36.6971047,0 26.2393102,0.24666471 12.2955842,0.739994137 C4.74387008,0.739994137 0.949994137,4.46164665 0.949994137,11.9411374 C0.456664712,21.8045028 0.21,29.2020268 0.21,34.1337095 C0.21,39.0059806 0.456664712,46.3143872 0.949994137,56.0589292 C0.949994137,63.5383608 4.74387008,67.2600059 12.2955842,67.2600059 Z M12.3678817,61.4426752 C8.7545643,61.4426752 6.76731004,59.5276488 6.76731004,55.7698653 C6.27398062,46.1537961 6.02731591,38.9417442 6.02731591,34.1337095 C6.02731591,29.2662583 6.27398062,21.9650815 6.76731004,12.2301791 C6.76731004,8.47241487 8.7545643,6.55738404 12.3678817,6.55738404 C26.2794754,6.06405462 36.7131708,5.81738991 43.6689677,5.81738991 C50.5719618,5.81738991 60.9264531,6.06405462 74.7324415,6.55738404 C78.3095732,6.55738404 80.3334571,8.47241487 80.3334571,12.2301791 C80.8267868,21.9650815 81.0734513,29.2662583 81.0734513,34.1337095 C81.0734513,38.9417442 80.8267868,46.1537961 80.3334571,55.7698653 C80.3334571,59.5276488 78.3095732,61.4426752 74.7324415,61.4426752 C60.9264531,61.9360046 50.5719618,62.1826693 43.6689677,62.1826693 C36.7131708,62.1826693 26.2794754,61.9360046 12.3678817,61.4426752 Z" id="Shape"></path>
                </g>
                <g id="Light-S" transform="translate(620.420000, 0.000000)">
                    <path d="M33.9173696,21.3828217 C33.9173696,19.6144522 36.010587,18.928687 37.5263957,19.8309435 L37.5263957,19.8309435 L58.0978739,31.9934087 C59.577613,32.8956652 59.6136826,34.9888826 58.0978739,35.8550696 L58.0978739,35.8550696 L37.5263957,48.0175348 C35.8662348,49.0280739 33.9173696,48.1979565 33.9173696,46.4656565 L33.9173696,46.4656565 L33.9173696,21.3828217 Z M40.1234783,29.4723806 L40.1234783,37.788489 C40.1234783,38.3407738 40.5711935,38.788489 41.1234783,38.788489 C41.3028674,38.788489 41.4789537,38.7402336 41.6332807,38.6487805 L48.6499972,34.4907263 C49.1251231,34.2091702 49.2820424,33.5957583 49.0004863,33.1206324 C48.914921,32.9762408 48.7943887,32.8557086 48.6499972,32.7701432 L41.6332807,28.612089 C41.1581548,28.3305329 40.5447428,28.4874523 40.2631867,28.9625782 C40.1717337,29.1169051 40.1234783,29.2929914 40.1234783,29.4723806 Z M13.0210435,67.1815017 C26.9484947,67.6742554 37.3940831,67.9206322 44.3578087,67.9206322 C51.2688425,67.9206322 61.6353933,67.6742554 75.4574609,67.1815017 C83.0365043,67.1815017 86.7898087,63.4281087 86.7898087,55.9934987 C87.2825626,46.2603302 87.5289391,38.9604538 87.5289391,34.0938696 C87.5289391,29.167943 87.2825626,21.7790532 86.7898087,11.9272 C86.7898087,4.49258261 83.0365043,0.739130435 75.4574609,0.739130435 C61.6353933,0.246376809 51.2688425,0 44.3578087,0 C37.3940831,0 26.9484947,0.246376809 13.0210435,0.739130435 C5.47814348,0.739130435 1.68869565,4.45643913 1.68869565,11.9272 C1.19594203,21.7790532 0.949565217,29.167943 0.949565217,34.0938696 C0.949565217,38.9604538 1.19594203,46.2603302 1.68869565,55.9934987 C1.68869565,63.4642004 5.47814348,67.1815017 13.0210435,67.1815017 Z M12.4790227,61.7275389 C8.7987475,61.7275389 6.77466773,59.7770254 6.77466773,55.949607 C6.27219649,46.1553438 6.02096087,38.8096464 6.02096087,33.9125148 C6.02096087,28.9548655 6.27219649,21.5183917 6.77466773,11.6030932 C6.77466773,7.77569441 8.7987475,5.82517643 12.4790227,5.82517643 C26.6484102,5.32270518 37.2754508,5.07146957 44.3601446,5.07146957 C51.3910571,5.07146957 61.937426,5.32270518 75.9992511,5.82517643 C79.6426701,5.82517643 81.7040584,7.77569441 81.7040584,11.6030932 C82.2065298,21.5183917 82.4577652,28.9548655 82.4577652,33.9125148 C82.4577652,38.8096464 82.2065298,46.1553438 81.7040584,55.949607 C81.7040584,59.7770254 79.6426701,61.7275389 75.9992511,61.7275389 C61.937426,62.2300101 51.3910571,62.4812457 44.3601446,62.4812457 C37.2754508,62.4812457 26.6484102,62.2300101 12.4790227,61.7275389 Z" id="Shape"></path>
                </g>
                <g id="Thin-S" transform="translate(323.174000, 0.000000)">
                    <path d="M33.8323285,21.4078084 C33.8323285,19.6373724 35.9279919,18.9508058 37.4455718,19.8541167 L58.0410887,32.0307942 C59.5225569,32.934105 59.5586686,35.0297684 58.0410887,35.8969676 L37.4455718,48.0736451 C35.783471,49.0853651 33.8323285,48.2542777 33.8323285,46.5199534 L33.8323285,21.4078084 Z M36.3457186,23.9230038 L36.3457186,44.1564568 C36.3457186,44.7087415 36.7934338,45.1564568 37.3457186,45.1564568 C37.5197455,45.1564568 37.6907598,45.1110415 37.8418575,45.0246999 L55.5461289,34.9079734 C56.0256463,34.6339635 56.1922431,34.0231088 55.9182331,33.5435913 C55.8296438,33.3885601 55.7011602,33.2600764 55.5461289,33.1714871 L37.8418575,23.0547606 C37.3623401,22.7807507 36.7514854,22.9473474 36.4774754,23.4268648 C36.3911339,23.5779625 36.3457186,23.7489768 36.3457186,23.9230038 Z M12.9115842,67.2600059 C26.8553102,67.7533353 37.3131047,68 44.2849677,68 C51.2040773,68 61.5827417,67.7533353 75.4209609,67.2600059 C83.0010381,66.9897778 86.3900216,63.4963635 86.766551,56.0589292 C87.2598807,46.3143872 87.5065452,39.0059806 87.5065452,34.1337095 C87.5065452,29.2020268 87.2598807,21.8045028 86.766551,11.9411374 C86.3945502,4.50355549 83.0010381,1.0102222 75.4209609,0.739994137 C61.5827417,0.24666471 51.2040773,0 44.2849677,0 C37.3131047,0 26.8553102,0.24666471 12.9115842,0.739994137 C5.36753831,1.0069027 1.93980324,4.46739759 1.56599414,11.9411374 C1.07266471,21.8045028 0.826,29.2020268 0.826,34.1337095 C0.826,39.0059806 1.07266471,46.3143872 1.56599414,56.0589292 C1.94435127,63.5324689 5.36753831,66.9930973 12.9115842,67.2600059 Z M10.5240755,64.3312117 C6.63006241,64.1897625 4.6895448,62.2117575 4.48170733,58.0619554 C3.94946201,47.4348405 3.68333936,39.4645043 3.68333936,34.1509468 C3.68333936,28.7717256 3.94946201,20.7028938 4.48170733,9.94445134 C4.68701039,5.79459587 6.63006241,3.81666062 10.5240755,3.67521142 C25.533074,3.13001271 36.7898228,2.85741336 44.2943221,2.85741336 C51.7418533,2.85741336 62.9131502,3.13001271 77.8082127,3.67521142 C81.6675235,3.67521142 83.8510599,5.79159102 83.8510599,9.94445134 C84.3833054,20.7028938 84.6494278,28.7717256 84.6494278,34.1509468 C84.6494278,39.4645043 84.3833054,47.4348405 83.8510599,58.0619554 C83.6432223,62.2117575 81.6631632,64.1901103 77.8082127,64.3312117 C62.9131502,64.8764105 51.7418533,65.1490098 44.2943221,65.1490098 C36.7898228,65.1490098 25.533074,64.8764105 10.5240755,64.3312117 Z" id="Shape"></path>
                </g>
                <g id="Ultralight-S" transform="translate(27.707000, 0.000000)">
                    <path d="M33.2993285,21.4078084 C33.2993285,19.6373724 35.3949919,18.9508058 36.9125718,19.8541167 L57.5080887,32.0307942 C58.9895569,32.934105 59.0256686,35.0297684 57.5080887,35.8969676 L36.9125718,48.0736451 C35.250471,49.0853651 33.2993285,48.2542777 33.2993285,46.5199534 L33.2993285,21.4078084 Z M34.7027274,22.9496584 L34.7027274,44.7948535 C34.7027274,45.6232806 35.3743002,46.2948535 36.2027274,46.2948535 C36.4603326,46.2948535 36.7135967,46.2285107 36.9381192,46.1022168 L56.0900711,35.3292439 C56.8121079,34.9230982 57.0681882,34.0085255 56.6620425,33.2864887 C56.5303029,33.0522848 56.3380681,32.8577701 56.1054337,32.7232783 L36.9534818,21.6510562 C36.2362836,21.2364259 35.3187553,21.4817058 34.9041251,22.198904 C34.7721923,22.4271121 34.7027274,22.6860579 34.7027274,22.9496584 Z M12.3785842,67.2600059 C26.3223102,67.7533353 36.7801047,68 43.7519677,68 C50.6710773,68 61.0497417,67.7533353 74.8879609,67.2600059 C82.4680381,66.9897778 85.8570216,63.4963635 86.233551,56.0589292 C86.7268807,46.3143872 86.9735452,39.0059806 86.9735452,34.1337095 C86.9735452,29.2020268 86.7268807,21.8045028 86.233551,11.9411374 C85.8615502,4.50355549 82.8023462,1.1099912 74.8879609,0.739994137 C65.3825243,0.295615505 50.6710773,0 43.7519677,0 C36.7801047,0 17.6828622,0.369997068 12.3785842,0.739994137 C4.85654701,1.26468981 1.40680324,4.46739759 1.03299414,11.9411374 C0.539664712,21.8045028 0.293,29.2020268 0.293,34.1337095 C0.293,39.0059806 0.539664712,46.3143872 1.03299414,56.0589292 C1.41135127,63.5324689 4.83453831,66.9930973 12.3785842,67.2600059 Z M9.54292671,65.4894811 C6.58295016,64.749487 3.25297655,61.4195133 2.88297948,58.4595368 C2.46714301,55.132845 1.77298827,39.4504149 1.77298827,34.0397303 C1.77298827,28.5621817 2.14298534,14.7998827 2.88297948,9.24992671 C3.22858158,6.65791096 5.68302266,3.31371149 9.54292671,2.58997948 C15.4628798,1.47998827 35.9409822,1.47998827 43.582657,1.47998827 C51.1663225,1.47998827 72.5018415,2.09083922 77.9923843,2.58997948 C82.0623521,2.95997655 84.0126513,6.28341197 84.2823345,9.24992671 C85.0223286,17.3898622 85.3923257,23.3098153 85.3923257,34.0397303 C85.3923257,44.7696453 85.0223286,54.019572 84.2823345,58.4595368 C83.5423404,62.8995016 81.3078378,64.6774236 77.9923843,65.119484 C72.4424283,65.8594782 63.1925016,66.5994723 43.582657,66.5994723 C23.9728124,66.5994723 12.5029033,66.2294752 9.54292671,65.4894811 Z" id="Shape"></path>
                </g>
            </g>
        </g>
    </g>
</svg>