<?xml version="1.0" encoding="UTF-8"?>
<svg width="3300px" height="2200px" viewBox="0 0 3300 2200" version="1.1" xmlns="http://www.w3.org/2000/svg" xmlns:xlink="http://www.w3.org/1999/xlink">
    <title>square.and.arrow.up</title>
    <g id="Page-1" stroke="none" stroke-width="1" fill="none" fill-rule="evenodd">
        <g id="square.and.arrow.up">
            <g id="Notes">
                <rect id="artboard" fill="#FFFFFF" fill-rule="nonzero" x="0" y="0" width="3300" height="2200"></rect>
                <line x1="263" y1="292" x2="3036" y2="292" id="Path" stroke="#000000" stroke-width="0.5"></line>
                <text id="Weight/Scale-Variations" fill="#000000" fill-rule="nonzero" font-family="Helvetica-Bold, Helvetica" font-size="13" font-weight="bold">
                    <tspan x="263" y="322">Weight/Scale Variations</tspan>
                </text>
                <text id="Ultralight" fill="#000000" fill-rule="nonzero" font-family="Helvetica" font-size="13" font-weight="normal">
                    <tspan x="533.711" y="322">Ultralight</tspan>
                </text>
                <text id="Thin" fill="#000000" fill-rule="nonzero" font-family="Helvetica" font-size="13" font-weight="normal">
                    <tspan x="843.422" y="322">Thin</tspan>
                </text>
                <text id="Light" fill="#000000" fill-rule="nonzero" font-family="Helvetica" font-size="13" font-weight="normal">
                    <tspan x="1138.63" y="322">Light</tspan>
                </text>
                <text id="Regular" fill="#000000" fill-rule="nonzero" font-family="Helvetica" font-size="13" font-weight="normal">
                    <tspan x="1426.84" y="322">Regular</tspan>
                </text>
                <text id="Medium" fill="#000000" fill-rule="nonzero" font-family="Helvetica" font-size="13" font-weight="normal">
                    <tspan x="1723.06" y="322">Medium</tspan>
                </text>
                <text id="Semibold" fill="#000000" fill-rule="nonzero" font-family="Helvetica" font-size="13" font-weight="normal">
                    <tspan x="2015.77" y="322">Semibold</tspan>
                </text>
                <text id="Bold" fill="#000000" fill-rule="nonzero" font-family="Helvetica" font-size="13" font-weight="normal">
                    <tspan x="2326.48" y="322">Bold</tspan>
                </text>
                <text id="Heavy" fill="#000000" fill-rule="nonzero" font-family="Helvetica" font-size="13" font-weight="normal">
                    <tspan x="2618.19" y="322">Heavy</tspan>
                </text>
                <text id="Black" fill="#000000" fill-rule="nonzero" font-family="Helvetica" font-size="13" font-weight="normal">
                    <tspan x="2917.4" y="322">Black</tspan>
                </text>
                <line x1="263" y1="1903" x2="3036" y2="1903" id="Path" stroke="#000000" stroke-width="0.5"></line>
                <g id="Group" transform="translate(264.000000, 1918.000000)" fill="#000000" fill-rule="nonzero">
                    <path d="M8.24805,15.830078 C12.5547,15.830078 16.1387,12.25586 16.1387,7.94922 C16.1387,3.6426 12.5449,0.0684 8.23828,0.0684 C3.94141,0.0684 0.36719,3.6426 0.36719,7.94922 C0.36719,12.25586 3.95117,15.830078 8.24805,15.830078 Z M8.24805,14.345703 C4.70312,14.345703 1.87109,11.50391 1.87109,7.94922 C1.87109,4.3945 4.69336,1.5527 8.23828,1.5527 C11.793,1.5527 14.6348,4.3945 14.6445252,7.94922 C14.6543,11.50391 11.8027,14.345703 8.24805,14.345703 Z M8.22852,11.37695 C8.69727,11.37695 8.9707,11.06445 8.9707,10.54688 L8.9707,8.68164 L11.002,8.68164 C11.5,8.68164 11.832,8.42773 11.832,7.95898 C11.832,7.48047 11.5195,7.2168 11.002,7.2168 L8.9707,7.2168 L8.9707,5.18555 C8.9707,4.668 8.69727,4.3457 8.22852,4.3457 C7.75977,4.3457 7.50586,4.6875 7.50586,5.18555 L7.50586,7.2168 L5.49414,7.2168 C4.97656,7.2168 4.64453,7.48047 4.64453,7.95898 C4.64453,8.42773 4.99609,8.68164 5.49414,8.68164 L7.50586,8.68164 L7.50586,10.54688 C7.50586,11.04492 7.75977,11.37695 8.22852,11.37695 Z" id="Shape"></path>
                </g>
                <g id="Group" transform="translate(282.506000, 1915.000000)" fill="#000000" fill-rule="nonzero">
                    <path d="M10.709,20.91016 C16.1582,20.91016 20.6699,16.38867 20.6699,10.94922 C20.6699,5.5 16.1484,0.9883 10.6992,0.9883 C5.25977,0.9883 0.74805,5.5 0.74805,10.94922 C0.74805,16.38867 5.26953,20.91016 10.709,20.91016 Z M10.709,19.25 C6.09961,19.25 2.41797,15.55859 2.41797,10.94922 C2.41797,6.3398 6.08984,2.6484 10.6992,2.6484 C15.3086,2.6484 19,6.3398 19.009819,10.94922 C19.0195,15.55859 15.3184,19.25 10.709,19.25 Z M10.6797,15.33398 C11.207,15.33398 11.5098,14.98242 11.5098,14.40625 L11.5098,11.76953 L14.3223,11.76953 C14.8691,11.76953 15.25,11.48633 15.25,10.96875 C15.25,10.44141 14.8887,10.13867 14.3223,10.13867 L11.5098,10.13867 L11.5098,7.3164 C11.5098,6.75 11.207,6.3887 10.6797,6.3887 C10.1621,6.3887 9.8789,6.7695 9.8789,7.3164 L9.8789,10.13867 L7.07617,10.13867 C6.50977,10.13867 6.13867,10.44141 6.13867,10.96875 C6.13867,11.48633 6.5293,11.76953 7.07617,11.76953 L9.8789,11.76953 L9.8789,14.40625 C9.8789,14.96289 10.1621,15.33398 10.6797,15.33398 Z" id="Shape"></path>
                </g>
                <g id="Group" transform="translate(306.924000, 1913.000000)" fill="#000000" fill-rule="nonzero">
                    <path d="M12.9707,25.66406 C19.9336,25.66406 25.6953,19.9023438 25.6953,12.94922 C25.6953,5.9863 19.9238,0.2246 12.9609,0.2246 C6.00781,0.2246 0.25586,5.9863 0.25586,12.94922 C0.25586,19.9023438 6.01758,25.66406 12.9707,25.66406 Z M12.9707,23.84766 C6.93555,23.84766 2.08203,18.98438 2.08203,12.94922 C2.08203,6.9043 6.92578,2.0508 12.9609,2.0508 C19.0059,2.0508 23.8594,6.9043 23.8691148,12.94922 C23.8789,18.98438 19.0156,23.84766 12.9707,23.84766 Z M12.9414,18.61328 C13.5176,18.61328 13.8594,18.22266 13.8594,17.61719 L13.8594,13.86719 L17.7754,13.86719 C18.3711,13.86719 18.7812,13.53516 18.7812,12.97852 C18.7812,12.40234 18.3906,12.06055 17.7754,12.06055 L13.8594,12.06055 L13.8594,8.1348 C13.8594,7.5195 13.5176,7.1289 12.9414,7.1289 C12.375,7.1289 12.0527,7.5391 12.0527,8.1348 L12.0527,12.06055 L8.1465,12.06055 C7.53125,12.06055 7.13086,12.40234 7.13086,12.97852 C7.13086,13.53516 7.55078,13.86719 8.1465,13.86719 L12.0527,13.86719 L12.0527,17.61719 C12.0527,18.20312 12.375,18.61328 12.9414,18.61328 Z" id="Shape"></path>
                </g>
                <text id="Design-Variations" fill="#000000" fill-rule="nonzero" font-family="Helvetica-Bold, Helvetica" font-size="13" font-weight="bold">
                    <tspan x="263" y="1953">Design Variations</tspan>
                </text>
                <text id="Symbols-are-supported-in-up-to-nine-weights-and-three-scales." fill="#000000" fill-rule="nonzero" font-family="Helvetica" font-size="13" font-weight="normal">
                    <tspan x="263" y="1971">Symbols are supported in up to nine weights and three scales.</tspan>
                </text>
                <text id="For-optimal-layout-with-text-and-other-symbols,-vertically-align" fill="#000000" fill-rule="nonzero" font-family="Helvetica" font-size="13" font-weight="normal">
                    <tspan x="263" y="1989">For optimal layout with text and other symbols, vertically align</tspan>
                </text>
                <text id="symbols-with-the-adjacent-text." fill="#000000" fill-rule="nonzero" font-family="Helvetica" font-size="13" font-weight="normal">
                    <tspan x="263" y="2007">symbols with the adjacent text.</tspan>
                </text>
                <line x1="776" y1="1919" x2="776" y2="1933" id="Path" stroke="#00AEEF" stroke-width="0.5"></line>
                <g id="Group" transform="translate(778.000000, 1918.000000)" fill="#000000" fill-rule="nonzero">
                    <path d="M1.31055,15.126953 C1.82812,15.126953 2.08203,14.9316406 2.26758,14.394531 L3.52734,10.9375 L9.2891,10.9375 L10.5488,14.394531 C10.7344,14.9316406 10.9883,15.126953 11.4961,15.126953 C12.0137,15.126953 12.3457,14.814453 12.3457,14.326172 C12.3457,14.160156 12.3164,14.013672 12.2383,13.79883 L7.6582,1.6113 C7.43359,1.0059 7.0332,0.7129 6.4082,0.7129 C5.80273,0.7129 5.39258,1.0059 5.17773,1.6016 L0.59766,13.80859 C0.51953,14.023438 0.49023,14.169922 0.49023,14.335938 C0.49023,14.824219 0.80273,15.126953 1.31055,15.126953 Z M4.00586,9.46289 L6.37891,2.8906 L6.42773,2.8906 L8.8008,9.46289 L4.00586,9.46289 Z" id="Shape"></path>
                </g>
                <line x1="792.836" y1="1919" x2="792.836" y2="1933" id="Path" stroke="#00AEEF" stroke-width="0.5"></line>
                <text id="Margins" fill="#000000" fill-rule="nonzero" font-family="Helvetica-Bold, Helvetica" font-size="13" font-weight="bold">
                    <tspan x="776" y="1953">Margins</tspan>
                </text>
                <text id="Leading-and-trailing-margins-on-the-left-and-right-side-of-each-symbol" fill="#000000" fill-rule="nonzero" font-family="Helvetica" font-size="13" font-weight="normal">
                    <tspan x="776" y="1971">Leading and trailing margins on the left and right side of each symbol</tspan>
                </text>
                <text id="can-be-adjusted-by-modifying-the-x-location-of-the-margin-guidelines." fill="#000000" fill-rule="nonzero" font-family="Helvetica" font-size="13" font-weight="normal">
                    <tspan x="776" y="1989">can be adjusted by modifying the x-location of the margin guidelines.</tspan>
                </text>
                <text id="Modifications-are-automatically-applied-proportionally-to-all" fill="#000000" fill-rule="nonzero" font-family="Helvetica" font-size="13" font-weight="normal">
                    <tspan x="776" y="2007">Modifications are automatically applied proportionally to all</tspan>
                </text>
                <text id="scales-and-weights." fill="#000000" fill-rule="nonzero" font-family="Helvetica" font-size="13" font-weight="normal">
                    <tspan x="776" y="2025">scales and weights.</tspan>
                </text>
                <g id="Group" transform="translate(1291.000000, 1914.000000)" fill="#000000" fill-rule="nonzero">
                    <path d="M0.8418,20.86523 L2.54102,22.57422 C3.40039,23.44336 4.38672,23.38477 5.31445,22.35938 L15.4902,11.14844 C15.7539,11.23633 16.0273,11.2168 16.3398,11.1582 L17.4043,10.96289 L18.0684,11.63672 L18.0293,12.19336 C17.9902,12.69141 18.1172,13.07227 18.6055,13.55078 L19.3672,14.29297 C19.8457,14.77148 20.4609,14.80078 20.9297,14.33203 L23.8398,11.41211 C24.3086,10.94336 24.2891,10.34766 23.8105,9.86914 L23.0391,9.10742 C22.5605,8.6289 22.1895,8.4727 21.7109,8.5117 L21.1348,8.5605 L20.4902,7.9258 L20.7344,6.8027 C20.8613,6.2363 20.7051,5.7969 20.1191,5.2109 L17.9219,3.0234 C14.582,-0.2969 10.1484,-0.2188 7.25781,2.6719 C6.83789,3.082 6.80859,3.6582 7.04297,4.0488 C7.27734,4.4102 7.73633,4.6445 8.3809,4.4785 C9.8457,4.1367 11.3691,4.0781 12.7949,5.0156 L12.209,6.4707 C12.0137,6.9492 11.9844,7.3496 12.1113,7.7109 L1.04688,18.101562 C0.06055,19.0195312 -0.01758,19.996094 0.8418,20.86523 Z M8.752,3.043 C11.1836,1.2656 14.4746,1.5684 16.7012,3.7949 L19.1328,6.207 C19.3672,6.4414 19.4062,6.627 19.3379,6.9688 L19.0156,8.4531 L20.5195,9.9375 L21.5059,9.87891 C21.7598,9.86914 21.8379,9.88867 22.0332,10.08398 L22.6094,10.66016 L20.168,13.10156 L19.5918,12.52539 C19.3965,12.33008 19.3672,12.25195 19.377,11.98828 L19.4453,11.01172 L17.9512,9.52734 L16.4277,9.78125 C16.1055,9.84961 15.959,9.82031 15.7148,9.58594 L13.7129,7.584 C13.459,7.3496 13.4297,7.1836 13.5859,6.8125 L14.4648,4.7227 C12.9023,3.2676 10.8711,2.6426 8.8398,3.2383 C8.6836,3.2773 8.625,3.1504 8.752,3.043 Z M3.27344,21.3047 L2.10156,20.14258 C1.63281,19.683594 1.74023,19.341797 2.14062,18.9804688 L12.9512,8.8047 L14.416,10.28906 L4.42578,21.27539 C4.07422,21.67578 3.74219,21.77344 3.27344,21.3047 Z" id="Shape"></path>
                </g>
                <text id="Exporting" fill="#000000" fill-rule="nonzero" font-family="Helvetica-Bold, Helvetica" font-size="13" font-weight="bold">
                    <tspan x="1289" y="1953">Exporting</tspan>
                </text>
                <text id="Symbols-should-be-outlined-when-exporting-to-ensure-the" fill="#000000" fill-rule="nonzero" font-family="Helvetica" font-size="13" font-weight="normal">
                    <tspan x="1289" y="1971">Symbols should be outlined when exporting to ensure the</tspan>
                </text>
                <text id="design-is-preserved-when-submitting-to-Xcode." fill="#000000" fill-rule="nonzero" font-family="Helvetica" font-size="13" font-weight="normal">
                    <tspan x="1289" y="1989">design is preserved when submitting to Xcode.</tspan>
                </text>
                <text id="template-version" fill="#000000" fill-rule="nonzero" font-family="Helvetica" font-size="13" font-weight="normal">
                    <tspan x="2952" y="1933">Template v.2.0</tspan>
                </text>
                <text id="Requires-Xcode-12-or-greater" fill="#000000" fill-rule="nonzero" font-family="Helvetica" font-size="13" font-weight="normal">
                    <tspan x="2865" y="1951">Requires Xcode 12 or greater</tspan>
                </text>
                <text id="Generated-from-square.and.arrow.up" fill="#000000" fill-rule="nonzero" font-family="Helvetica" font-size="13" font-weight="normal">
                    <tspan x="2822" y="1969">Generated from square.and.arrow.up</tspan>
                </text>
                <text id="Typeset-at-100-points" fill="#000000" fill-rule="nonzero" font-family="Helvetica" font-size="13" font-weight="normal">
                    <tspan x="2912" y="1987">Typeset at 100 points</tspan>
                </text>
                <text id="Small" fill="#000000" fill-rule="nonzero" font-family="Helvetica" font-size="13" font-weight="normal">
                    <tspan x="263" y="726">Small</tspan>
                </text>
                <text id="Medium" fill="#000000" fill-rule="nonzero" font-family="Helvetica" font-size="13" font-weight="normal">
                    <tspan x="263" y="1156">Medium</tspan>
                </text>
                <text id="Large" fill="#000000" fill-rule="nonzero" font-family="Helvetica" font-size="13" font-weight="normal">
                    <tspan x="263" y="1586">Large</tspan>
                </text>
            </g>
            <g id="Guides" transform="translate(263.000000, 625.000000)">
                <g id="H-reference" transform="translate(76.000000, 0.000000)" fill="#27AAE1" fill-rule="nonzero">
                    <path d="M0.976562,71 L3.66211,71 L12.9883,46.5371 L45.7031,46.5371 L55.0781,71 L57.7148,71 L30.6152,0.541 L28.125,0.541 L0.976562,71 Z M29.2969,3.8613 L29.3945,3.8613 L44.873,44.291 L13.8672,44.291 L29.2969,3.8613 Z" id="Shape"></path>
                </g>
                <line x1="0" y1="71" x2="2773" y2="71" id="Baseline-S" stroke="#27AAE1" stroke-width="0.5"></line>
                <line x1="0" y1="0.541" x2="2773" y2="0.541" id="Capline-S" stroke="#27AAE1" stroke-width="0.5"></line>
                <g id="H-reference" transform="translate(76.000000, 430.000000)" fill="#27AAE1" fill-rule="nonzero">
                    <path d="M0.976562,71 L3.66211,71 L12.9883,46.5371 L45.7031,46.5371 L55.0781,71 L57.7148,71 L30.6152,0.541 L28.125,0.541 L0.976562,71 Z M29.2969,3.8613 L29.3945,3.8613 L44.873,44.291 L13.8672,44.291 L29.2969,3.8613 Z" id="Shape"></path>
                </g>
                <line x1="0" y1="501" x2="2773" y2="501" id="Baseline-M" stroke="#27AAE1" stroke-width="0.5"></line>
                <line x1="0" y1="430.54" x2="2773" y2="430.54" id="Capline-M" stroke="#27AAE1" stroke-width="0.5"></line>
                <g id="H-reference" transform="translate(76.000000, 860.000000)" fill="#27AAE1" fill-rule="nonzero">
                    <path d="M0.976562,71 L3.66211,71 L12.9883,46.5371 L45.7031,46.5371 L55.0781,71 L57.7148,71 L30.6152,0.541 L28.125,0.541 L0.976562,71 Z M29.2969,3.8613 L29.3945,3.8613 L44.873,44.291 L13.8672,44.291 L29.2969,3.8613 Z" id="Shape"></path>
                </g>
                <line x1="0" y1="931" x2="2773" y2="931" id="Baseline-L" stroke="#27AAE1" stroke-width="0.5"></line>
                <line x1="0" y1="860.54" x2="2773" y2="860.54" id="Capline-L" stroke="#27AAE1" stroke-width="0.5"></line>
                <line x1="1131.06" y1="405.79" x2="1131.06" y2="525.12" id="left-margin" stroke="#00AEEF" stroke-width="0.5"></line>
                <line x1="1242.63" y1="405.79" x2="1242.63" y2="525.12" id="right-margin" stroke="#00AEEF" stroke-width="0.5"></line>
            </g>
            <g id="Symbols" transform="translate(498.000000, 633.000000)" fill="#000000">
                <g id="Black-L" transform="translate(2371.760000, 841.000000)">
                    <path d="M63.64,81.68 C43.19,81.68 23.75,81.2 12.57,80.87 C11.87,71.86 11,57.96 11,45.03 C11,32.56 11.81,20.01 12.49,11.71 C24.13,11.42 44.43,11 63.64,11 C82.81,11 103.07,11.42 114.72,11.71 C115.41,20.57 116.27,34.03 116.27,46.18 C116.27,58.38 115.4,71.96 114.71,80.87 C103.53,81.2 84.08,81.68 63.64,81.68 Z M1.94,6.15 C2.21,3.17 4.66,0.91 7.64,0.83 C17.84,0.56 41.44,0 63.64,0 C85.79,0 109.34,0.56 119.57,0.83 C122.58,0.91 125.05,3.22 125.3,6.21 C126.02,14.5 127.27,31.22 127.27,46.18 C127.27,61.18 126.01,78.03 125.3,86.34 C125.04,89.32 122.6,91.62 119.61,91.72 C109.79,92.04 87.4,92.68 63.64,92.68 C39.87,92.68 17.48,92.04 7.66,91.72 C4.67,91.62 2.23,89.32 1.98,86.34 C1.27,77.98 0,60.87 0,45.03 C0,29.49 1.22,13.95 1.94,6.15 Z M54.71,59.21 L54.71,35.54 L74.64,47.53 L54.71,59.21 Z M52.2,21.19 C48.47,18.95 43.71,21.64 43.71,25.99 L43.71,68.63 C43.71,72.96 48.41,75.65 52.14,73.46 L88.05,52.42 C91.72,50.27 91.75,44.98 88.1,42.79 L52.2,21.19 Z" id="Shape"></path>
                </g>
                <g id="Heavy-L" transform="translate(2075.000000, 841.000000)">
                    <path d="M63.64,82.68 C42.62,82.68 22.66,82.18 11.64,81.84 C10.93,72.86 10,58.43 10,45.03 C10,32.06 10.88,19.02 11.57,10.73 C23.04,10.44 43.91,10 63.64,10 C83.33,10 104.16,10.44 115.64,10.73 C116.35,19.58 117.27,33.58 117.27,46.18 C117.27,58.83 116.34,72.95 115.63,81.84 C104.62,82.18 84.65,82.68 63.64,82.68 Z M1.94,6.15 C2.21,3.17 4.66,0.91 7.64,0.83 C17.84,0.56 41.44,0 63.64,0 C85.79,0 109.34,0.56 119.57,0.83 C122.58,0.91 125.05,3.22 125.3,6.21 C126.02,14.5 127.27,31.22 127.27,46.18 C127.27,61.18 126.01,78.03 125.3,86.34 C125.04,89.32 122.6,91.62 119.61,91.72 C109.79,92.04 87.4,92.68 63.64,92.68 C39.87,92.68 17.48,92.04 7.66,91.72 C4.67,91.62 2.23,89.32 1.98,86.34 C1.27,77.98 0,60.87 0,45.03 C0,29.49 1.22,13.95 1.94,6.15 Z M54.21,60.08 L54.21,34.66 L75.62,47.54 L54.21,60.08 Z M51.94,21.62 C48.54,19.58 44.21,22.02 44.21,25.99 L44.21,68.63 C44.21,72.57 48.49,75.02 51.89,73.03 L87.8,51.99 C91.14,50.03 91.16,45.22 87.85,43.22 L51.94,21.62 Z" id="Shape"></path>
                </g>
                <g id="Bold-L" transform="translate(1778.000000, 841.000000)">
                    <path d="M63.64,84.18 C41.72,84.18 20.95,83.63 10.25,83.3 C9.54,74.45 8.5,59.18 8.5,45.03 C8.5,31.29 9.48,17.47 10.19,9.27 C21.32,8.98 43.1,8.5 63.64,8.5 C84.15,8.5 105.88,8.98 117.03,9.27 C117.75,18.01 118.77,32.86 118.77,46.18 C118.77,59.54 117.74,74.52 117.02,83.3 C106.33,83.63 85.56,84.18 63.64,84.18 Z M1.94,6.15 C2.21,3.17 4.66,0.91 7.64,0.83 C17.84,0.56 41.44,0 63.64,0 C85.79,0 109.34,0.56 119.57,0.83 C122.58,0.91 125.05,3.22 125.3,6.21 C126.02,14.5 127.27,31.22 127.27,46.18 C127.27,61.18 126.01,78.03 125.3,86.34 C125.04,89.32 122.6,91.62 119.61,91.72 C109.79,92.04 87.4,92.68 63.64,92.68 C39.87,92.68 17.48,92.04 7.66,91.72 C4.67,91.62 2.23,89.32 1.98,86.34 C1.27,77.98 0,60.87 0,45.03 C0,29.49 1.22,13.95 1.94,6.15 Z M53.46,61.39 L53.46,33.33 L77.09,47.54 L53.46,61.39 Z M51.55,22.26 C48.66,20.52 44.96,22.61 44.96,25.99 L44.96,68.63 C44.96,71.99 48.61,74.08 51.51,72.38 L87.42,51.34 C90.27,49.67 90.29,45.56 87.46,43.86 L51.55,22.26 Z" id="Shape"></path>
                </g>
                <g id="Semibold-L" transform="translate(1482.000000, 841.000000)">
                    <path d="M63.64,84.18 C41.72,84.18 20.95,83.63 10.25,83.3 C9.54,74.45 8.5,59.18 8.5,45.03 C8.5,31.29 9.48,17.47 10.19,9.27 C21.32,8.98 43.1,8.5 63.64,8.5 C84.15,8.5 105.88,8.98 117.03,9.27 C117.75,18.01 118.77,32.86 118.77,46.18 C118.77,59.54 117.74,74.52 117.02,83.3 C106.33,83.63 85.56,84.18 63.64,84.18 Z M1.94,6.15 C2.21,3.17 4.66,0.91 7.64,0.83 C17.84,0.56 41.44,0 63.64,0 C85.79,0 109.34,0.56 119.57,0.83 C122.58,0.91 125.05,3.22 125.3,6.21 C126.02,14.5 127.27,31.22 127.27,46.18 C127.27,61.18 126.01,78.03 125.3,86.34 C125.04,89.32 122.6,91.62 119.61,91.72 C109.79,92.04 87.4,92.68 63.64,92.68 C39.87,92.68 17.48,92.04 7.66,91.72 C4.67,91.62 2.23,89.32 1.98,86.34 C1.27,77.98 0,60.87 0,45.03 C0,29.49 1.22,13.95 1.94,6.15 Z M53.46,61.39 L53.46,33.33 L77.09,47.54 L53.46,61.39 Z M51.55,22.26 C48.66,20.52 44.96,22.61 44.96,25.99 L44.96,68.63 C44.96,71.99 48.61,74.08 51.51,72.38 L87.42,51.34 C90.27,49.67 90.29,45.56 87.46,43.86 L51.55,22.26 Z" id="Shape"></path>
                </g>
                <g id="Medium-L" transform="translate(1184.000000, 841.000000)">
                    <path d="M64.33,84.68 C42.09,84.68 21.04,84.12 10.48,83.79 C9.76,75 8.69,59.44 8.69,45.03 C8.69,31.01 9.71,16.92 10.42,8.78 C21.41,8.5 43.5,8 64.33,8 C85.12,8 107.17,8.49 118.18,8.78 C118.9,17.46 119.96,32.61 119.96,46.18 C119.96,59.79 118.89,75.07 118.17,83.78 C107.62,84.12 86.56,84.68 64.33,84.68 Z M2.63,6.15 C2.9,3.17 5.35,0.91 8.33,0.83 C18.53,0.56 42.13,0 64.33,0 C86.48,0 110.03,0.56 120.26,0.83 C123.27,0.91 125.74,3.22 125.99,6.21 C126.71,14.5 127.96,31.22 127.96,46.18 C127.96,61.18 126.7,78.03 125.99,86.34 C125.73,89.32 123.29,91.62 120.3,91.72 C110.48,92.04 88.09,92.68 64.33,92.68 C40.56,92.68 18.17,92.04 8.35,91.72 C5.36,91.62 2.92,89.32 2.67,86.34 C1.96,77.98 0.69,60.87 0.69,45.03 C0.69,29.49 1.91,13.95 2.63,6.15 Z M53.9,61.82 L53.9,32.89 L78.27,47.55 L53.9,61.82 Z M52.12,22.48 C49.38,20.83 45.9,22.8 45.9,25.99 L45.9,68.63 C45.9,71.8 49.34,73.77 52.07,72.17 L87.98,51.13 C90.67,49.55 90.69,45.68 88.02,44.08 L52.12,22.48 Z" id="Shape"></path>
                </g>
                <g id="Regular-L" transform="translate(888.000000, 841.000000)">
                    <path d="M63.64,85.68 C40.74,85.68 19.1,85.09 8.87,84.76 C8.15,76.15 7,59.98 7,45.03 C7,30.45 8.1,15.8 8.81,7.8 C19.47,7.52 42.22,7 63.64,7 C85.02,7 107.74,7.52 118.41,7.8 C119.13,16.31 120.27,32.09 120.27,46.18 C120.27,60.31 119.12,76.21 118.41,84.76 C108.17,85.09 86.53,85.68 63.64,85.68 Z M1.94,6.15 C2.21,3.17 4.66,0.91 7.64,0.83 C17.84,0.56 41.44,0 63.64,0 C85.79,0 109.34,0.56 119.57,0.83 C122.58,0.91 125.05,3.22 125.3,6.21 C126.02,14.5 127.27,31.22 127.27,46.18 C127.27,61.18 126.01,78.03 125.3,86.34 C125.04,89.32 122.6,91.62 119.61,91.72 C109.79,92.04 87.4,92.68 63.64,92.68 C39.87,92.68 17.48,92.04 7.66,91.72 C4.67,91.62 2.23,89.32 1.98,86.34 C1.27,77.98 0,60.87 0,45.03 C0,29.49 1.22,13.95 1.94,6.15 Z M52.71,62.7 L52.71,32 L78.56,47.55 L52.71,62.7 Z M51.17,22.91 C48.77,21.46 45.71,23.19 45.71,25.99 L45.71,68.63 C45.71,71.41 48.73,73.14 51.13,71.74 L87.04,50.7 C89.4,49.32 89.42,45.91 87.07,44.51 L51.17,22.91 Z" id="Shape"></path>
                </g>
                <g id="Light-L" transform="translate(591.000000, 841.000000)">
                    <path d="M6.96,85.91 C6.25,77.59 5,60.66 5,45.03 C5,29.72 6.2,14.35 6.91,6.61 C6.95,6.19 7.29,5.84 7.78,5.83 C17.96,5.56 41.51,5 63.64,5 C85.73,5 109.22,5.56 119.44,5.83 C119.93,5.84 120.28,6.2 120.32,6.64 C121.03,14.89 122.27,31.44 122.27,46.18 C122.27,60.96 121.02,77.64 120.32,85.91 C120.28,86.36 119.92,86.71 119.45,86.72 C109.65,87.04 87.32,87.68 63.64,87.68 C39.95,87.68 17.62,87.04 7.82,86.72 C7.35,86.71 7,86.36 6.96,85.91 Z M1.94,6.15 C2.21,3.17 4.66,0.91 7.64,0.83 C17.84,0.56 41.44,0 63.64,0 C85.79,0 109.34,0.56 119.57,0.83 C122.58,0.91 125.05,3.22 125.3,6.21 C126.02,14.5 127.27,31.22 127.27,46.18 C127.27,61.18 126.01,78.03 125.3,86.34 C125.04,89.32 122.6,91.62 119.61,91.72 C109.79,92.04 87.4,92.68 63.64,92.68 C39.87,92.68 17.48,92.04 7.66,91.72 C4.67,91.62 2.23,89.32 1.98,86.34 C1.27,77.98 0,60.87 0,45.03 C0,29.49 1.22,13.95 1.94,6.15 Z M51.71,64.44 L51.71,30.24 L80.52,47.56 L51.71,64.44 Z M50.65,23.76 C48.92,22.72 46.71,23.97 46.71,25.99 L46.71,68.63 C46.71,70.64 48.89,71.89 50.63,70.87 L86.53,49.83 C88.24,48.84 88.25,46.38 86.56,45.36 L50.65,23.76 Z" id="Shape"></path>
                </g>
                <g id="Thin-L" transform="translate(295.000000, 841.000000)">
                    <path d="M4.966,86.08 C4.257,77.75 3,60.74 3,45.03 C3,29.63 4.209,14.19 4.923,6.42 C5.055,4.98 6.233,3.87 7.722,3.83 C17.915,3.56 41.479,3 63.636,3 C85.752,3 109.27,3.56 119.494,3.83 C120.989,3.87 122.188,5 122.314,6.47 C123.025,14.73 124.272,31.35 124.272,46.18 C124.272,61.05 123.018,77.8 122.309,86.08 C122.183,87.54 120.995,88.67 119.514,88.72 C109.71,89.04 87.35,89.68 63.636,89.68 C39.921,89.68 17.562,89.04 7.758,88.72 C6.277,88.67 5.09,87.54 4.966,86.08 Z M1.936,6.15 C2.209,3.17 4.655,0.91 7.641,0.83 C17.842,0.56 41.438,0 63.636,0 C85.793,0 109.343,0.56 119.574,0.83 C122.583,0.91 125.045,3.22 125.303,6.21 C126.016,14.5 127.272,31.22 127.272,46.18 C127.272,61.18 126.009,78.03 125.298,86.34 C125.042,89.32 122.604,91.62 119.612,91.72 C109.794,92.04 87.397,92.68 63.636,92.68 C39.875,92.68 17.478,92.04 7.66,91.72 C4.668,91.62 2.23,89.32 1.976,86.34 C1.265,77.98 0,60.87 0,45.03 C0,29.49 1.218,13.95 1.936,6.15 Z M50.712,66.19 L50.712,28.47 L82.476,47.57 L50.712,66.19 Z M50.137,24.62 C49.07,23.98 47.712,24.75 47.712,25.99 L47.712,68.63 C47.712,69.87 49.054,70.63 50.121,70.01 L86.027,48.97 C87.075,48.36 87.083,46.85 86.043,46.22 L50.137,24.62 Z" id="Shape"></path>
                </g>
                <g id="Ultralight-L" transform="translate(0.205000, 841.000000)">
                    <path d="M3.969,86.17 C3.26,77.82 2,60.79 2,45.03 C2,29.58 3.212,14.11 3.927,6.33 C4.107,4.38 5.707,2.88 7.695,2.83 C17.89,2.56 41.465,2 63.636,2 C85.766,2 109.294,2.56 119.52,2.83 C121.52,2.88 123.141,4.41 123.311,6.39 C124.022,14.65 125.272,31.3 125.272,46.18 C125.272,61.09 124.015,77.88 123.305,86.17 C123.136,88.14 121.531,89.66 119.546,89.72 C109.738,90.04 87.366,90.68 63.636,90.68 C39.906,90.68 17.534,90.04 7.725,89.72 C5.741,89.66 4.136,88.14 3.969,86.17 Z M1.936,6.15 C2.209,3.17 4.655,0.91 7.641,0.83 C17.842,0.56 41.438,0 63.636,0 C85.793,0 109.343,0.56 119.574,0.83 C122.583,0.91 125.045,3.22 125.303,6.21 C126.016,14.5 127.272,31.22 127.272,46.18 C127.272,61.18 126.009,78.03 125.298,86.34 C125.042,89.32 122.604,91.62 119.612,91.72 C109.794,92.04 87.397,92.68 63.636,92.68 C39.875,92.68 17.478,92.04 7.66,91.72 C4.668,91.62 2.23,89.32 1.976,86.34 C1.265,77.98 0,60.87 0,45.03 C0,29.49 1.218,13.95 1.936,6.15 Z M50.212,67.06 L50.212,27.58 L83.455,47.58 L50.212,67.06 Z M49.879,25.05 C49.146,24.61 48.212,25.14 48.212,25.99 L48.212,68.63 C48.212,69.48 49.135,70.01 49.868,69.58 L85.774,48.54 C86.494,48.12 86.501,47.08 85.785,46.65 L49.879,25.05 Z" id="Shape"></path>
                </g>
                <g id="Black-M" transform="translate(2386.800000, 422.000000)">
                    <path d="M48.95,60 C34.65,60 20.99,59.7 12.22,59.45 C11.73,52.64 11.2,43.26 11.2,34.5 C11.2,26.13 11.68,17.7 12.15,11.49 C21.28,11.27 35.47,11 48.95,11 C62.4,11 76.56,11.27 85.69,11.49 C86.18,18.15 86.7,27.17 86.7,35.38 C86.7,43.63 86.18,52.74 85.68,59.45 C76.91,59.7 63.25,60 48.95,60 Z M1.57,5.93 C1.84,2.95 4.29,0.68 7.28,0.61 C15.64,0.39 32.78,0 48.95,0 C65.09,0 82.19,0.39 90.57,0.6 C93.58,0.68 96.05,2.98 96.3,5.98 C96.85,12.65 97.7,24.61 97.7,35.38 C97.7,46.18 96.84,58.24 96.29,64.93 C96.04,67.92 93.61,70.21 90.62,70.3 C82.57,70.56 66.23,71 48.95,71 C31.67,71 15.33,70.56 7.28,70.3 C4.29,70.21 1.86,67.92 1.61,64.93 C1.06,58.18 0.2,45.91 0.2,34.5 C0.2,23.36 1.02,12.21 1.57,5.93 Z M43.4,43.11 L43.4,29.5 L54.86,36.4 L43.4,43.11 Z M40.89,15.15 C37.15,12.91 32.4,15.6 32.4,19.95 L32.4,52.53 C32.4,56.86 37.1,59.55 40.83,57.37 L68.27,41.29 C71.94,39.14 71.97,33.85 68.32,31.66 L40.89,15.15 Z" id="Shape"></path>
                </g>
                <g id="Heavy-M" transform="translate(2089.220000, 422.000000)">
                    <path d="M49.53,61 C34.72,61 20.59,60.67 11.87,60.42 C11.36,53.54 10.78,43.69 10.78,34.5 C10.78,25.69 11.31,16.81 11.81,10.51 C20.89,10.29 35.58,10 49.53,10 C63.45,10 78.12,10.29 87.2,10.51 C87.71,17.25 88.28,26.76 88.28,35.38 C88.28,44.04 87.7,53.64 87.19,60.42 C78.47,60.67 64.34,61 49.53,61 Z M2.15,5.93 C2.42,2.95 4.87,0.68 7.86,0.61 C16.22,0.39 33.36,0 49.53,0 C65.67,0 82.77,0.39 91.15,0.6 C94.16,0.68 96.63,2.98 96.88,5.98 C97.43,12.65 98.28,24.61 98.28,35.38 C98.28,46.18 97.42,58.24 96.87,64.93 C96.62,67.92 94.19,70.21 91.2,70.3 C83.15,70.56 66.81,71 49.53,71 C32.25,71 15.91,70.56 7.86,70.3 C4.87,70.21 2.44,67.92 2.19,64.93 C1.64,58.18 0.78,45.91 0.78,34.5 C0.78,23.36 1.6,12.21 2.15,5.93 Z M43.48,43.98 L43.48,28.62 L56.42,36.4 L43.48,43.98 Z M41.21,15.58 C37.81,13.54 33.48,15.99 33.48,19.95 L33.48,52.53 C33.48,56.47 37.76,58.93 41.16,56.93 L68.6,40.86 C71.94,38.9 71.96,34.08 68.65,32.09 L41.21,15.58 Z" id="Shape"></path>
                </g>
                <g id="Bold-M" transform="translate(1792.800000, 422.000000)">
                    <path d="M48.95,61.5 C33.88,61.5 19.51,61.16 10.83,60.91 C10.31,54.01 9.7,43.91 9.7,34.5 C9.7,25.46 10.26,16.35 10.76,10.02 C19.8,9.8 34.77,9.5 48.95,9.5 C63.11,9.5 78.04,9.8 87.09,10.02 C87.6,16.79 88.2,26.55 88.2,35.38 C88.2,44.25 87.6,54.09 87.08,60.91 C78.39,61.16 64.03,61.5 48.95,61.5 Z M1.57,5.93 C1.84,2.95 4.29,0.68 7.28,0.61 C15.64,0.39 32.78,0 48.95,0 C65.09,0 82.19,0.39 90.57,0.6 C93.58,0.68 96.05,2.98 96.3,5.98 C96.85,12.65 97.7,24.61 97.7,35.38 C97.7,46.18 96.84,58.24 96.29,64.93 C96.04,67.92 93.61,70.21 90.62,70.3 C82.57,70.56 66.23,71 48.95,71 C31.67,71 15.33,70.56 7.28,70.3 C4.29,70.21 1.86,67.92 1.61,64.93 C1.06,58.18 0.2,45.91 0.2,34.5 C0.2,23.36 1.02,12.21 1.57,5.93 Z M42.65,44.42 L42.65,28.18 L56.33,36.4 L42.65,44.42 Z M40.5,15.8 C37.27,13.85 33.15,16.18 33.15,19.95 L33.15,52.53 C33.15,56.28 37.22,58.61 40.45,56.72 L67.89,40.64 C71.07,38.78 71.09,34.2 67.94,32.3 L40.5,15.8 Z" id="Shape"></path>
                </g>
                <g id="Semibold-M" transform="translate(1496.970000, 422.000000)">
                    <path d="M48.78,62.5 C33.16,62.5 18.3,62.14 9.73,61.88 C9.19,54.97 8.53,44.36 8.53,34.5 C8.53,24.98 9.15,15.41 9.67,9.04 C18.6,8.82 34.1,8.5 48.78,8.5 C63.43,8.5 78.91,8.82 87.84,9.04 C88.38,15.84 89.03,26.11 89.03,35.38 C89.03,44.68 88.37,55.04 87.84,61.88 C79.26,62.14 64.4,62.5 48.78,62.5 Z M1.4,5.93 C1.67,2.95 4.12,0.68 7.11,0.61 C15.47,0.39 32.61,0 48.78,0 C64.92,0 82.02,0.39 90.4,0.6 C93.41,0.68 95.88,2.98 96.13,5.98 C96.68,12.65 97.53,24.61 97.53,35.38 C97.53,46.18 96.67,58.24 96.12,64.93 C95.87,67.92 93.44,70.21 90.45,70.3 C82.4,70.56 66.06,71 48.78,71 C31.5,71 15.16,70.56 7.11,70.3 C4.12,70.21 1.69,67.92 1.44,64.93 C0.89,58.18 0.03,45.91 0.03,34.5 C0.03,23.36 0.85,12.21 1.4,5.93 Z M41.98,45.29 L41.98,27.29 L57.14,36.41 L41.98,45.29 Z M40.07,16.22 C37.17,14.48 33.48,16.57 33.48,19.95 L33.48,52.53 C33.48,55.9 37.13,57.99 40.03,56.29 L67.47,40.21 C70.32,38.54 70.34,34.43 67.51,32.73 L40.07,16.22 Z" id="Shape"></path>
                </g>
                <g id="Medium-M" transform="translate(1199.910000, 422.000000)">
                    <path d="M48.84,63 C32.94,63 17.83,62.62 9.32,62.37 C8.78,55.46 8.09,44.6 8.09,34.5 C8.09,24.74 8.74,14.92 9.27,8.55 C18.12,8.33 33.91,8 48.84,8 C63.75,8 79.51,8.33 88.37,8.55 C88.91,15.35 89.59,25.89 89.59,35.38 C89.59,44.9 88.9,55.53 88.36,62.37 C79.86,62.62 64.74,63 48.84,63 Z M1.46,5.93 C1.73,2.95 4.18,0.68 7.17,0.61 C15.53,0.39 32.67,0 48.84,0 C64.98,0 82.08,0.39 90.46,0.6 C93.47,0.68 95.94,2.98 96.19,5.98 C96.74,12.65 97.59,24.61 97.59,35.38 C97.59,46.18 96.73,58.24 96.18,64.93 C95.93,67.92 93.5,70.21 90.51,70.3 C82.46,70.56 66.12,71 48.84,71 C31.56,71 15.22,70.56 7.17,70.3 C4.18,70.21 1.75,67.92 1.5,64.93 C0.95,58.18 0.09,45.91 0.09,34.5 C0.09,23.36 0.91,12.21 1.46,5.93 Z M41.79,45.73 L41.79,26.85 L57.69,36.41 L41.79,45.73 Z M40,16.44 C37.27,14.8 33.79,16.76 33.79,19.95 L33.79,52.53 C33.79,55.7 37.23,57.67 39.96,56.07 L67.4,40 C70.09,38.42 70.11,34.55 67.44,32.94 L40,16.44 Z" id="Shape"></path>
                </g>
                <g id="Regular-M" transform="translate(902.060000, 422.000000)">
                    <path d="M49.69,64 C33.2,64 17.56,63.6 9.25,63.34 C8.7,56.5 7.94,45.08 7.94,34.5 C7.94,24.23 8.66,13.91 9.2,7.58 C17.85,7.36 34.23,7 49.69,7 C65.13,7 81.48,7.36 90.14,7.58 C90.69,14.33 91.44,25.42 91.44,35.38 C91.44,45.37 90.68,56.56 90.14,63.34 C81.83,63.6 66.18,64 49.69,64 Z M2.31,5.93 C2.58,2.95 5.03,0.68 8.02,0.61 C16.38,0.39 33.52,0 49.69,0 C65.83,0 82.93,0.39 91.31,0.6 C94.32,0.68 96.79,2.98 97.04,5.98 C97.59,12.65 98.44,24.61 98.44,35.38 C98.44,46.18 97.58,58.24 97.03,64.93 C96.78,67.92 94.35,70.21 91.36,70.3 C83.31,70.56 66.97,71 49.69,71 C32.41,71 16.07,70.56 8.02,70.3 C5.03,70.21 2.6,67.92 2.35,64.93 C1.8,58.18 0.94,45.91 0.94,34.5 C0.94,23.36 1.76,12.21 2.31,5.93 Z M42.14,46.6 L42.14,25.97 L59.52,36.42 L42.14,46.6 Z M40.6,16.87 C38.2,15.42 35.14,17.15 35.14,19.95 L35.14,52.53 C35.14,55.32 38.16,57.05 40.56,55.64 L68,39.56 C70.36,38.18 70.37,34.78 68.03,33.37 L40.6,16.87 Z" id="Shape"></path>
                </g>
                <g id="Light-M" transform="translate(605.180000, 422.000000)">
                    <path d="M7.22,64.52 C6.66,57.82 5.82,45.71 5.82,34.5 C5.82,23.57 6.62,12.59 7.17,6.37 C7.21,5.97 7.54,5.62 8.03,5.6 C16.38,5.39 33.47,5 49.57,5 C65.64,5 82.69,5.38 91.06,5.6 C91.55,5.62 91.9,5.97 91.93,6.4 C92.48,13.03 93.32,24.82 93.32,35.38 C93.32,45.97 92.48,57.87 91.93,64.52 C91.89,64.95 91.55,65.29 91.08,65.31 C83.06,65.56 66.78,66 49.57,66 C32.36,66 16.08,65.56 8.06,65.31 C7.59,65.29 7.25,64.95 7.22,64.52 Z M2.19,5.93 C2.46,2.95 4.91,0.68 7.9,0.61 C16.26,0.39 33.4,0 49.57,0 C65.71,0 82.81,0.39 91.19,0.6 C94.2,0.68 96.67,2.98 96.92,5.98 C97.47,12.65 98.32,24.61 98.32,35.38 C98.32,46.18 97.46,58.24 96.91,64.93 C96.66,67.92 94.23,70.21 91.24,70.3 C83.19,70.56 66.85,71 49.57,71 C32.29,71 15.95,70.56 7.9,70.3 C4.91,70.21 2.48,67.92 2.23,64.93 C1.68,58.18 0.82,45.91 0.82,34.5 C0.82,23.36 1.64,12.21 2.19,5.93 Z M41.02,48.35 L41.02,24.2 L61.36,36.43 L41.02,48.35 Z M39.96,17.72 C38.23,16.68 36.02,17.93 36.02,19.95 L36.02,52.53 C36.02,54.54 38.2,55.79 39.93,54.78 L67.37,38.7 C69.07,37.7 69.09,35.25 67.4,34.23 L39.96,17.72 Z" id="Shape"></path>
                </g>
                <g id="Thin-M" transform="translate(309.565000, 423.000000)">
                    <path d="M4.838,64.69 C4.285,57.97 3.435,45.79 3.435,34.5 C3.435,23.48 4.244,12.44 4.796,6.19 C4.923,4.76 6.103,3.64 7.592,3.6 C15.948,3.39 33.055,3 49.185,3 C65.282,3 82.351,3.38 90.726,3.6 C92.227,3.64 93.42,4.78 93.541,6.23 C94.094,12.88 94.935,24.73 94.935,35.38 C94.935,46.05 94.088,58.02 93.535,64.68 C93.414,66.14 92.238,67.26 90.757,67.31 C82.726,67.56 66.422,68 49.185,68 C31.948,68 15.644,67.56 7.613,67.31 C6.132,67.26 4.957,66.14 4.838,64.69 Z M1.808,5.93 C2.071,2.95 4.528,0.68 7.514,0.61 C15.878,0.39 33.016,0 49.185,0 C65.321,0 82.421,0.39 90.804,0.6 C93.813,0.68 96.28,2.98 96.53,5.98 C97.086,12.65 97.935,24.61 97.935,35.38 C97.935,46.18 97.08,58.24 96.525,64.93 C96.277,67.92 93.844,70.21 90.852,70.3 C82.806,70.56 66.467,71 49.185,71 C31.903,71 15.564,70.56 7.518,70.3 C4.526,70.21 2.093,67.92 1.848,64.93 C1.293,58.18 0.435,45.91 0.435,34.5 C0.435,23.36 1.253,12.21 1.808,5.93 Z M39.635,50.09 L39.635,22.43 L62.93,36.44 L39.635,50.09 Z M39.06,18.58 C37.994,17.94 36.635,18.71 36.635,19.95 L36.635,52.53 C36.635,53.77 37.978,54.54 39.044,53.91 L66.482,37.84 C67.529,37.22 67.538,35.71 66.497,35.09 L39.06,18.58 Z" id="Shape"></path>
                </g>
                <g id="Ultralight-M" transform="translate(12.415000, 422.000000)">
                    <path d="M3.991,64.77 C3.437,58.04 2.585,45.83 2.585,34.5 C2.585,23.44 3.397,12.36 3.95,6.1 C4.122,4.16 5.728,2.66 7.716,2.6 C16.074,2.39 33.192,2 49.335,2 C65.445,2 82.524,2.39 90.902,2.6 C92.906,2.66 94.523,4.18 94.687,6.15 C95.241,12.8 96.085,24.69 96.085,35.38 C96.085,46.1 95.235,58.09 94.681,64.77 C94.519,66.73 92.924,68.24 90.938,68.31 C82.902,68.56 66.587,69 49.335,69 C32.083,69 15.768,68.56 7.732,68.31 C5.746,68.24 4.153,66.73 3.991,64.77 Z M1.958,5.93 C2.221,2.95 4.678,0.68 7.664,0.61 C16.028,0.39 33.166,0 49.335,0 C65.471,0 82.571,0.39 90.954,0.6 C93.963,0.68 96.43,2.98 96.68,5.98 C97.236,12.65 98.085,24.61 98.085,35.38 C98.085,46.18 97.23,58.24 96.675,64.93 C96.427,67.92 93.994,70.21 91.002,70.3 C82.956,70.56 66.617,71 49.335,71 C32.053,71 15.714,70.56 7.668,70.3 C4.676,70.21 2.243,67.92 1.998,64.93 C1.443,58.18 0.585,45.91 0.585,34.5 C0.585,23.36 1.403,12.21 1.958,5.93 Z M39.285,50.96 L39.285,21.54 L64.06,36.45 L39.285,50.96 Z M38.952,19.01 C38.219,18.57 37.285,19.1 37.285,19.95 L37.285,52.53 C37.285,53.38 38.208,53.91 38.941,53.48 L66.379,37.41 C67.099,36.98 67.105,35.95 66.39,35.52 L38.952,19.01 Z" id="Shape"></path>
                </g>
                <g id="Black-S" transform="translate(2396.990000, 0.000000)">
                    <path d="M27.51,45.931 C21.06,45.853 15.21,45.72 10.73,45.598 C10.37,40.37 10.01,33.578 10.01,27.211 C10.01,21.18 10.33,15.097 10.67,10.356 C17.87,10.192 28.42,10 38.46,10 C48.48,10 59.01,10.191 66.21,10.355 C66.56,15.451 66.91,21.958 66.91,27.901 C66.91,33.884 66.56,40.463 66.2,45.598 C59.28,45.786 49.09,46 38.46,46 C36.31,46 34.18,45.991 32.1,45.976 C32.21,45.921 32.32,45.862 32.42,45.799 L54,33.155 C57.34,31.198 57.37,26.38 54.05,24.385 L32.47,11.404 C29.08,9.359 24.75,11.808 24.75,15.774 L24.75,41.399 C24.75,43.454 25.91,45.105 27.51,45.931 Z M1,5.769 C1.25,2.793 3.7,0.525 6.69,0.449 C13.61,0.274 26.38,0 38.46,0 C50.51,0 63.25,0.273 70.18,0.448 C73.19,0.524 75.65,2.829 75.89,5.83 C76.33,11.237 76.91,19.978 76.91,27.901 C76.91,35.86 76.32,44.682 75.89,50.112 C75.65,53.096 73.22,55.394 70.22,55.486 C63.56,55.69 51.34,56 38.46,56 C25.58,56 13.36,55.69 6.7,55.486 C3.71,55.394 1.27,53.097 1.04,50.113 C0.6,44.626 0.01,35.623 0.01,27.211 C0.01,19.036 0.57,10.86 1,5.769 Z M34.75,32.848 L34.75,24.44 L41.83,28.7 L34.75,32.848 Z" id="Shape"></path>
                </g>
                <g id="Heavy-S" transform="translate(2099.060000, 0.000000)">
                    <path d="M39.39,47 C28.28,47 17.65,46.767 10.72,46.573 C10.34,41.227 9.94,33.983 9.94,27.211 C9.94,20.757 10.31,14.249 10.67,9.378 C17.88,9.209 28.91,9 39.39,9 C49.85,9 60.86,9.208 68.07,9.377 C68.45,14.604 68.84,21.567 68.84,27.901 C68.84,34.274 68.44,41.309 68.06,46.573 C61.14,46.767 50.51,47 39.39,47 Z M1.93,5.769 C2.18,2.793 4.63,0.525 7.62,0.449 C14.54,0.274 27.31,0 39.39,0 C51.44,0 64.18,0.273 71.11,0.448 C74.12,0.524 76.58,2.829 76.82,5.83 C77.26,11.237 77.84,19.978 77.84,27.901 C77.84,35.86 77.25,44.682 76.82,50.112 C76.58,53.096 74.15,55.394 71.15,55.486 C64.49,55.69 52.27,56 39.39,56 C26.51,56 14.29,55.69 7.63,55.486 C4.64,55.394 2.2,53.097 1.97,50.113 C1.53,44.626 0.94,35.623 0.94,27.211 C0.94,19.036 1.5,10.86 1.93,5.769 Z M35.18,33.721 L35.18,23.556 L43.74,28.705 L35.18,33.721 Z M33.15,11.833 C30.08,9.988 26.18,12.196 26.18,15.774 L26.18,41.399 C26.18,44.953 30.03,47.164 33.1,45.367 L54.68,32.724 C57.69,30.959 57.72,26.613 54.72,24.813 L33.15,11.833 Z" id="Shape"></path>
                </g>
                <g id="Bold-S" transform="translate(1804.230000, 0.000000)">
                    <path d="M39.22,47 C28.11,47 17.48,46.767 10.55,46.573 C10.17,41.227 9.77,33.983 9.77,27.211 C9.77,20.757 10.14,14.249 10.5,9.378 C17.71,9.209 28.74,9 39.22,9 C49.68,9 60.69,9.208 67.9,9.377 C68.28,14.604 68.67,21.567 68.67,27.901 C68.67,34.274 68.27,41.309 67.89,46.573 C60.97,46.767 50.34,47 39.22,47 Z M1.76,5.769 C2.01,2.793 4.46,0.525 7.45,0.449 C14.37,0.274 27.14,0 39.22,0 C51.27,0 64.01,0.273 70.94,0.448 C73.95,0.524 76.41,2.829 76.65,5.83 C77.09,11.237 77.67,19.978 77.67,27.901 C77.67,35.86 77.08,44.682 76.65,50.112 C76.41,53.096 73.98,55.394 70.98,55.486 C64.32,55.69 52.1,56 39.22,56 C26.34,56 14.12,55.69 7.46,55.486 C4.47,55.394 2.03,53.097 1.8,50.113 C1.36,44.626 0.77,35.623 0.77,27.211 C0.77,19.036 1.33,10.86 1.76,5.769 Z M35.01,33.721 L35.01,23.556 L43.57,28.705 L35.01,33.721 Z M32.98,11.833 C29.91,9.988 26.01,12.196 26.01,15.774 L26.01,41.399 C26.01,44.953 29.86,47.164 32.93,45.367 L54.51,32.724 C57.52,30.959 57.55,26.613 54.55,24.813 L32.98,11.833 Z" id="Shape"></path>
                </g>
                <g id="Semibold-S" transform="translate(1506.100000, 0.000000)">
                    <path d="M39.35,47.5 C27.99,47.5 17.13,47.256 10.22,47.06 C9.83,41.668 9.4,34.192 9.4,27.211 C9.4,20.539 9.79,13.813 10.17,8.888 C17.36,8.718 28.64,8.5 39.35,8.5 C50.04,8.5 61.3,8.717 68.49,8.887 C68.88,14.167 69.3,21.365 69.3,27.901 C69.3,34.474 68.88,41.745 68.49,47.06 C61.57,47.256 50.72,47.5 39.35,47.5 Z M1.89,5.769 C2.14,2.793 4.59,0.525 7.58,0.449 C14.5,0.274 27.27,0 39.35,0 C51.4,0 64.14,0.273 71.07,0.448 C74.08,0.524 76.54,2.829 76.78,5.83 C77.22,11.237 77.8,19.978 77.8,27.901 C77.8,35.86 77.21,44.682 76.78,50.112 C76.54,53.096 74.11,55.394 71.11,55.486 C64.45,55.69 52.23,56 39.35,56 C26.47,56 14.25,55.69 7.59,55.486 C4.6,55.394 2.16,53.097 1.93,50.113 C1.49,44.626 0.9,35.623 0.9,27.211 C0.9,19.036 1.46,10.86 1.89,5.769 Z M34.89,34.157 L34.89,23.114 L44.18,28.708 L34.89,34.157 Z M32.98,12.047 C30.08,10.303 26.39,12.391 26.39,15.774 L26.39,41.399 C26.39,44.76 30.03,46.851 32.93,45.152 L54.51,32.508 C57.36,30.839 57.39,26.729 54.56,25.027 L32.98,12.047 Z" id="Shape"></path>
                </g>
                <g id="Medium-S" transform="translate(1209.850000, 0.000000)">
                    <path d="M38.6,48 C26.98,48 15.89,47.745 9,47.547 C8.6,42.12 8.15,34.405 8.15,27.211 C8.15,20.316 8.56,13.367 8.95,8.399 C16.12,8.227 27.66,8 38.6,8 C49.52,8 61.04,8.226 68.21,8.398 C68.61,13.72 69.05,21.16 69.05,27.901 C69.05,34.679 68.6,42.192 68.2,47.546 C61.31,47.745 50.22,48 38.6,48 Z M1.14,5.769 C1.39,2.793 3.84,0.525 6.83,0.449 C13.75,0.274 26.52,0 38.6,0 C50.65,0 63.39,0.273 70.32,0.448 C73.33,0.524 75.79,2.829 76.03,5.83 C76.47,11.237 77.05,19.978 77.05,27.901 C77.05,35.86 76.46,44.682 76.03,50.112 C75.79,53.096 73.36,55.394 70.36,55.486 C63.7,55.69 51.48,56 38.6,56 C25.72,56 13.5,55.69 6.84,55.486 C3.85,55.394 1.41,53.097 1.18,50.113 C0.74,44.626 0.15,35.623 0.15,27.211 C0.15,19.036 0.71,10.86 1.14,5.769 Z M33.89,34.593 L33.89,22.672 L43.92,28.711 L33.89,34.593 Z M32.1,12.261 C29.37,10.617 25.89,12.585 25.89,15.774 L25.89,41.399 C25.89,44.566 29.32,46.538 32.06,44.936 L53.64,32.292 C56.32,30.719 56.34,26.846 53.68,25.242 L32.1,12.261 Z" id="Shape"></path>
                </g>
                <g id="Regular-S" transform="translate(913.730000, 0.000000)">
                    <path d="M38.72,49 C26.57,49 15,48.722 8.19,48.52 C7.78,43.058 7.27,34.848 7.27,27.211 C7.27,19.853 7.74,12.442 8.15,7.422 C15.23,7.247 27.29,7 38.72,7 C50.13,7 62.17,7.246 69.26,7.421 C69.67,12.791 70.17,20.733 70.17,27.901 C70.17,35.104 69.67,43.119 69.25,48.52 C62.45,48.722 50.88,49 38.72,49 Z M1.26,5.769 C1.51,2.793 3.96,0.525 6.95,0.449 C13.87,0.274 26.64,0 38.72,0 C50.77,0 63.51,0.273 70.44,0.448 C73.45,0.524 75.91,2.829 76.15,5.83 C76.59,11.237 77.17,19.978 77.17,27.901 C77.17,35.86 76.58,44.682 76.15,50.112 C75.91,53.096 73.48,55.394 70.48,55.486 C63.82,55.69 51.6,56 38.72,56 C25.84,56 13.62,55.69 6.96,55.486 C3.97,55.394 1.53,53.097 1.3,50.113 C0.86,44.626 0.27,35.623 0.27,27.211 C0.27,19.036 0.83,10.86 1.26,5.769 Z M33.51,35.466 L33.51,21.787 L45.02,28.716 L33.51,35.466 Z M31.96,12.689 C29.56,11.246 26.51,12.974 26.51,15.774 L26.51,41.399 C26.51,44.18 29.53,45.911 31.93,44.505 L53.5,31.861 C55.86,30.48 55.88,27.079 53.54,25.67 L31.96,12.689 Z" id="Shape"></path>
                </g>
                <g id="Light-S" transform="translate(616.750000, 0.000000)">
                    <path d="M6.26,49.718 C5.83,44.279 5.25,35.428 5.25,27.211 C5.25,19.235 5.8,11.216 6.22,6.191 C6.25,5.804 6.57,5.46 7.05,5.448 C13.96,5.273 26.68,5 38.7,5 C50.69,5 63.38,5.272 70.29,5.446 C70.78,5.459 71.12,5.81 71.15,6.23 C71.58,11.595 72.15,20.178 72.15,27.901 C72.15,35.659 71.58,44.324 71.14,49.713 C71.11,50.134 70.78,50.474 70.31,50.488 C63.68,50.692 51.51,51 38.7,51 C25.89,51 13.73,50.692 7.09,50.488 C6.62,50.474 6.29,50.135 6.26,49.718 Z M1.24,5.769 C1.49,2.793 3.94,0.525 6.93,0.449 C13.85,0.274 26.62,0 38.7,0 C50.75,0 63.49,0.273 70.42,0.448 C73.43,0.524 75.89,2.829 76.13,5.83 C76.57,11.237 77.15,19.978 77.15,27.901 C77.15,35.86 76.56,44.682 76.13,50.112 C75.89,53.096 73.46,55.394 70.46,55.486 C63.8,55.69 51.58,56 38.7,56 C25.82,56 13.6,55.69 6.94,55.486 C3.95,55.394 1.51,53.097 1.28,50.113 C0.84,44.626 0.25,35.623 0.25,27.211 C0.25,19.036 0.81,10.86 1.24,5.769 Z M32.49,37.211 L32.49,20.019 L46.96,28.728 L32.49,37.211 Z M31.43,13.546 C29.69,12.504 27.49,13.752 27.49,15.774 L27.49,41.399 C27.49,43.407 29.67,44.657 31.4,43.642 L52.98,30.998 C54.68,30.001 54.69,27.544 53,26.527 L31.43,13.546 Z" id="Shape"></path>
                </g>
                <g id="Thin-S" transform="translate(319.015000, 0.000000)">
                    <path d="M5.001,49.876 C4.569,44.418 3.985,35.506 3.985,27.211 C3.985,19.155 4.536,11.073 4.963,6.022 C5.083,4.6 6.251,3.486 7.738,3.448 C14.648,3.274 27.389,3 39.436,3 C51.452,3 64.158,3.272 71.08,3.447 C72.574,3.485 73.763,4.617 73.879,6.07 C74.311,11.452 74.886,20.098 74.886,27.901 C74.886,35.74 74.306,44.467 73.873,49.873 C73.758,51.319 72.584,52.442 71.106,52.487 C64.462,52.691 52.276,53 39.436,53 C26.595,53 14.41,52.691 7.765,52.487 C6.287,52.442 5.116,51.32 5.001,49.876 Z M1.973,5.769 C2.225,2.793 4.676,0.525 7.662,0.449 C14.581,0.274 27.351,0 39.436,0 C51.489,0 64.225,0.273 71.156,0.448 C74.165,0.524 76.629,2.829 76.869,5.83 C77.303,11.237 77.886,19.978 77.886,27.901 C77.886,35.86 77.298,44.682 76.864,50.112 C76.625,53.096 74.19,55.394 71.198,55.486 C64.538,55.69 52.319,56 39.436,56 C26.552,56 14.333,55.69 7.673,55.486 C4.681,55.394 2.247,53.097 2.01,50.113 C1.576,44.626 0.985,35.623 0.985,27.211 C0.985,19.036 1.543,10.86 1.973,5.769 Z M32.22,38.956 L32.22,18.25 L49.656,28.739 L32.22,38.956 Z M31.645,14.403 C30.579,13.762 29.22,14.53 29.22,15.774 L29.22,41.399 C29.22,42.635 30.563,43.404 31.629,42.779 L53.208,30.135 C54.255,29.522 54.264,28.01 53.223,27.384 L31.645,14.403 Z" id="Shape"></path>
                </g>
                <g id="Ultralight-S" transform="translate(22.792000, 0.000000)">
                    <path d="M3.227,49.955 C2.794,44.487 2.208,35.545 2.208,27.211 C2.208,19.115 2.761,11.002 3.189,5.938 C3.353,3.997 4.949,2.499 6.936,2.449 C13.848,2.274 26.599,2 38.659,2 C50.687,2 63.404,2.272 70.328,2.447 C72.328,2.498 73.941,4.021 74.099,5.99 C74.531,11.38 75.109,20.058 75.109,27.901 C75.109,35.78 74.526,44.539 74.093,49.953 C73.936,51.911 72.343,53.426 70.36,53.487 C63.71,53.691 51.514,54 38.659,54 C25.804,54 13.607,53.691 6.958,53.487 C4.974,53.426 3.382,51.912 3.227,49.955 Z M1.196,5.769 C1.448,2.793 3.899,0.525 6.885,0.449 C13.804,0.274 26.574,0 38.659,0 C50.712,0 63.448,0.273 70.379,0.448 C73.388,0.524 75.852,2.829 76.092,5.83 C76.526,11.237 77.109,19.978 77.109,27.901 C77.109,35.86 76.521,44.682 76.087,50.112 C75.848,53.096 73.413,55.394 70.421,55.486 C63.761,55.69 51.542,56 38.659,56 C25.775,56 13.556,55.69 6.896,55.486 C3.904,55.394 1.47,53.097 1.233,50.113 C0.799,44.626 0.208,35.623 0.208,27.211 C0.208,19.036 0.766,10.86 1.196,5.769 Z M30.943,39.828 L30.943,17.366 L49.859,28.745 L30.943,39.828 Z M30.61,14.832 C29.877,14.391 28.943,14.919 28.943,15.774 L28.943,41.399 C28.943,42.248 29.866,42.777 30.599,42.348 L52.178,29.704 C52.898,29.282 52.904,28.243 52.189,27.812 L30.61,14.832 Z" id="Shape"></path>
                </g>
            </g>
        </g>
    </g>
</svg>