<?xml version="1.0" encoding="UTF-8"?>
<svg width="3300px" height="2200px" viewBox="0 0 3300 2200" version="1.1" xmlns="http://www.w3.org/2000/svg" xmlns:xlink="http://www.w3.org/1999/xlink">
    <title>soundcloud</title>
    <g id="Page-1" stroke="none" stroke-width="1" fill="none" fill-rule="evenodd">
        <g id="soundcloud">
            <g id="Notes">
                <rect id="artboard" fill="#FFFFFF" fill-rule="nonzero" x="0" y="0" width="3300" height="2200"></rect>
                <line x1="263" y1="292" x2="3036" y2="292" id="Path" stroke="#000000" stroke-width="0.5"></line>
                <text id="Weight/Scale-Variations" fill="#000000" fill-rule="nonzero" font-family="Helvetica-Bold, Helvetica" font-size="13" font-weight="bold">
                    <tspan x="263" y="322">Weight/Scale Variations</tspan>
                </text>
                <text id="Ultralight" fill="#000000" fill-rule="nonzero" font-family="Helvetica" font-size="13" font-weight="normal">
                    <tspan x="533.711" y="322">Ultralight</tspan>
                </text>
                <text id="Thin" fill="#000000" fill-rule="nonzero" font-family="Helvetica" font-size="13" font-weight="normal">
                    <tspan x="843.422" y="322">Thin</tspan>
                </text>
                <text id="Light" fill="#000000" fill-rule="nonzero" font-family="Helvetica" font-size="13" font-weight="normal">
                    <tspan x="1138.63" y="322">Light</tspan>
                </text>
                <text id="Regular" fill="#000000" fill-rule="nonzero" font-family="Helvetica" font-size="13" font-weight="normal">
                    <tspan x="1426.84" y="322">Regular</tspan>
                </text>
                <text id="Medium" fill="#000000" fill-rule="nonzero" font-family="Helvetica" font-size="13" font-weight="normal">
                    <tspan x="1723.06" y="322">Medium</tspan>
                </text>
                <text id="Semibold" fill="#000000" fill-rule="nonzero" font-family="Helvetica" font-size="13" font-weight="normal">
                    <tspan x="2016" y="322">Semibold</tspan>
                </text>
                <text id="Bold" fill="#000000" fill-rule="nonzero" font-family="Helvetica" font-size="13" font-weight="normal">
                    <tspan x="2326.48" y="322">Bold</tspan>
                </text>
                <text id="Heavy" fill="#000000" fill-rule="nonzero" font-family="Helvetica" font-size="13" font-weight="normal">
                    <tspan x="2618.19" y="322">Heavy</tspan>
                </text>
                <text id="Black" fill="#000000" fill-rule="nonzero" font-family="Helvetica" font-size="13" font-weight="normal">
                    <tspan x="2917.4" y="322">Black</tspan>
                </text>
                <line x1="263" y1="1903" x2="3036" y2="1903" id="Path" stroke="#000000" stroke-width="0.5"></line>
                <g id="Group" transform="translate(264.000000, 1918.000000)" fill="#000000" fill-rule="nonzero">
                    <path d="M8.24805,15.830078 C12.5547,15.830078 16.1387,12.25586 16.1387,7.94922 C16.1387,3.6426 12.5449,0.0684 8.23828,0.0684 C3.94141,0.0684 0.36719,3.6426 0.36719,7.94922 C0.36719,12.25586 3.95117,15.830078 8.24805,15.830078 Z M8.24805,14.345703 C4.70312,14.345703 1.87109,11.50391 1.87109,7.94922 C1.87109,4.3945 4.69336,1.5527 8.23828,1.5527 C11.793,1.5527 14.6348,4.3945 14.6445252,7.94922 C14.6543,11.50391 11.8027,14.345703 8.24805,14.345703 Z M8.22852,11.37695 C8.69727,11.37695 8.9707,11.06445 8.9707,10.54688 L8.9707,8.68164 L11.002,8.68164 C11.5,8.68164 11.832,8.42773 11.832,7.95898 C11.832,7.48047 11.5195,7.2168 11.002,7.2168 L8.9707,7.2168 L8.9707,5.18555 C8.9707,4.668 8.69727,4.3457 8.22852,4.3457 C7.75977,4.3457 7.50586,4.6875 7.50586,5.18555 L7.50586,7.2168 L5.49414,7.2168 C4.97656,7.2168 4.64453,7.48047 4.64453,7.95898 C4.64453,8.42773 4.99609,8.68164 5.49414,8.68164 L7.50586,8.68164 L7.50586,10.54688 C7.50586,11.04492 7.75977,11.37695 8.22852,11.37695 Z" id="Shape"></path>
                </g>
                <g id="Group" transform="translate(282.506000, 1915.000000)" fill="#000000" fill-rule="nonzero">
                    <path d="M10.709,20.91016 C16.1582,20.91016 20.6699,16.38867 20.6699,10.94922 C20.6699,5.5 16.1484,0.9883 10.6992,0.9883 C5.25977,0.9883 0.74805,5.5 0.74805,10.94922 C0.74805,16.38867 5.26953,20.91016 10.709,20.91016 Z M10.709,19.25 C6.09961,19.25 2.41797,15.55859 2.41797,10.94922 C2.41797,6.3398 6.08984,2.6484 10.6992,2.6484 C15.3086,2.6484 19,6.3398 19.009819,10.94922 C19.0195,15.55859 15.3184,19.25 10.709,19.25 Z M10.6797,15.33398 C11.207,15.33398 11.5098,14.98242 11.5098,14.40625 L11.5098,11.76953 L14.3223,11.76953 C14.8691,11.76953 15.25,11.48633 15.25,10.96875 C15.25,10.44141 14.8887,10.13867 14.3223,10.13867 L11.5098,10.13867 L11.5098,7.3164 C11.5098,6.75 11.207,6.3887 10.6797,6.3887 C10.1621,6.3887 9.8789,6.7695 9.8789,7.3164 L9.8789,10.13867 L7.07617,10.13867 C6.50977,10.13867 6.13867,10.44141 6.13867,10.96875 C6.13867,11.48633 6.5293,11.76953 7.07617,11.76953 L9.8789,11.76953 L9.8789,14.40625 C9.8789,14.96289 10.1621,15.33398 10.6797,15.33398 Z" id="Shape"></path>
                </g>
                <g id="Group" transform="translate(306.924000, 1913.000000)" fill="#000000" fill-rule="nonzero">
                    <path d="M12.9707,25.66406 C19.9336,25.66406 25.6953,19.9023438 25.6953,12.94922 C25.6953,5.9863 19.9238,0.2246 12.9609,0.2246 C6.00781,0.2246 0.25586,5.9863 0.25586,12.94922 C0.25586,19.9023438 6.01758,25.66406 12.9707,25.66406 Z M12.9707,23.84766 C6.93555,23.84766 2.08203,18.98438 2.08203,12.94922 C2.08203,6.9043 6.92578,2.0508 12.9609,2.0508 C19.0059,2.0508 23.8594,6.9043 23.8691148,12.94922 C23.8789,18.98438 19.0156,23.84766 12.9707,23.84766 Z M12.9414,18.61328 C13.5176,18.61328 13.8594,18.22266 13.8594,17.61719 L13.8594,13.86719 L17.7754,13.86719 C18.3711,13.86719 18.7812,13.53516 18.7812,12.97852 C18.7812,12.40234 18.3906,12.06055 17.7754,12.06055 L13.8594,12.06055 L13.8594,8.1348 C13.8594,7.5195 13.5176,7.1289 12.9414,7.1289 C12.375,7.1289 12.0527,7.5391 12.0527,8.1348 L12.0527,12.06055 L8.1465,12.06055 C7.53125,12.06055 7.13086,12.40234 7.13086,12.97852 C7.13086,13.53516 7.55078,13.86719 8.1465,13.86719 L12.0527,13.86719 L12.0527,17.61719 C12.0527,18.20312 12.375,18.61328 12.9414,18.61328 Z" id="Shape"></path>
                </g>
                <text id="Design-Variations" fill="#000000" fill-rule="nonzero" font-family="Helvetica-Bold, Helvetica" font-size="13" font-weight="bold">
                    <tspan x="263" y="1953">Design Variations</tspan>
                </text>
                <text id="Symbols-are-supported-in-up-to-nine-weights-and-three-scales." fill="#000000" fill-rule="nonzero" font-family="Helvetica" font-size="13" font-weight="normal">
                    <tspan x="263" y="1971">Symbols are supported in up to nine weights and three scales.</tspan>
                </text>
                <text id="For-optimal-layout-with-text-and-other-symbols,-vertically-align" fill="#000000" fill-rule="nonzero" font-family="Helvetica" font-size="13" font-weight="normal">
                    <tspan x="263" y="1989">For optimal layout with text and other symbols, vertically align</tspan>
                </text>
                <text id="symbols-with-the-adjacent-text." fill="#000000" fill-rule="nonzero" font-family="Helvetica" font-size="13" font-weight="normal">
                    <tspan x="263" y="2007">symbols with the adjacent text.</tspan>
                </text>
                <line x1="776" y1="1919" x2="776" y2="1933" id="Path" stroke="#00AEEF" stroke-width="0.5"></line>
                <g id="Group" transform="translate(778.000000, 1918.000000)" fill="#000000" fill-rule="nonzero">
                    <path d="M1.31055,15.126953 C1.82812,15.126953 2.08203,14.9316406 2.26758,14.394531 L3.52734,10.9375 L9.2891,10.9375 L10.5488,14.394531 C10.7344,14.9316406 10.9883,15.126953 11.4961,15.126953 C12.0137,15.126953 12.3457,14.814453 12.3457,14.326172 C12.3457,14.160156 12.3164,14.013672 12.2383,13.79883 L7.6582,1.6113 C7.43359,1.0059 7.0332,0.7129 6.4082,0.7129 C5.80273,0.7129 5.39258,1.0059 5.17773,1.6016 L0.59766,13.80859 C0.51953,14.023438 0.49023,14.169922 0.49023,14.335938 C0.49023,14.824219 0.80273,15.126953 1.31055,15.126953 Z M4.00586,9.46289 L6.37891,2.8906 L6.42773,2.8906 L8.8008,9.46289 L4.00586,9.46289 Z" id="Shape"></path>
                </g>
                <line x1="792.836" y1="1919" x2="792.836" y2="1933" id="Path" stroke="#00AEEF" stroke-width="0.5"></line>
                <text id="Margins" fill="#000000" fill-rule="nonzero" font-family="Helvetica-Bold, Helvetica" font-size="13" font-weight="bold">
                    <tspan x="776" y="1953">Margins</tspan>
                </text>
                <text id="Leading-and-trailing-margins-on-the-left-and-right-side-of-each-symbol" fill="#000000" fill-rule="nonzero" font-family="Helvetica" font-size="13" font-weight="normal">
                    <tspan x="776" y="1971">Leading and trailing margins on the left and right side of each symbol</tspan>
                </text>
                <text id="can-be-adjusted-by-modifying-the-x-location-of-the-margin-guidelines." fill="#000000" fill-rule="nonzero" font-family="Helvetica" font-size="13" font-weight="normal">
                    <tspan x="776" y="1989">can be adjusted by modifying the x-location of the margin guidelines.</tspan>
                </text>
                <text id="Modifications-are-automatically-applied-proportionally-to-all" fill="#000000" fill-rule="nonzero" font-family="Helvetica" font-size="13" font-weight="normal">
                    <tspan x="776" y="2007">Modifications are automatically applied proportionally to all</tspan>
                </text>
                <text id="scales-and-weights." fill="#000000" fill-rule="nonzero" font-family="Helvetica" font-size="13" font-weight="normal">
                    <tspan x="776" y="2025">scales and weights.</tspan>
                </text>
                <g id="Group" transform="translate(1291.000000, 1914.000000)" fill="#000000" fill-rule="nonzero">
                    <path d="M0.8418,20.86523 L2.54102,22.57422 C3.40039,23.44336 4.38672,23.38477 5.31445,22.35938 L15.4902,11.14844 C15.7539,11.23633 16.0273,11.2168 16.3398,11.1582 L17.4043,10.96289 L18.0684,11.63672 L18.0293,12.19336 C17.9902,12.69141 18.1172,13.07227 18.6055,13.55078 L19.3672,14.29297 C19.8457,14.77148 20.4609,14.80078 20.9297,14.33203 L23.8398,11.41211 C24.3086,10.94336 24.2891,10.34766 23.8105,9.86914 L23.0391,9.10742 C22.5605,8.6289 22.1895,8.4727 21.7109,8.5117 L21.1348,8.5605 L20.4902,7.9258 L20.7344,6.8027 C20.8613,6.2363 20.7051,5.7969 20.1191,5.2109 L17.9219,3.0234 C14.582,-0.2969 10.1484,-0.2188 7.25781,2.6719 C6.83789,3.082 6.80859,3.6582 7.04297,4.0488 C7.27734,4.4102 7.73633,4.6445 8.3809,4.4785 C9.8457,4.1367 11.3691,4.0781 12.7949,5.0156 L12.209,6.4707 C12.0137,6.9492 11.9844,7.3496 12.1113,7.7109 L1.04688,18.101562 C0.06055,19.0195312 -0.01758,19.996094 0.8418,20.86523 Z M8.752,3.043 C11.1836,1.2656 14.4746,1.5684 16.7012,3.7949 L19.1328,6.207 C19.3672,6.4414 19.4062,6.627 19.3379,6.9688 L19.0156,8.4531 L20.5195,9.9375 L21.5059,9.87891 C21.7598,9.86914 21.8379,9.88867 22.0332,10.08398 L22.6094,10.66016 L20.168,13.10156 L19.5918,12.52539 C19.3965,12.33008 19.3672,12.25195 19.377,11.98828 L19.4453,11.01172 L17.9512,9.52734 L16.4277,9.78125 C16.1055,9.84961 15.959,9.82031 15.7148,9.58594 L13.7129,7.584 C13.459,7.3496 13.4297,7.1836 13.5859,6.8125 L14.4648,4.7227 C12.9023,3.2676 10.8711,2.6426 8.8398,3.2383 C8.6836,3.2773 8.625,3.1504 8.752,3.043 Z M3.27344,21.3047 L2.10156,20.14258 C1.63281,19.683594 1.74023,19.341797 2.14062,18.9804688 L12.9512,8.8047 L14.416,10.28906 L4.42578,21.27539 C4.07422,21.67578 3.74219,21.77344 3.27344,21.3047 Z" id="Shape"></path>
                </g>
                <text id="Exporting" fill="#000000" fill-rule="nonzero" font-family="Helvetica-Bold, Helvetica" font-size="13" font-weight="bold">
                    <tspan x="1289" y="1953">Exporting</tspan>
                </text>
                <text id="Symbols-should-be-outlined-when-exporting-to-ensure-the" fill="#000000" fill-rule="nonzero" font-family="Helvetica" font-size="13" font-weight="normal">
                    <tspan x="1289" y="1971">Symbols should be outlined when exporting to ensure the</tspan>
                </text>
                <text id="design-is-preserved-when-submitting-to-Xcode." fill="#000000" fill-rule="nonzero" font-family="Helvetica" font-size="13" font-weight="normal">
                    <tspan x="1289" y="1989">design is preserved when submitting to Xcode.</tspan>
                </text>
                <text id="template-version" fill="#000000" fill-rule="nonzero" font-family="Helvetica" font-size="13" font-weight="normal">
                    <tspan x="2952" y="1933">Template v.2.0</tspan>
                </text>
                <text id="Requires-Xcode-12-or-greater" fill="#000000" fill-rule="nonzero" font-family="Helvetica" font-size="13" font-weight="normal">
                    <tspan x="2865" y="1951">Requires Xcode 12 or greater</tspan>
                </text>
                <text id="Generated-from-square.and.arrow.up" fill="#000000" fill-rule="nonzero" font-family="Helvetica" font-size="13" font-weight="normal">
                    <tspan x="2822" y="1969">Generated from square.and.arrow.up</tspan>
                </text>
                <text id="Typeset-at-100-points" fill="#000000" fill-rule="nonzero" font-family="Helvetica" font-size="13" font-weight="normal">
                    <tspan x="2912" y="1987">Typeset at 100 points</tspan>
                </text>
                <text id="Small" fill="#000000" fill-rule="nonzero" font-family="Helvetica" font-size="13" font-weight="normal">
                    <tspan x="263" y="726">Small</tspan>
                </text>
                <text id="Medium" fill="#000000" fill-rule="nonzero" font-family="Helvetica" font-size="13" font-weight="normal">
                    <tspan x="263" y="1156">Medium</tspan>
                </text>
                <text id="Large" fill="#000000" fill-rule="nonzero" font-family="Helvetica" font-size="13" font-weight="normal">
                    <tspan x="263" y="1586">Large</tspan>
                </text>
            </g>
            <g id="Guides" transform="translate(263.000000, 625.000000)">
                <g id="H-reference" transform="translate(76.000000, 0.000000)" fill="#27AAE1" fill-rule="nonzero">
                    <path d="M0.976562,71 L3.66211,71 L12.9883,46.5371 L45.7031,46.5371 L55.0781,71 L57.7148,71 L30.6152,0.541 L28.125,0.541 L0.976562,71 Z M29.2969,3.8613 L29.3945,3.8613 L44.873,44.291 L13.8672,44.291 L29.2969,3.8613 Z" id="Shape"></path>
                </g>
                <line x1="0" y1="71" x2="2773" y2="71" id="Baseline-S" stroke="#27AAE1" stroke-width="0.5"></line>
                <line x1="0" y1="0.541" x2="2773" y2="0.541" id="Capline-S" stroke="#27AAE1" stroke-width="0.5"></line>
                <g id="H-reference" transform="translate(76.000000, 430.000000)" fill="#27AAE1" fill-rule="nonzero">
                    <path d="M0.976562,71 L3.66211,71 L12.9883,46.5371 L45.7031,46.5371 L55.0781,71 L57.7148,71 L30.6152,0.541 L28.125,0.541 L0.976562,71 Z M29.2969,3.8613 L29.3945,3.8613 L44.873,44.291 L13.8672,44.291 L29.2969,3.8613 Z" id="Shape"></path>
                </g>
                <line x1="0" y1="501" x2="2773" y2="501" id="Baseline-M" stroke="#27AAE1" stroke-width="0.5"></line>
                <line x1="0" y1="430.54" x2="2773" y2="430.54" id="Capline-M" stroke="#27AAE1" stroke-width="0.5"></line>
                <g id="H-reference" transform="translate(76.000000, 860.000000)" fill="#27AAE1" fill-rule="nonzero">
                    <path d="M0.976562,71 L3.66211,71 L12.9883,46.5371 L45.7031,46.5371 L55.0781,71 L57.7148,71 L30.6152,0.541 L28.125,0.541 L0.976562,71 Z M29.2969,3.8613 L29.3945,3.8613 L44.873,44.291 L13.8672,44.291 L29.2969,3.8613 Z" id="Shape"></path>
                </g>
                <line x1="0" y1="931" x2="2773" y2="931" id="Baseline-L" stroke="#27AAE1" stroke-width="0.5"></line>
                <line x1="0" y1="860.54" x2="2773" y2="860.54" id="Capline-L" stroke="#27AAE1" stroke-width="0.5"></line>
                <line x1="1131.06" y1="405.79" x2="1131.06" y2="525.12" id="left-margin" stroke="#00AEEF" stroke-width="0.5"></line>
                <line x1="1242.63" y1="405.79" x2="1242.63" y2="525.12" id="right-margin" stroke="#00AEEF" stroke-width="0.5"></line>
            </g>
            <g id="Symbols" transform="translate(445.000000, 640.000000)" fill="#000000" fill-rule="nonzero">
                <g id="Black-L" transform="translate(2374.760000, 823.000000)">
                    <path d="M188.562149,44.3743888 C238.08251,32.8422499 238.08251,100 202.129371,100 L26.4338429,100 C-12.2014282,99.7190835 -8.80962264,33.2396945 41.3577873,48.4445555 C56.9914053,14.9239445 84.7728985,15.204861 98.3401208,23.3451943 C113.942426,-8.53777798 183.13526,-13.2863058 188.562149,44.3743888 Z M178.658674,62.4057507 C178.658674,5.63535707 112.175186,10.3771848 102.693419,43.2622459 C92.6539009,36.016385 65.2632657,27.2502866 50.203989,63.4795911 C11.1614196,48.4304954 15.1773563,85.4735002 31.3521351,85.4735002 L31.3521351,85.4735002 L186.585484,85.4735002 C204.991267,85.4735002 217.701244,46.2419071 178.658674,62.4057507 Z M124.380084,97.6840002 L124.380084,11.1783366 C151.925019,-6.91865961 185.551203,20.9512502 187.340057,49.5451436 C206.299347,42.668164 224.900867,53.8881808 224.900867,73.7951358 C224.900867,89.7210454 211.307284,96.356985 204.510493,97.6840002 L124.380084,97.6840002 Z M103.005542,16.0183601 L115.216042,13.4492464 L115.216042,95.6784108 L103.005542,95.6784108 L103.005542,16.0183601 Z M82.6547082,26.0193147 L94.8652083,23.7721329 L94.8652083,95.6784108 L82.6547082,95.6784108 L82.6547082,26.0193147 Z M62.3038749,25.4827827 L74.5143749,25.4827827 L74.5143749,95.6784108 L62.3038749,95.6784108 L62.3038749,25.4827827 Z M41.9688993,51.1309782 L54.1635415,44.1229663 L54.1635415,95.6784108 L41.9530415,95.6784108 L41.9688993,51.1309782 Z M21.6022081,56.6926426 L33.8127081,50.4936619 L33.8127081,95.6784108 L21.6022081,95.6784108 L21.6022081,56.6926426 Z" id="Shape"></path>
                </g>
                <g id="Heavy-L" transform="translate(2077.320000, 823.000000)">
                    <path d="M189.002149,44.3743888 C238.52251,32.8422499 238.52251,100 202.569371,100 L26.8738429,100 C-11.7614282,99.7190835 -8.36962264,33.2396945 41.7977873,48.4445555 C57.4314053,14.9239445 85.2128985,15.204861 98.7801208,23.3451943 C114.382426,-8.53777798 183.57526,-13.2863058 189.002149,44.3743888 Z M181.124056,61.7308612 C181.124056,3.39180556 112.849705,8.26465803 103.112528,42.058389 C92.8025762,34.6123127 64.6741209,25.6039921 49.2091932,62.8343737 C9.11493612,47.369446 13.2390499,86.8302224 29.8495278,86.8302224 L29.8495278,86.8302224 L189.264389,86.8302224 C208.165968,86.8302224 221.218313,45.1203833 181.124056,61.7308612 Z M124.820084,97.6840002 L124.820084,11.1783366 C152.365019,-6.91865961 185.991203,20.9512502 187.780057,49.5451436 C206.739347,42.668164 225.340867,53.8881808 225.340867,73.7951358 C225.340867,89.7210454 211.747284,96.356985 204.950493,97.6840002 L124.820084,97.6840002 Z M110.229153,16.0183601 L121.082931,13.4492464 L121.082931,95.6784108 L110.229153,95.6784108 L110.229153,16.0183601 Z M92.5917638,26.0193147 L103.445542,23.7721329 L103.445542,95.6784108 L92.5917638,95.6784108 L92.5917638,26.0193147 Z M74.9543749,25.4827827 L85.8081527,25.4827827 L85.8081527,95.6784108 L74.9543749,95.6784108 L74.9543749,25.4827827 Z M57.3310818,33.9180556 L68.1707638,25.4827827 L68.1707638,95.6784108 L57.316986,95.6784108 L57.3310818,33.9180556 Z M39.679597,51.2657537 L50.5333748,45.066773 L50.5333748,95.6784108 L39.679597,95.6784108 L39.679597,51.2657537 Z M22.0422081,51.9474199 L32.8959859,49.6088431 L32.8959859,95.6784108 L22.0422081,95.6784108 L22.0422081,51.9474199 Z" id="Shape"></path>
                </g>
                <g id="Bold-L" transform="translate(1781.000000, 825.000000)">
                    <path d="M188.322149,44.3743888 C237.84251,32.8422499 237.84251,100 201.889371,100 L26.1938429,100 C-12.4414282,99.7190835 -9.04962264,33.2396945 41.1177873,48.4445555 C56.7514053,14.9239445 84.5328985,15.204861 98.1001208,23.3451943 C113.702426,-8.53777798 182.89526,-13.2863058 188.322149,44.3743888 Z M177.103771,59.710448 C180.145696,6.17257245 109.950098,7.52929467 99.6075536,43.4240067 C88.6566245,35.5150024 65.5379964,23.207351 49.1116027,62.7523728 C6.52465626,46.3259791 11.1654783,87.3325713 28.8086419,87.3325713 L28.8086419,87.3325713 L197.562602,87.3325713 C217.639305,87.3325713 219.690718,42.0672845 177.103771,59.710448 Z M124.140084,97.6840002 L124.140084,11.1783366 C151.685019,-6.91865961 185.311203,20.9512502 187.100057,49.5451436 C206.059347,42.668164 224.660867,53.8881808 224.660867,73.7951358 C224.660867,89.7210454 211.067284,96.356985 204.270493,97.6840002 L124.140084,97.6840002 Z M106.650701,16.0183601 L116.147756,13.4492464 L116.147756,95.6784108 L106.650701,95.6784108 L106.650701,16.0183601 Z M89.8643466,26.0193147 L99.3614022,23.7721329 L99.3614022,95.6784108 L89.8643466,95.6784108 L89.8643466,26.0193147 Z M73.0779926,25.4827827 L82.5750481,25.4827827 L82.5750481,95.6784108 L73.0779926,95.6784108 L73.0779926,25.4827827 Z M56.3039723,33.9180556 L65.7886941,25.4827827 L65.7886941,95.6784108 L56.2916385,95.6784108 L56.3039723,33.9180556 Z M39.5052844,51.2657537 L49.00234,45.066773 L49.00234,95.6784108 L39.5052844,95.6784108 L39.5052844,51.2657537 Z M22.7189303,51.9474199 L32.2159859,49.6088431 L32.2159859,95.6784108 L22.7189303,95.6784108 L22.7189303,51.9474199 Z" id="Shape"></path>
                </g>
                <g id="Semibold-L" transform="translate(1484.000000, 825.000000)">
                    <path d="M189.052149,44.3743888 C238.57251,32.8422499 238.57251,100 202.619371,100 L26.9238429,100 C-11.7114282,99.7190835 -8.31962264,33.2396945 41.8477873,48.4445555 C57.4814053,14.9239445 85.2628985,15.204861 98.8301208,23.3451943 C114.432426,-8.53777798 183.62526,-13.2863058 189.052149,44.3743888 Z M169.088159,58.3873936 C172.145025,4.5865405 109.784946,4.5865405 99.391599,40.657567 C88.3868791,32.7097137 65.1546925,21.7049938 48.6476126,61.4442602 C5.85147944,44.9371803 10.5150972,87.5085829 28.2449238,87.5085829 L28.2449238,87.5085829 L189.647483,87.5085829 C209.822803,87.5085829 211.884292,40.657567 169.088159,58.3873936 Z M124.870084,97.6840002 L124.870084,11.1783366 C152.415019,-6.91865961 186.041203,20.9512502 187.830057,49.5451436 C206.789347,42.668164 225.390867,53.8881808 225.390867,73.7951358 C225.390867,89.7210454 211.797284,96.356985 205.000493,97.6840002 L124.870084,97.6840002 Z M107.380701,16.0183601 L116.877756,13.4492464 L116.877756,95.6784108 L107.380701,95.6784108 L107.380701,16.0183601 Z M90.5943466,26.0193147 L100.091402,23.7721329 L100.091402,95.6784108 L90.5943466,95.6784108 L90.5943466,26.0193147 Z M73.8079926,25.4827827 L83.3050481,25.4827827 L83.3050481,95.6784108 L73.8079926,95.6784108 L73.8079926,25.4827827 Z M57.0339723,33.9180556 L66.5186941,25.4827827 L66.5186941,95.6784108 L57.0216385,95.6784108 L57.0339723,33.9180556 Z M40.2352844,51.2657537 L49.73234,45.066773 L49.73234,95.6784108 L40.2352844,95.6784108 L40.2352844,51.2657537 Z M23.4489303,51.9474199 L32.9459859,49.6088431 L32.9459859,95.6784108 L23.4489303,95.6784108 L23.4489303,51.9474199 Z" id="Shape"></path>
                </g>
                <g id="Medium-L" transform="translate(1176.000000, 825.000000)">
                    <path d="M207.844364,44.3743888 C262.316761,32.8422499 262.316761,100 222.768308,100 L29.5032272,100 C-12.995571,99.7190835 -9.26458491,33.2396945 45.9195661,48.4445555 C63.1165458,14.9239445 93.6761884,15.204861 108.600133,23.3451943 C125.762669,-8.53777798 201.874786,-13.2863058 207.844364,44.3743888 Z M189.039297,55.8747813 C192.523942,0.120461182 121.437184,0.120461182 109.589391,37.5011985 C97.0446688,29.2647649 70.5613668,17.8604721 51.7442838,59.0426403 C2.95925371,41.9362012 8.27549875,88.8653057 28.4864398,88.8653057 L28.4864398,88.8653057 L212.475696,88.8653057 C235.474353,88.8653057 237.824327,37.5011985 189.039297,55.8747813 Z M137.244092,97.6840002 L137.244092,11.1783366 C167.543521,-6.91865961 204.532324,20.9512502 206.500063,49.5451436 C227.355282,42.668164 247.816953,53.8881808 247.816953,73.7951358 C247.816953,89.7210454 232.864013,96.356985 225.387543,97.6840002 L137.244092,97.6840002 Z M123.975349,16.0183601 L132.821177,13.4492464 L132.821177,95.6784108 L123.975349,95.6784108 L123.975349,16.0183601 Z M108.495148,26.0193147 L117.340977,23.7721329 L117.340977,95.6784108 L108.495148,95.6784108 L108.495148,26.0193147 Z M93.0149474,25.4827827 L101.860776,25.4827827 L101.860776,95.6784108 L93.0149474,95.6784108 L93.0149474,25.4827827 Z M77.5347468,25.4827827 L86.3805757,25.4827827 L86.3805757,95.6784108 L77.5347468,95.6784108 L77.5347468,25.4827827 Z M62.0545462,37.6985315 L70.9003751,31.4995508 L70.9003751,95.6784108 L62.0545462,95.6784108 L62.0545462,37.6985315 Z M46.5743456,51.9474199 L55.4201745,45.5386764 L55.4201745,95.6784108 L46.5743456,95.6784108 L46.5743456,51.9474199 Z M31.0941451,53.5610339 L39.939974,53.5610339 L39.939974,95.6784108 L31.0941451,95.6784108 L31.0941451,53.5610339 Z M15.6139445,57.7596839 L24.4597734,53.5610339 L24.4597734,91.6672321 L15.6139445,89.0842183 L15.6139445,57.7596839 Z" id="Shape"></path>
                </g>
                <g id="Regular-L" transform="translate(891.000000, 825.000000)">
                    <g id="Regular-M" transform="translate(0.440000, 0.000000)">
                        <path d="M187.617176,44.1987233 C236.9415,32.7122368 236.9415,99.6041287 201.13069,99.6041287 L26.1306895,99.6041287 C-12.3516356,99.3243243 -8.97325725,33.1081081 40.9955544,48.2527774 C56.5672833,14.8648649 84.2387976,15.1446693 97.7523111,23.2527774 C113.292852,-8.50397937 182.211771,-13.2337091 187.617176,44.1987233 Z M179.094595,56.0810811 C182.472973,-3.37837838 113.554054,-3.37837838 102.067568,36.4864865 C89.9054054,27.7027027 64.2297297,15.5405405 45.9864865,59.4594595 C-1.31081081,41.2162162 4.09459459,90.5405405 23.6891892,90.5405405 L23.6891892,90.5405405 L202.067568,90.5405405 C224.364865,90.5405405 226.391892,36.4864865 179.094595,56.0810811 Z M123.689189,97.2972973 L123.689189,11.1340848 C151.125082,-6.89127063 184.61815,20.8683102 186.399922,49.3490086 C205.284158,42.499253 223.812039,53.6748529 223.812039,73.503002 C223.812039,89.3658655 210.27227,95.9755354 203.502386,97.2972973 L123.689189,97.2972973 Z M111.674447,15.9549481 L119.684275,13.3960047 L119.684275,95.2996475 L111.674447,95.2996475 L111.674447,15.9549481 Z M97.6572482,27.5669407 L105.667076,25.3819036 L105.667076,95.2996475 L97.6572482,95.2996475 L97.6572482,27.5669407 Z M83.6400491,25.3819036 L91.6498771,25.3819036 L91.6498771,95.2996475 L83.6400491,95.2996475 L83.6400491,25.3819036 Z M69.6228501,25.3819036 L77.6326781,25.3819036 L77.6326781,95.2996475 L69.6228501,95.2996475 L69.6228501,25.3819036 Z M55.6056511,37.5492938 L63.6154791,31.3748531 L63.6154791,95.2996475 L55.6056511,95.2996475 L55.6056511,37.5492938 Z M41.5884521,51.741775 L49.5982801,45.3584019 L49.5982801,95.2996475 L41.5884521,95.2996475 L41.5884521,51.741775 Z M27.5712531,53.3490012 L35.5810811,53.3490012 L35.5810811,95.2996475 L27.5712531,95.2996475 L27.5712531,53.3490012 Z M13.5540541,57.5310299 L21.5638821,53.3490012 L21.5638821,91.3043478 L13.5540541,88.7315594 L13.5540541,57.5310299 Z" id="Shape"></path>
                    </g>
                </g>
                <g id="Light-L" transform="translate(593.770000, 825.000000)">
                    <path d="M188.552149,44.3743888 C238.07251,32.8422499 238.07251,100 202.119371,100 L26.4238429,100 C-12.2114282,99.7190835 -8.81962264,33.2396945 41.3477873,48.4445555 C56.9814053,14.9239445 84.7628985,15.204861 98.3301208,23.3451943 C113.932426,-8.53777798 183.12526,-13.2863058 188.552149,44.3743888 Z M184.265224,56.5185674 C187.769002,-5.1479388 116.291916,-5.1479388 104.379068,36.1966506 C91.7654643,27.0868258 65.1367457,14.4732222 46.2163404,60.0223461 C-2.83656218,41.1019408 2.76948384,92.2571107 23.0914006,92.2571107 L23.0914006,92.2571107 L208.090919,92.2571107 C231.215859,92.2571107 233.318126,36.1966506 184.265224,56.5185674 Z M124.370084,97.6840002 L124.370084,11.1783366 C151.915019,-6.91865961 185.541203,20.9512502 187.330057,49.5451436 C206.289347,42.668164 224.890867,53.8881808 224.890867,73.7951358 C224.890867,89.7210454 211.297284,96.356985 204.500493,97.6840002 L124.370084,97.6840002 Z M112.30759,16.0183601 L117.734479,13.4492464 L117.734479,95.6784108 L112.30759,95.6784108 L112.30759,16.0183601 Z M98.23468,27.676504 L103.661569,25.4827827 L103.661569,95.6784108 L98.23468,95.6784108 L98.23468,27.676504 Z M84.1617704,25.4827827 L89.5886593,25.4827827 L89.5886593,95.6784108 L84.1617704,95.6784108 L84.1617704,25.4827827 Z M70.0888607,25.4827827 L75.5157496,25.4827827 L75.5157496,95.6784108 L70.0888607,95.6784108 L70.0888607,25.4827827 Z M56.0159511,37.6985315 L61.44284,31.4995508 L61.44284,95.6784108 L56.0159511,95.6784108 L56.0159511,37.6985315 Z M41.9430415,51.9474199 L47.3699304,45.5386764 L47.3699304,95.6784108 L41.9430415,95.6784108 L41.9430415,51.9474199 Z M27.8701319,53.5610339 L33.2970208,53.5610339 L33.2970208,95.6784108 L27.8701319,95.6784108 L27.8701319,53.5610339 Z M13.7972222,57.7596839 L19.2241111,53.5610339 L19.2241111,91.6672321 L13.7972222,89.0842183 L13.7972222,57.7596839 Z" id="Shape"></path>
                </g>
                <g id="Thin-L" transform="translate(297.282000, 825.000000)">
                    <path d="M189.040149,44.3743888 C238.56051,32.8422499 238.56051,100 202.607371,100 L26.9118429,100 C-11.7234282,99.7190835 -8.33162264,33.2396945 41.8357873,48.4445555 C57.4694053,14.9239445 85.2508985,15.204861 98.8181208,23.3451943 C114.420426,-8.53777798 183.61326,-13.2863058 189.040149,44.3743888 Z M183.235798,56.9477581 C185.232223,-8.14033335 115.361028,-5.4268889 102.806932,32.6135075 C90.1076378,22.9214219 60.4137779,18.9941111 44.2490739,56.6053166 C-5.38725001,39.3449445 3.22050357,94.9705551 23.6804782,94.9705551 L23.6804782,94.9705551 L207.223355,94.9705551 C230.505395,94.9705551 232.621944,35.3269519 183.235798,56.9477581 Z M124.858084,97.6840002 L124.858084,8.46489216 C152.403019,-9.63210406 186.029203,20.9512502 187.818057,49.5451436 C206.777347,42.668164 225.378867,53.8881808 225.378867,73.7951358 C225.378867,89.7210454 211.785284,96.356985 204.988493,97.6840002 L124.858084,97.6840002 Z M112.79559,14.189722 L118.222479,11.5616329 L118.222479,95.6784108 L112.79559,95.6784108 L112.79559,14.189722 Z M98.72268,27.676504 L104.149569,25.4827827 L104.149569,95.6784108 L98.72268,95.6784108 L98.72268,27.676504 Z M84.6497704,25.4827827 L90.0766593,25.4827827 L90.0766593,95.6784108 L84.6497704,95.6784108 L84.6497704,25.4827827 Z M70.5768607,25.4827827 L76.0037496,25.4827827 L76.0037496,95.6784108 L70.5768607,95.6784108 L70.5768607,25.4827827 Z M56.5039511,36.8458862 L61.93084,30.555744 L61.93084,95.6784108 L56.5039511,95.6784108 L56.5039511,36.8458862 Z M42.4310415,51.9474199 L47.8579304,45.5386764 L47.8579304,95.6784108 L42.4310415,95.6784108 L42.4310415,51.9474199 Z M28.3581319,50.9065774 L33.7850208,50.9065774 L33.7850208,95.6784108 L28.3581319,95.6784108 L28.3581319,50.9065774 Z M14.2852222,57.1058888 L19.7121111,52.3222875 L19.7121111,95.7373987 L14.2852222,92.7945223 L14.2852222,57.1058888 Z" id="Shape"></path>
                </g>
                <g id="Ultralight-L" transform="translate(0.205000, 825.000000)">
                    <path d="M189.117149,44.3743888 C238.63751,32.8422499 238.63751,100 202.684371,100 L26.9888429,100 C-11.6464282,99.7190835 -8.25462264,33.2396945 41.9127873,48.4445555 C57.5464053,14.9239445 85.3278985,15.204861 98.8951208,23.3451943 C114.497426,-8.53777798 183.69026,-13.2863058 189.117149,44.3743888 Z M183.991474,55.7261754 C186.026431,-10.618154 116.116389,-6.10525001 100.514084,29.1695278 C90.3386668,20.3508334 61.8475001,14.2455834 43.5317501,52.9121668 C15.5717471,42.9852366 3.79883544,60.4014428 4.86516667,75.2980835 C5.6474769,86.2269523 14.0096992,96.2527808 23.8592778,96.327278 L23.8592778,96.327278 L207.016778,96.327278 C230.748175,96.327278 234.330801,33.6880751 183.991474,55.7261754 Z M124.935084,97.6840002 L124.935084,5.75144771 C152.480019,-12.3455485 186.106203,20.9512502 187.895057,49.5451436 C206.854347,42.668164 225.455867,53.8881808 225.455867,73.7951358 C225.455867,89.7210454 211.862284,96.356985 205.065493,97.6840002 L124.935084,97.6840002 Z M112.87259,11.6034431 L116.942756,8.84818842 L116.942756,97.035133 L112.87259,97.035133 L112.87259,11.6034431 Z M98.79968,23.4330692 L102.869847,21.0586884 L102.869847,97.035133 L98.79968,97.035133 L98.79968,23.4330692 Z M84.7267704,22.4154107 L88.796937,22.4154107 L88.796937,97.035133 L84.7267704,97.035133 L84.7267704,22.4154107 Z M70.6538607,22.4154107 L74.7240274,22.4154107 L74.7240274,97.035133 L70.6538607,97.035133 L70.6538607,22.4154107 Z M56.5809511,32.0742204 L60.6511178,25.1288551 L60.6511178,97.035133 L56.5809511,97.035133 L56.5809511,32.0742204 Z M42.5080415,50.8860756 L46.5782082,44.1229663 L46.5782082,97.035133 L42.5080415,97.035133 L42.5080415,50.8860756 Z M28.5606436,48.8420001 L32.5052985,48.8420001 L32.3797868,97.035133 L28.4351319,97.035133 L28.5606436,48.8420001 Z M14.3622222,52.9121668 L18.4323889,49.6088431 L18.4323889,97.094121 L14.3622222,93.8753499 L14.3622222,52.9121668 Z" id="Shape"></path>
                </g>
                <g id="Black-M" transform="translate(2405.000000, 421.000000)">
                    <path d="M139.00671,32.7070553 C175.50671,24.2070553 175.50671,73.7070553 149.00671,73.7070553 L19.5067102,73.7070553 C-8.97021036,73.5 -6.47021036,24.5 30.5067102,35.7070553 C42.0297896,11 62.5067102,11.2070553 72.5067102,17.2070553 C84.0067102,-6.29294474 135.00671,-9.79294474 139.00671,32.7070553 Z M131.707151,45.9974412 C131.707151,4.15365575 82.7041291,7.64871735 75.715398,31.8873275 C68.315565,26.5466168 48.1267344,20.0853838 37.026985,46.7889373 C8.24985679,35.696692 11.2098855,63 23.1318386,63 L23.1318386,63 L137.549769,63 C151.116129,63 160.484279,34.083548 131.707151,45.9974412 Z M91.7,72 L91.7,8.23922274 C112.002561,-5.09954027 136.787431,15.4425496 138.105943,36.5182663 C152.080277,31.4494473 165.790909,39.7193912 165.790909,54.3922215 C165.790909,66.1307405 155.77148,71.0218962 150.761765,72 L91.7,72 Z M75.9454545,11.8066616 L84.9454545,9.91304348 L84.9454545,70.5217391 L75.9454545,70.5217391 L75.9454545,11.8066616 Z M60.9454545,19.1780706 L69.9454545,17.5217391 L69.9454545,70.5217391 L60.9454545,70.5217391 L60.9454545,19.1780706 Z M45.9454545,18.7826087 L54.9454545,18.7826087 L54.9454545,70.5217391 L45.9454545,70.5217391 L45.9454545,18.7826087 Z M30.9571429,37.6871384 L39.9454545,32.5217391 L39.9454545,70.5217391 L30.9454545,70.5217391 L30.9571429,37.6871384 Z M15.9454545,41.7864774 L24.9454545,37.2173913 L24.9454545,70.5217391 L15.9454545,70.5217391 L15.9454545,41.7864774 Z" id="Shape"></path>
                </g>
                <g id="Heavy-M" transform="translate(2107.000000, 421.000000)">
                    <path d="M139.58671,32.7070553 C176.08671,24.2070553 176.08671,73.7070553 149.58671,73.7070553 L20.0867102,73.7070553 C-8.39021036,73.5 -5.89021036,24.5 31.0867102,35.7070553 C42.6097896,11 63.0867102,11.2070553 73.0867102,17.2070553 C84.5867102,-6.29294474 135.58671,-9.79294474 139.58671,32.7070553 Z M133.78,45.5 C133.78,2.5 83.4569862,6.09163606 76.28,31 C68.6808381,25.5117164 47.948182,18.8719486 36.5494392,46.3133665 C6.99714303,34.9146237 10.0369059,64 22.28,64 L22.28,64 L139.78,64 C153.711797,64 163.332296,33.2569059 133.78,45.5 Z M92.28,72 L92.28,8.23922274 C112.582561,-5.09954027 137.367431,15.4425496 138.685943,36.5182663 C152.660277,31.4494473 166.370909,39.7193912 166.370909,54.3922215 C166.370909,66.1307405 156.35148,71.0218962 151.341765,72 L92.28,72 Z M81.5254545,11.8066616 L89.5254545,9.91304348 L89.5254545,70.5217391 L81.5254545,70.5217391 L81.5254545,11.8066616 Z M68.5254545,19.1780706 L76.5254545,17.5217391 L76.5254545,70.5217391 L68.5254545,70.5217391 L68.5254545,19.1780706 Z M55.5254545,18.7826087 L63.5254545,18.7826087 L63.5254545,70.5217391 L55.5254545,70.5217391 L55.5254545,18.7826087 Z M42.5358442,25 L50.5254545,18.7826087 L50.5254545,70.5217391 L42.5254545,70.5217391 L42.5358442,25 Z M29.5254545,37.7864774 L37.5254545,33.2173913 L37.5254545,70.5217391 L29.5254545,70.5217391 L29.5254545,37.7864774 Z M16.5254545,38.2889135 L24.5254545,36.5652174 L24.5254545,70.5217391 L16.5254545,70.5217391 L16.5254545,38.2889135 Z" id="Shape"></path>
                </g>
                <g id="Bold-M" transform="translate(1810.800000, 421.000000)">
                    <path d="M139.00671,32.7070553 C175.50671,24.2070553 175.50671,73.7070553 149.00671,73.7070553 L19.5067102,73.7070553 C-8.97021036,73.5 -6.47021036,24.5 30.5067102,35.7070553 C42.0297896,11 62.5067102,11.2070553 72.5067102,17.2070553 C84.0067102,-6.29294474 135.00671,-9.79294474 139.00671,32.7070553 Z M130.737974,44.0108129 C132.980088,4.54962138 81.2409793,5.54962138 73.6177946,32.0065566 C65.5461872,26.1770624 48.5061272,17.1054551 36.3987162,46.2529261 C5.009132,34.145515 8.42974527,64.3702666 21.4340016,64.3702666 L21.4340016,64.3702666 L145.817576,64.3702666 C160.615523,64.3702666 162.127559,31.0065566 130.737974,44.0108129 Z M91.7,72 L91.7,8.23922274 C112.002561,-5.09954027 136.787431,15.4425496 138.105943,36.5182663 C152.080277,31.4494473 165.790909,39.7193912 165.790909,54.3922215 C165.790909,66.1307405 155.77148,71.0218962 150.761765,72 L91.7,72 Z M78.8090909,11.8066616 L85.8090909,9.91304348 L85.8090909,70.5217391 L78.8090909,70.5217391 L78.8090909,11.8066616 Z M66.4363636,19.1780706 L73.4363636,17.5217391 L73.4363636,70.5217391 L66.4363636,70.5217391 L66.4363636,19.1780706 Z M54.0636364,18.7826087 L61.0636364,18.7826087 L61.0636364,70.5217391 L54.0636364,70.5217391 L54.0636364,18.7826087 Z M41.7,25 L48.6909091,18.7826087 L48.6909091,70.5217391 L41.6909091,70.5217391 L41.7,25 Z M29.3181818,37.7864774 L36.3181818,33.2173913 L36.3181818,70.5217391 L29.3181818,70.5217391 L29.3181818,37.7864774 Z M16.9454545,38.2889135 L23.9454545,36.5652174 L23.9454545,70.5217391 L16.9454545,70.5217391 L16.9454545,38.2889135 Z" id="Shape"></path>
                </g>
                <g id="Semibold-M" transform="translate(1515.000000, 421.000000)">
                    <path d="M138.83671,32.7070553 C175.33671,24.2070553 175.33671,73.7070553 148.83671,73.7070553 L19.3367102,73.7070553 C-9.14021036,73.5 -6.64021036,24.5 30.3367102,35.7070553 C41.8597896,11 62.3367102,11.2070553 72.3367102,17.2070553 C83.8367102,-6.29294474 134.83671,-9.79294474 138.83671,32.7070553 Z M124.121841,43.0356285 C126.374967,3.38060394 80.4111891,3.38060394 72.7505593,29.9674954 C64.6393043,24.1093668 47.5155437,15.9981117 35.3486612,45.2887549 C3.80489168,33.1218723 7.24230698,64.4999996 20.3104401,64.4999996 L20.3104401,64.4999996 L139.275514,64.4999996 C154.146148,64.4999996 155.665611,29.9674954 124.121841,43.0356285 Z M91.53,72 L91.53,8.23922274 C111.832561,-5.09954027 136.617431,15.4425496 137.935943,36.5182663 C151.910277,31.4494473 165.620909,39.7193912 165.620909,54.3922215 C165.620909,66.1307405 155.60148,71.0218962 150.591765,72 L91.53,72 Z M78.6390909,11.8066616 L85.6390909,9.91304348 L85.6390909,70.5217391 L78.6390909,70.5217391 L78.6390909,11.8066616 Z M66.2663636,19.1780706 L73.2663636,17.5217391 L73.2663636,70.5217391 L66.2663636,70.5217391 L66.2663636,19.1780706 Z M53.8936364,18.7826087 L60.8936364,18.7826087 L60.8936364,70.5217391 L53.8936364,70.5217391 L53.8936364,18.7826087 Z M41.53,25 L48.5209091,18.7826087 L48.5209091,70.5217391 L41.5209091,70.5217391 L41.53,25 Z M29.1481818,37.7864774 L36.1481818,33.2173913 L36.1481818,70.5217391 L29.1481818,70.5217391 L29.1481818,37.7864774 Z M16.7754545,38.2889135 L23.7754545,36.5652174 L23.7754545,70.5217391 L16.7754545,70.5217391 L16.7754545,38.2889135 Z" id="Shape"></path>
                </g>
                <g id="Medium-M" transform="translate(1218.000000, 421.000000)">
                    <path d="M138.89671,32.7070553 C175.39671,24.2070553 175.39671,73.7070553 148.89671,73.7070553 L19.3967102,73.7070553 C-9.08021036,73.5 -6.58021036,24.5 30.3967102,35.7070553 C41.9197896,11 62.3967102,11.2070553 72.3967102,17.2070553 C83.8967102,-6.29294474 134.89671,-9.79294474 138.89671,32.7070553 Z M126.296109,41.1836559 C128.631045,0.0887883898 80.9983578,0.0887883898 73.0595765,27.6410291 C64.6538082,21.5701964 46.9082972,13.1644281 34.2996447,43.5185915 C1.61054553,30.909939 5.17277069,65.5 18.7153975,65.5 L18.7153975,65.5 L142,65.5 C157.410575,65.5 158.985209,27.6410291 126.296109,41.1836559 Z M91.59,72 L91.59,8.23922274 C111.892561,-5.09954027 136.677431,15.4425496 137.995943,36.5182663 C151.970277,31.4494473 165.680909,39.7193912 165.680909,54.3922215 C165.680909,66.1307405 155.66148,71.0218962 150.651765,72 L91.59,72 Z M82.6990909,11.8066616 L88.6263636,9.91304348 L88.6263636,70.5217391 L82.6990909,70.5217391 L82.6990909,11.8066616 Z M72.3263636,19.1780706 L78.2536364,17.5217391 L78.2536364,70.5217391 L72.3263636,70.5217391 L72.3263636,19.1780706 Z M61.9536364,18.7826087 L67.8809091,18.7826087 L67.8809091,70.5217391 L61.9536364,70.5217391 L61.9536364,18.7826087 Z M51.5809091,18.7826087 L57.5081818,18.7826087 L57.5081818,70.5217391 L51.5809091,70.5217391 L51.5809091,18.7826087 Z M41.2081818,27.7864774 L47.1354545,23.2173913 L47.1354545,70.5217391 L41.2081818,70.5217391 L41.2081818,27.7864774 Z M30.8354545,38.2889135 L36.7627273,33.5652174 L36.7627273,70.5217391 L30.8354545,70.5217391 L30.8354545,38.2889135 Z M20.4627273,39.4782609 L26.39,39.4782609 L26.39,70.5217391 L20.4627273,70.5217391 L20.4627273,39.4782609 Z M10.09,42.5729621 L16.0172727,39.4782609 L16.0172727,67.5652174 L10.09,65.661354 L10.09,42.5729621 Z" id="Shape"></path>
                </g>
                <g id="Regular-M" transform="translate(921.000000, 421.000000)">
                    <path d="M138.83671,32.7070553 C175.33671,24.2070553 175.33671,73.7070553 148.83671,73.7070553 L19.3367102,73.7070553 C-9.14021036,73.5 -6.64021036,24.5 30.3367102,35.7070553 C41.8597896,11 62.3367102,11.2070553 72.3367102,17.2070553 C83.8367102,-6.29294474 134.83671,-9.79294474 138.83671,32.7070553 Z M132.53,41.5 C135.03,-2.5 84.03,-2.5 75.53,27 C66.53,20.5 47.53,11.5 34.03,44 C-0.97,30.5 3.03,67 17.53,67 L17.53,67 L149.53,67 C166.03,67 167.53,27 132.53,41.5 Z M91.53,72 L91.53,8.23922274 C111.832561,-5.09954027 136.617431,15.4425496 137.935943,36.5182663 C151.910277,31.4494473 165.620909,39.7193912 165.620909,54.3922215 C165.620909,66.1307405 155.60148,71.0218962 150.591765,72 L91.53,72 Z M82.6390909,11.8066616 L88.5663636,9.91304348 L88.5663636,70.5217391 L82.6390909,70.5217391 L82.6390909,11.8066616 Z M72.2663636,20.3995361 L78.1936364,18.7826087 L78.1936364,70.5217391 L72.2663636,70.5217391 L72.2663636,20.3995361 Z M61.8936364,18.7826087 L67.8209091,18.7826087 L67.8209091,70.5217391 L61.8936364,70.5217391 L61.8936364,18.7826087 Z M51.5209091,18.7826087 L57.4481818,18.7826087 L57.4481818,70.5217391 L51.5209091,70.5217391 L51.5209091,18.7826087 Z M41.1481818,27.7864774 L47.0754545,23.2173913 L47.0754545,70.5217391 L41.1481818,70.5217391 L41.1481818,27.7864774 Z M30.7754545,38.2889135 L36.7027273,33.5652174 L36.7027273,70.5217391 L30.7754545,70.5217391 L30.7754545,38.2889135 Z M20.4027273,39.4782609 L26.33,39.4782609 L26.33,70.5217391 L20.4027273,70.5217391 L20.4027273,39.4782609 Z M10.03,42.5729621 L15.9572727,39.4782609 L15.9572727,67.5652174 L10.03,65.661354 L10.03,42.5729621 Z" id="Shape"></path>
                </g>
                <g id="Light-M" transform="translate(623.180000, 421.000000)">
                    <path d="M139.62671,32.7070553 C176.12671,24.2070553 176.12671,73.7070553 149.62671,73.7070553 L20.1267102,73.7070553 C-8.35021036,73.5 -5.85021036,24.5 31.1267102,35.7070553 C42.6497896,11 63.1267102,11.2070553 73.1267102,17.2070553 C84.6267102,-6.29294474 135.62671,-9.79294474 139.62671,32.7070553 Z M136.466944,41.6581717 C139.049476,-3.7943941 86.3658203,-3.7943941 77.585211,26.6794852 C68.2880953,19.9649016 48.660851,10.6677859 34.7151774,44.2407038 C-1.44027268,30.2950302 2.69177875,67.9999996 17.6704652,67.9999996 L17.6704652,67.9999996 L154.028163,67.9999996 C171.072875,67.9999996 172.622394,26.6794852 136.466944,41.6581717 Z M92.32,72 L92.32,8.23922274 C112.622561,-5.09954027 137.407431,15.4425496 138.725943,36.5182663 C152.700277,31.4494473 166.410909,39.7193912 166.410909,54.3922215 C166.410909,66.1307405 156.39148,71.0218962 151.381765,72 L92.32,72 Z M83.4290909,11.8066616 L87.4290909,9.91304348 L87.4290909,70.5217391 L83.4290909,70.5217391 L83.4290909,11.8066616 Z M73.0563636,20.3995361 L77.0563636,18.7826087 L77.0563636,70.5217391 L73.0563636,70.5217391 L73.0563636,20.3995361 Z M62.6836364,18.7826087 L66.6836364,18.7826087 L66.6836364,70.5217391 L62.6836364,70.5217391 L62.6836364,18.7826087 Z M52.3109091,18.7826087 L56.3109091,18.7826087 L56.3109091,70.5217391 L52.3109091,70.5217391 L52.3109091,18.7826087 Z M41.9381818,27.7864774 L45.9381818,23.2173913 L45.9381818,70.5217391 L41.9381818,70.5217391 L41.9381818,27.7864774 Z M31.5654545,38.2889135 L35.5654545,33.5652174 L35.5654545,70.5217391 L31.5654545,70.5217391 L31.5654545,38.2889135 Z M21.1927273,39.4782609 L25.1927273,39.4782609 L25.1927273,70.5217391 L21.1927273,70.5217391 L21.1927273,39.4782609 Z M10.82,42.5729621 L14.82,39.4782609 L14.82,67.5652174 L10.82,65.661354 L10.82,42.5729621 Z" id="Shape"></path>
                </g>
                <g id="Thin-M" transform="translate(327.565000, 421.000000)">
                    <path d="M139.24171,32.7070553 C175.74171,24.2070553 175.74171,73.7070553 149.24171,73.7070553 L19.7417102,73.7070553 C-8.73521036,73.5 -6.23521036,24.5 30.7417102,35.7070553 C42.2647896,11 62.7417102,11.2070553 72.7417102,17.2070553 C84.2417102,-6.29294474 135.24171,-9.79294474 139.24171,32.7070553 Z M134.963494,41.9745155 C136.435,-6 84.935,-4 75.6817458,24.038456 C66.3214697,16.8947051 44.435,14 32.5204727,41.722112 C-4.065,29 2.27952169,69.9999996 17.3599665,69.9999996 L17.3599665,69.9999996 L152.644016,69.9999996 C169.804522,69.9999996 171.364568,26.038456 134.963494,41.9745155 Z M91.935,72 L91.935,6.23922274 C112.237561,-7.09954027 137.022431,15.4425496 138.340943,36.5182663 C152.315277,31.4494473 166.025909,39.7193912 166.025909,54.3922215 C166.025909,66.1307405 156.00648,71.0218962 150.996765,72 L91.935,72 Z M83.0440909,10.4588262 L87.0440909,8.52173913 L87.0440909,70.5217391 L83.0440909,70.5217391 L83.0440909,10.4588262 Z M72.6713636,20.3995361 L76.6713636,18.7826087 L76.6713636,70.5217391 L72.6713636,70.5217391 L72.6713636,20.3995361 Z M62.2986364,18.7826087 L66.2986364,18.7826087 L66.2986364,70.5217391 L62.2986364,70.5217391 L62.2986364,18.7826087 Z M51.9259091,18.7826087 L55.9259091,18.7826087 L55.9259091,70.5217391 L51.9259091,70.5217391 L51.9259091,18.7826087 Z M41.5531818,27.1580177 L45.5531818,22.5217391 L45.5531818,70.5217391 L41.5531818,70.5217391 L41.5531818,27.1580177 Z M31.1804545,38.2889135 L35.1804545,33.5652174 L35.1804545,70.5217391 L31.1804545,70.5217391 L31.1804545,38.2889135 Z M20.8077273,37.5217391 L24.8077273,37.5217391 L24.8077273,70.5217391 L20.8077273,70.5217391 L20.8077273,37.5217391 Z M10.435,42.091069 L14.435,38.5652174 L14.435,70.5652174 L10.435,68.3961099 L10.435,42.091069 Z" id="Shape"></path>
                </g>
                <g id="Ultralight-M" transform="translate(30.415000, 421.000000)">
                    <path d="M139.39171,32.7070553 C175.89171,24.2070553 175.89171,73.7070553 149.39171,73.7070553 L19.8917102,73.7070553 C-8.58521036,73.5 -6.08521036,24.5 30.8917102,35.7070553 C42.4147896,11 62.8917102,11.2070553 72.8917102,17.2070553 C84.3917102,-6.29294474 135.39171,-9.79294474 139.39171,32.7070553 Z M135.613727,41.0741229 C137.113633,-7.82632864 85.585,-4.5 74.085,21.5 C66.585,15 45.585,10.5 32.085,39 C11.4765052,31.6831521 2.79903865,44.5201249 3.585,55.5 C4.16161783,63.5553474 10.3251657,70.9450903 17.585,71 L17.585,71 L152.585,71 C170.076714,71 172.717362,24.8304882 135.613727,41.0741229 Z M92.085,72 L92.085,4.23922274 C112.387561,-9.09954027 137.172431,15.4425496 138.490943,36.5182663 C152.465277,31.4494473 166.175909,39.7193912 166.175909,54.3922215 C166.175909,66.1307405 156.15648,71.0218962 151.146765,72 L92.085,72 Z M83.1940909,8.55255623 L86.1940909,6.52173913 L86.1940909,71.5217391 L83.1940909,71.5217391 L83.1940909,8.55255623 Z M72.8213636,17.2718253 L75.8213636,15.5217391 L75.8213636,71.5217391 L72.8213636,71.5217391 L72.8213636,17.2718253 Z M62.4486364,16.5217391 L65.4486364,16.5217391 L65.4486364,71.5217391 L62.4486364,71.5217391 L62.4486364,16.5217391 Z M52.0759091,16.5217391 L55.0759091,16.5217391 L55.0759091,71.5217391 L52.0759091,71.5217391 L52.0759091,16.5217391 Z M41.7031818,23.6409634 L44.7031818,18.5217391 L44.7031818,71.5217391 L41.7031818,71.5217391 L41.7031818,23.6409634 Z M31.3304545,37.5066279 L34.3304545,32.5217391 L34.3304545,71.5217391 L31.3304545,71.5217391 L31.3304545,37.5066279 Z M21.0502383,36 L23.9577273,36 L23.8652163,71.5217391 L20.9577273,71.5217391 L21.0502383,36 Z M10.585,39 L13.585,36.5652174 L13.585,71.5652174 L10.585,69.192756 L10.585,39 Z" id="Shape"></path>
                </g>
                <g id="Black-S" transform="translate(2436.000000, 0.000000)">
                    <path d="M86.6381884,20.4122188 C109.417555,15.1074349 109.417555,46 92.8791106,46 L12.0591677,46 C-5.71305697,45.8707784 -4.15282642,15.2902595 18.9241822,22.2844955 C26.1156464,6.86501446 38.8951333,6.99423604 45.1360556,10.7387894 C52.3131161,-3.92737787 84.1418195,-6.11170065 86.6381884,20.4122188 Z M82.0825903,28.7066453 C82.0825903,2.59226425 51.5001854,4.77350502 47.1385726,19.9006331 C42.5203944,16.5675371 29.9207022,12.5351318 22.9934349,29.2006119 C5.03385302,22.2780279 6.88118391,39.3178101 14.3215821,39.3178101 L14.3215821,39.3178101 L85.7289225,39.3178101 C94.1955826,39.3178101 100.042172,21.2712773 82.0825903,28.7066453 Z M57.1144384,44.9346401 L57.1144384,5.14203484 C69.7851086,-3.18258342 85.2531535,9.6375751 86.0760263,22.790766 C94.7972998,19.6273555 103.353999,24.7885631 103.353999,33.9457625 C103.353999,41.2716809 97.1009508,44.3242131 93.9744269,44.9346401 L57.1144384,44.9346401 Z M47.2821491,7.36844567 L52.8989792,6.18665335 L52.8989792,44.012069 L47.2821491,44.012069 L47.2821491,7.36844567 Z M37.9207658,11.9688847 L43.5375958,10.9351811 L43.5375958,44.012069 L37.9207658,44.012069 L37.9207658,11.9688847 Z M28.5593824,11.72208 L34.1762124,11.72208 L34.1762124,44.012069 L28.5593824,44.012069 L28.5593824,11.72208 Z M19.2052937,23.52025 L24.8148291,20.2965645 L24.8148291,44.012069 L19.1979991,44.012069 L19.2052937,23.52025 Z M9.83661574,26.0786156 L15.4534457,23.2270845 L15.4534457,44.012069 L9.83661574,44.012069 L9.83661574,26.0786156 Z" id="Shape"></path>
                </g>
                <g id="Heavy-S" transform="translate(2139.000000, 0.000000)">
                    <g id="Heavy-M" transform="translate(0.584324, 0.000000)">
                        <path d="M86.7701172,20.3314127 C109.459306,15.0476289 109.459306,45.8178992 92.9863334,45.8178992 L12.4863334,45.8178992 C-5.21553617,45.6891892 -3.66148212,15.2297297 19.3241712,22.1962776 C26.4871665,6.83783784 39.2160631,6.96654787 45.4322793,10.6962776 C52.580928,-3.91183051 84.2836307,-6.08750619 86.7701172,20.3314127 Z M83.1605405,28.2837838 C83.1605405,1.55405405 51.8786671,3.78669269 47.4172973,19.2702703 C42.693494,15.8586345 29.8056267,11.7312113 22.7199217,28.78939 C4.3495754,21.703685 6.2391577,39.7837838 13.8497297,39.7837838 L13.8497297,39.7837838 L86.8902703,39.7837838 C95.5505764,39.7837838 101.530887,20.6732118 83.1605405,28.2837838 Z M57.3632432,44.7567568 L57.3632432,5.121679 C69.9837538,-3.16998449 85.3905652,9.59942271 86.2101805,22.7005439 C94.8969289,19.5496564 103.419754,24.6904323 103.419754,33.8113809 C103.419754,41.1082982 97.1914605,44.1487463 94.0773136,44.7567568 L57.3632432,44.7567568 Z M50.6779853,7.33927611 L55.6509582,6.16216216 L55.6509582,43.8378378 L50.6779853,43.8378378 L50.6779853,7.33927611 Z M42.5969042,11.9215034 L47.5698771,10.8918919 L47.5698771,43.8378378 L42.5969042,43.8378378 L42.5969042,11.9215034 Z M34.5158231,11.6756757 L39.4887961,11.6756757 L39.4887961,43.8378378 L34.5158231,43.8378378 L34.5158231,11.6756757 Z M26.4412004,15.5405405 L31.407715,11.6756757 L31.407715,43.8378378 L26.434742,43.8378378 L26.4412004,15.5405405 Z M18.3536609,23.4888914 L23.3266339,20.6486486 L23.3266339,43.8378378 L18.3536609,43.8378378 L18.3536609,23.4888914 Z M10.2725799,23.8012165 L15.2455528,22.7297297 L15.2455528,43.8378378 L10.2725799,43.8378378 L10.2725799,23.8012165 Z" id="Shape"></path>
                    </g>
                </g>
                <g id="Bold-S" transform="translate(1842.230000, 0.000000)">
                    <path d="M87.3981884,20.4122188 C110.177555,15.1074349 110.177555,46 93.6391106,46 L12.8191677,46 C-4.95305697,45.8707784 -3.39282642,15.2902595 19.6841822,22.2844955 C26.8756464,6.86501446 39.6551333,6.99423604 45.8960556,10.7387894 C53.0731161,-3.92737787 84.9018195,-6.11170065 87.3981884,20.4122188 Z M82.2377347,27.4668061 C83.6370201,2.83938332 51.3470449,3.46347555 46.5894746,19.9750431 C41.5520473,16.3369011 30.9174783,10.6753815 23.3613373,28.8660915 C3.77134188,21.3099504 5.90612002,40.1729828 14.0219753,40.1729828 L14.0219753,40.1729828 L91.6487969,40.1729828 C100.88408,40.1729828 101.82773,19.3509509 82.2377347,27.4668061 Z M57.8744384,44.9346401 L57.8744384,5.14203484 C70.5451086,-3.18258342 86.0131535,9.6375751 86.8360263,22.790766 C95.5572998,19.6273555 104.113999,24.7885631 104.113999,33.9457625 C104.113999,41.2716809 97.8609508,44.3242131 94.7344269,44.9346401 L57.8744384,44.9346401 Z M49.8293223,7.36844567 L54.1979679,6.18665335 L54.1979679,44.012069 L49.8293223,44.012069 L49.8293223,7.36844567 Z M42.1075995,11.9688847 L46.476245,10.9351811 L46.476245,44.012069 L42.1075995,44.012069 L42.1075995,11.9688847 Z M34.3858766,11.72208 L38.7545221,11.72208 L38.7545221,44.012069 L34.3858766,44.012069 L34.3858766,11.72208 Z M26.6698273,15.6023056 L31.0327993,11.72208 L31.0327993,44.012069 L26.6641537,44.012069 L26.6698273,15.6023056 Z M18.9424308,23.5822467 L23.3110764,20.7307156 L23.3110764,44.012069 L18.9424308,44.012069 L18.9424308,23.5822467 Z M11.220708,23.8958132 L15.5893535,22.8200678 L15.5893535,44.012069 L11.220708,44.012069 L11.220708,23.8958132 Z" id="Shape"></path>
                </g>
                <g id="Semibold-S" transform="translate(1546.000000, 0.000000)">
                    <path d="M87.5281884,20.4122188 C110.307555,15.1074349 110.307555,46 93.7691106,46 L12.9491677,46 C-4.82305697,45.8707784 -3.26282642,15.2902595 19.8141822,22.2844955 C27.0056464,6.86501446 39.7851333,6.99423604 46.0260556,10.7387894 C53.2031161,-3.92737787 85.0318195,-6.11170065 87.5281884,20.4122188 Z M78.344753,26.8582011 C79.7509117,2.10980863 51.065275,2.10980863 46.2843355,18.7024808 C41.2221644,15.0464683 30.5353586,9.98429713 22.9421018,28.2643597 C3.25588054,20.6711029 5.4011447,40.2539481 13.5568649,40.2539481 L13.5568649,40.2539481 L87.8020422,40.2539481 C97.0826894,40.2539481 98.0309742,18.7024808 78.344753,26.8582011 Z M58.0044384,44.9346401 L58.0044384,5.14203484 C70.6751086,-3.18258342 86.1431535,9.6375751 86.9660263,22.790766 C95.6872998,19.6273555 104.243999,24.7885631 104.243999,33.9457625 C104.243999,41.2716809 97.9909508,44.3242131 94.8644269,44.9346401 L58.0044384,44.9346401 Z M49.9593223,7.36844567 L54.3279679,6.18665335 L54.3279679,44.012069 L49.9593223,44.012069 L49.9593223,7.36844567 Z M42.2375995,11.9688847 L46.606245,10.9351811 L46.606245,44.012069 L42.2375995,44.012069 L42.2375995,11.9688847 Z M34.5158766,11.72208 L38.8845221,11.72208 L38.8845221,44.012069 L34.5158766,44.012069 L34.5158766,11.72208 Z M26.7998273,15.6023056 L31.1627993,11.72208 L31.1627993,44.012069 L26.7941537,44.012069 L26.7998273,15.6023056 Z M19.0724308,23.5822467 L23.4410764,20.7307156 L23.4410764,44.012069 L19.0724308,44.012069 L19.0724308,23.5822467 Z M11.350708,23.8958132 L15.7193535,22.8200678 L15.7193535,44.012069 L11.350708,44.012069 L11.350708,23.8958132 Z" id="Shape"></path>
                </g>
                <g id="Medium-S" transform="translate(1249.000000, 0.000000)">
                    <path d="M86.7781884,20.4122188 C109.557555,15.1074349 109.557555,46 93.0191106,46 L12.1991677,46 C-5.57305697,45.8707784 -4.01282642,15.2902595 19.0641822,22.2844955 C26.2556464,6.86501446 39.0351333,6.99423604 45.2760556,10.7387894 C52.4531161,-3.92737787 84.2818195,-6.11170065 86.7781884,20.4122188 Z M78.9142514,25.7023994 C80.3714666,0.0554121436 50.6442769,0.0554121436 45.6897453,17.2505513 C40.4437706,13.4617918 29.3689352,8.21581717 21.4999732,27.1596146 C1.09896064,19.2906526 3.32211766,40.8780406 11.7739657,40.8780406 L11.7739657,40.8780406 L88.7149274,40.8780406 C98.3325476,40.8780406 99.315264,17.2505513 78.9142514,25.7023994 Z M57.2544384,44.9346401 L57.2544384,5.14203484 C69.9251086,-3.18258342 85.3931535,9.6375751 86.2160263,22.790766 C94.9372998,19.6273555 103.493999,24.7885631 103.493999,33.9457625 C103.493999,41.2716809 97.2409508,44.3242131 94.1144269,44.9346401 L57.2544384,44.9346401 Z M51.7056912,7.36844567 L55.404856,6.18665335 L55.404856,44.012069 L51.7056912,44.012069 L51.7056912,7.36844567 Z M45.2321528,11.9688847 L48.9313176,10.9351811 L48.9313176,44.012069 L45.2321528,44.012069 L45.2321528,11.9688847 Z M38.7586144,11.72208 L42.4577792,11.72208 L42.4577792,44.012069 L38.7586144,44.012069 L38.7586144,11.72208 Z M32.2850759,11.72208 L35.9842408,11.72208 L35.9842408,44.012069 L32.2850759,44.012069 L32.2850759,11.72208 Z M25.8115375,17.3413245 L29.5107023,14.4897934 L29.5107023,44.012069 L25.8115375,44.012069 L25.8115375,17.3413245 Z M19.3379991,23.8958132 L23.0371639,20.9477912 L23.0371639,44.012069 L19.3379991,44.012069 L19.3379991,23.8958132 Z M12.8644607,24.6380756 L16.5636255,24.6380756 L16.5636255,44.012069 L12.8644607,44.012069 L12.8644607,24.6380756 Z M6.39092223,26.5694546 L10.090087,24.6380756 L10.090087,42.1669267 L6.39092223,40.9787404 L6.39092223,26.5694546 Z" id="Shape"></path>
                </g>
                <g id="Regular-S" transform="translate(953.000000, 0.000000)">
                    <path d="M86.8981884,20.4122188 C109.677555,15.1074349 109.677555,46 93.1391106,46 L12.3191677,46 C-5.45305697,45.8707784 -3.89282642,15.2902595 19.1841822,22.2844955 C26.3756464,6.86501446 39.1551333,6.99423604 45.3960556,10.7387894 C52.5731161,-3.92737787 84.4018195,-6.11170065 86.8981884,20.4122188 Z M82.9622196,25.8998273 C84.5224502,-1.56023056 52.6937468,-1.56023056 47.3889629,16.85049 C41.7721329,12.7938906 29.9143806,7.17706057 21.4891356,27.4600578 C-0.354092223,19.0348128 2.14227667,41.814179 11.1916139,41.814179 L11.1916139,41.814179 L93.5717874,41.814179 C103.869309,41.814179 104.805447,16.85049 82.9622196,25.8998273 Z M57.3744384,44.9346401 L57.3744384,5.14203484 C70.0451086,-3.18258342 85.5131535,9.6375751 86.3360263,22.790766 C95.0572998,19.6273555 103.613999,24.7885631 103.613999,33.9457625 C103.613999,41.2716809 97.3609508,44.3242131 94.2344269,44.9346401 L57.3744384,44.9346401 Z M51.8256912,7.36844567 L55.524856,6.18665335 L55.524856,44.012069 L51.8256912,44.012069 L51.8256912,7.36844567 Z M45.3521528,12.7311918 L49.0513176,11.72208 L49.0513176,44.012069 L45.3521528,44.012069 L45.3521528,12.7311918 Z M38.8786144,11.72208 L42.5777792,11.72208 L42.5777792,44.012069 L38.8786144,44.012069 L38.8786144,11.72208 Z M32.4050759,11.72208 L36.1042408,11.72208 L36.1042408,44.012069 L32.4050759,44.012069 L32.4050759,11.72208 Z M25.9315375,17.3413245 L29.6307023,14.4897934 L29.6307023,44.012069 L25.9315375,44.012069 L25.9315375,17.3413245 Z M19.4579991,23.8958132 L23.1571639,20.9477912 L23.1571639,44.012069 L19.4579991,44.012069 L19.4579991,23.8958132 Z M12.9844607,24.6380756 L16.6836255,24.6380756 L16.6836255,44.012069 L12.9844607,44.012069 L12.9844607,24.6380756 Z M6.51092223,26.5694546 L10.210087,24.6380756 L10.210087,42.1669267 L6.51092223,40.9787404 L6.51092223,26.5694546 Z" id="Shape"></path>
                </g>
                <g id="Light-S" transform="translate(656.000000, 0.000000)">
                    <path d="M86.8781884,20.4122188 C109.657555,15.1074349 109.657555,46 93.1191106,46 L12.2991677,46 C-5.47305697,45.8707784 -3.91282642,15.2902595 19.1641822,22.2844955 C26.3556464,6.86501446 39.1351333,6.99423604 45.3760556,10.7387894 C52.5531161,-3.92737787 84.3818195,-6.11170065 86.8781884,20.4122188 Z M84.9062028,25.998541 C86.5179411,-2.36805185 53.6384812,-2.36805185 48.1585712,16.6504593 C42.3563136,12.4599399 30.107103,6.65768223 21.4037166,27.6102792 C-1.1606186,18.9068928 1.41816256,42.4382709 10.7662443,42.4382709 L10.7662443,42.4382709 L95.8660228,42.4382709 C106.503495,42.4382709 107.470538,16.6504593 84.9062028,25.998541 Z M57.3544384,44.9346401 L57.3544384,5.14203484 C70.0251086,-3.18258342 85.4931535,9.6375751 86.3160263,22.790766 C95.0372998,19.6273555 103.593999,24.7885631 103.593999,33.9457625 C103.593999,41.2716809 97.3409508,44.3242131 94.2144269,44.9346401 L57.3544384,44.9346401 Z M51.8056912,7.36844567 L54.8056912,6.18665335 L54.8056912,44.012069 L51.8056912,44.012069 L51.8056912,7.36844567 Z M45.3321528,12.7311918 L48.3321528,11.72208 L48.3321528,44.012069 L45.3321528,44.012069 L45.3321528,12.7311918 Z M38.8586144,11.72208 L41.8586144,11.72208 L41.8586144,44.012069 L38.8586144,44.012069 L38.8586144,11.72208 Z M32.3850759,11.72208 L35.3850759,11.72208 L35.3850759,44.012069 L32.3850759,44.012069 L32.3850759,11.72208 Z M25.9115375,17.3413245 L28.9115375,14.4897934 L28.9115375,44.012069 L25.9115375,44.012069 L25.9115375,17.3413245 Z M19.4379991,23.8958132 L22.4379991,20.9477912 L22.4379991,44.012069 L19.4379991,44.012069 L19.4379991,23.8958132 Z M12.9644607,24.6380756 L15.9644607,24.6380756 L15.9644607,44.012069 L12.9644607,44.012069 L12.9644607,24.6380756 Z M6.49092223,26.5694546 L9.49092223,24.6380756 L9.49092223,42.1669267 L6.49092223,40.9787404 L6.49092223,26.5694546 Z" id="Shape"></path>
                </g>
                <g id="Thin-S" transform="translate(358.015000, 0.000000)">
                    <path d="M87.6131884,20.4122188 C110.392555,15.1074349 110.392555,46 93.8541106,46 L13.0341677,46 C-4.73805697,45.8707784 -3.17782642,15.2902595 19.8991822,22.2844955 C27.0906464,6.86501446 39.8701333,6.99423604 46.1110556,10.7387894 C53.2881161,-3.92737787 85.1168195,-6.11170065 87.6131884,20.4122188 Z M84.9431872,26.1959687 C85.8615424,-3.74455334 53.7207929,-2.49636889 47.9459089,15.0022134 C42.1042334,10.5438541 28.4450578,8.73729113 21.009294,26.0384456 C-1.82341501,18.0986745 2.13615164,43.6864554 11.54774,43.6864554 L11.54774,43.6864554 L95.9774632,43.6864554 C106.687202,43.6864554 107.660814,16.2503979 84.9431872,26.1959687 Z M58.0894384,44.9346401 L58.0894384,3.89385039 C70.7601086,-4.43076787 86.2281535,9.6375751 87.0510263,22.790766 C95.7722998,19.6273555 104.328999,24.7885631 104.328999,33.9457625 C104.328999,41.2716809 98.0759508,44.3242131 94.9494269,44.9346401 L58.0894384,44.9346401 Z M52.5406912,6.5272721 L55.0370601,5.31835112 L55.0370601,44.012069 L52.5406912,44.012069 L52.5406912,6.5272721 Z M46.0671528,12.7311918 L48.5635217,11.72208 L48.5635217,44.012069 L46.0671528,44.012069 L46.0671528,12.7311918 Z M39.5936144,11.72208 L42.0899833,11.72208 L42.0899833,44.012069 L39.5936144,44.012069 L39.5936144,11.72208 Z M33.1200759,11.72208 L35.6164448,11.72208 L35.6164448,44.012069 L33.1200759,44.012069 L33.1200759,11.72208 Z M26.6465375,16.9491076 L29.1429064,14.0556422 L29.1429064,44.012069 L26.6465375,44.012069 L26.6465375,16.9491076 Z M20.1729991,23.8958132 L22.669368,20.9477912 L22.669368,44.012069 L20.1729991,44.012069 L20.1729991,23.8958132 Z M13.6994607,23.4170256 L16.1958296,23.4170256 L16.1958296,44.012069 L13.6994607,44.012069 L13.6994607,23.4170256 Z M7.22592223,26.2687088 L9.72229113,24.0682523 L9.72229113,44.0392034 L7.22592223,42.6854803 L7.22592223,26.2687088 Z" id="Shape"></path>
                </g>
                <g id="Ultralight-S" transform="translate(63.000000, 0.000000)">
                    <path d="M86.6281884,20.4122188 C109.407555,15.1074349 109.407555,46 92.8691106,46 L12.0491677,46 C-5.72305697,45.8707784 -4.16282642,15.2902595 18.9141822,22.2844955 C26.1056464,6.86501446 38.8851333,6.99423604 45.1260556,10.7387894 C52.3031161,-3.92737787 84.1318195,-6.11170065 86.6281884,20.4122188 Z M84.2703781,25.6340407 C85.2064581,-4.88435084 53.047839,-2.80841501 45.8707784,13.4179828 C41.1900867,9.36138335 28.0841501,6.55296835 19.658905,24.3395967 C6.79730368,19.7732089 1.3817643,27.7846637 1.87227667,34.6371184 C2.23213937,39.6643981 6.07876164,44.2762792 10.6095678,44.3105479 L10.6095678,44.3105479 L94.862018,44.3105479 C105.778461,44.3105479 107.426469,15.4965146 84.2703781,25.6340407 Z M57.1044384,44.9346401 L57.1044384,2.64566595 C69.7751086,-5.67895232 85.2431535,9.6375751 86.0660263,22.790766 C94.7872998,19.6273555 103.343999,24.7885631 103.343999,33.9457625 C103.343999,41.2716809 97.0909508,44.3242131 93.9644269,44.9346401 L57.1044384,44.9346401 Z M51.5556912,5.33758383 L53.4279679,4.07016667 L53.4279679,44.6361612 L51.5556912,44.6361612 L51.5556912,5.33758383 Z M45.0821528,10.7792118 L46.9544295,9.68699668 L46.9544295,44.6361612 L45.0821528,44.6361612 L45.0821528,10.7792118 Z M38.6086144,10.3110889 L40.480891,10.3110889 L40.480891,44.6361612 L38.6086144,44.6361612 L38.6086144,10.3110889 Z M32.1350759,10.3110889 L34.0073526,10.3110889 L34.0073526,44.6361612 L32.1350759,44.6361612 L32.1350759,10.3110889 Z M25.6615375,14.7541414 L27.5338142,11.5592734 L27.5338142,44.6361612 L25.6615375,44.6361612 L25.6615375,14.7541414 Z M19.1879991,23.4075948 L21.0602758,20.2965645 L21.0602758,44.6361612 L19.1879991,44.6361612 L19.1879991,23.4075948 Z M12.7721961,22.46732 L14.5867373,22.46732 L14.5290019,44.6361612 L12.7144607,44.6361612 L12.7721961,22.46732 Z M6.24092223,24.3395967 L8.1131989,22.8200678 L8.1131989,44.6632956 L6.24092223,43.182661 L6.24092223,24.3395967 Z" id="Shape"></path>
                </g>
            </g>
        </g>
    </g>
</svg>

